<svg width="271" height="154" viewBox="0 0 271 154" fill="none" xmlns="http://www.w3.org/2000/svg">
	<path opacity="0.5" d="M157.146 120.752C157.593 120.898 157.989 121.232 158.259 121.689C158.528 122.147 158.653 122.696 158.608 123.232C158.6 123.315 158.6 123.398 158.608 123.481C158.619 123.73 158.702 123.973 158.842 124.167C158.982 124.362 159.172 124.497 159.379 124.551C159.587 124.604 159.799 124.572 159.98 124.46C160.162 124.349 160.302 124.164 160.377 123.937C160.407 123.863 160.429 123.785 160.444 123.704C160.54 123.181 160.796 122.73 161.165 122.436C161.534 122.141 161.989 122.025 162.444 122.108C162.514 122.123 162.584 122.127 162.654 122.123C162.864 122.125 163.063 122.041 163.219 121.886C163.375 121.73 163.478 121.513 163.511 121.269C163.543 121.026 163.504 120.772 163.399 120.549C163.293 120.327 163.129 120.149 162.933 120.047C162.869 120.007 162.802 119.975 162.733 119.953C162.286 119.807 161.889 119.473 161.62 119.016C161.35 118.559 161.226 118.01 161.27 117.473C161.278 117.391 161.278 117.307 161.27 117.224C161.259 116.975 161.177 116.733 161.036 116.538C160.896 116.344 160.706 116.208 160.499 116.155C160.292 116.101 160.08 116.133 159.898 116.245C159.717 116.357 159.577 116.542 159.502 116.769C159.472 116.842 159.449 116.92 159.435 117.001C159.338 117.525 159.08 117.976 158.71 118.269C158.34 118.563 157.884 118.678 157.429 118.593C157.359 118.578 157.289 118.573 157.219 118.578C157.009 118.576 156.81 118.66 156.654 118.815C156.498 118.971 156.395 119.188 156.362 119.431C156.33 119.675 156.369 119.929 156.474 120.151C156.58 120.374 156.744 120.551 156.94 120.654C157.006 120.696 157.074 120.729 157.146 120.752Z" fill="#4D8AF0" />
	<path opacity="0.5" d="M152.542 99.3023C152.765 99.3755 152.963 99.5423 153.098 99.7709C153.233 99.9996 153.295 100.274 153.273 100.543C153.269 100.584 153.269 100.625 153.273 100.667C153.278 100.791 153.32 100.913 153.39 101.01C153.46 101.107 153.555 101.175 153.658 101.202C153.762 101.228 153.868 101.212 153.959 101.156C154.05 101.101 154.12 101.008 154.157 100.895C154.172 100.858 154.183 100.819 154.191 100.778C154.239 100.517 154.367 100.291 154.551 100.144C154.736 99.997 154.963 99.9387 155.191 99.9803C155.226 99.9875 155.261 99.99 155.296 99.9876C155.401 99.9886 155.5 99.9468 155.578 99.8691C155.656 99.7914 155.708 99.6827 155.724 99.561C155.74 99.4394 155.721 99.3122 155.668 99.2009C155.615 99.0896 155.533 99.001 155.435 98.9497C155.403 98.9297 155.37 98.914 155.335 98.9029C155.112 98.8298 154.913 98.663 154.779 98.4344C154.644 98.2057 154.582 97.9311 154.604 97.6628C154.608 97.6217 154.608 97.58 154.604 97.5384C154.598 97.4138 154.557 97.2928 154.487 97.1954C154.417 97.098 154.322 97.0303 154.218 97.0036C154.115 96.977 154.009 96.9929 153.918 97.0488C153.827 97.1047 153.757 97.1972 153.72 97.3107C153.705 97.3475 153.693 97.3865 153.686 97.4269C153.638 97.6886 153.509 97.9142 153.324 98.0609C153.139 98.2076 152.911 98.2651 152.683 98.2226C152.648 98.2154 152.613 98.213 152.578 98.2153C152.473 98.2143 152.374 98.2562 152.296 98.3338C152.218 98.4115 152.166 98.5203 152.15 98.642C152.134 98.7636 152.153 98.8907 152.206 99.002C152.259 99.1133 152.341 99.202 152.439 99.2532C152.472 99.2743 152.506 99.2908 152.542 99.3023Z" fill="#4D8AF0" />
	<path opacity="0.5" d="M233.875 95.6683C233.949 96.1433 233.859 96.6266 233.622 97.0264C233.384 97.4262 233.017 97.7146 232.588 97.8368C232.522 97.8543 232.459 97.8801 232.399 97.9135C232.213 98.0005 232.062 98.1542 231.972 98.349C231.881 98.5439 231.857 98.7678 231.902 98.9835C231.948 99.1991 232.06 99.3932 232.221 99.5333C232.382 99.6735 232.581 99.751 232.785 99.7531C232.854 99.7593 232.923 99.7569 232.991 99.7461C233.431 99.6782 233.882 99.7872 234.26 100.052C234.638 100.318 234.915 100.721 235.039 101.185C235.057 101.256 235.083 101.325 235.115 101.391C235.201 101.593 235.348 101.759 235.531 101.861C235.714 101.963 235.923 101.995 236.123 101.952C236.322 101.908 236.5 101.792 236.626 101.622C236.752 101.453 236.82 101.24 236.816 101.02C236.82 100.947 236.816 100.873 236.805 100.799C236.731 100.324 236.821 99.841 237.058 99.4412C237.295 99.0414 237.663 98.7531 238.091 98.6309C238.157 98.6133 238.221 98.5876 238.281 98.5542C238.467 98.4672 238.617 98.3134 238.708 98.1186C238.798 97.9238 238.823 97.6998 238.777 97.4842C238.732 97.2686 238.619 97.0744 238.459 96.9343C238.298 96.7942 238.098 96.7166 237.894 96.7146C237.825 96.7084 237.757 96.7108 237.689 96.7216C237.249 96.7895 236.797 96.6805 236.42 96.4152C236.042 96.15 235.764 95.7471 235.64 95.2831C235.622 95.2116 235.597 95.1424 235.564 95.0769C235.479 94.8748 235.332 94.7089 235.148 94.6068C234.965 94.5046 234.756 94.4726 234.557 94.516C234.357 94.5594 234.18 94.6756 234.053 94.8452C233.927 95.0147 233.86 95.2273 233.863 95.4472C233.859 95.521 233.863 95.5951 233.875 95.6683Z" fill="#4D8AF0" />
	<path opacity="0.5" d="M225.764 35.5072C225.838 35.9822 225.748 36.4655 225.51 36.8653C225.273 37.2651 224.905 37.5535 224.477 37.6756C224.411 37.6932 224.347 37.7189 224.287 37.7523C224.102 37.8393 223.951 37.9931 223.86 38.1879C223.77 38.3827 223.746 38.6067 223.791 38.8223C223.836 39.038 223.949 39.2321 224.11 39.3722C224.27 39.5123 224.47 39.5899 224.674 39.5919C224.743 39.5981 224.812 39.5958 224.879 39.5849C225.319 39.517 225.771 39.6261 226.149 39.8913C226.526 40.1566 226.804 40.5595 226.928 41.0234C226.946 41.0949 226.971 41.1641 227.004 41.2297C227.09 41.4317 227.236 41.5977 227.42 41.6998C227.603 41.8019 227.812 41.8339 228.011 41.7905C228.211 41.7471 228.389 41.6309 228.515 41.4614C228.641 41.2918 228.708 41.0793 228.705 40.8593C228.709 40.7856 228.705 40.7114 228.693 40.6382C228.619 40.1633 228.709 39.6799 228.947 39.2801C229.184 38.8803 229.551 38.5919 229.98 38.4698C230.046 38.4522 230.109 38.4265 230.17 38.3931C230.355 38.3061 230.506 38.1523 230.596 37.9575C230.687 37.7627 230.711 37.5387 230.666 37.3231C230.621 37.1075 230.508 36.9133 230.347 36.7732C230.186 36.6331 229.987 36.5555 229.783 36.5535C229.714 36.5473 229.645 36.5496 229.577 36.5605C229.138 36.6284 228.686 36.5193 228.308 36.2541C227.931 35.9888 227.653 35.5859 227.529 35.1219C227.511 35.0505 227.485 34.9813 227.453 34.9157C227.367 34.7137 227.221 34.5477 227.037 34.4456C226.854 34.3435 226.645 34.3115 226.445 34.3549C226.246 34.3983 226.068 34.5145 225.942 34.6841C225.816 34.8536 225.749 35.0662 225.752 35.2861C225.748 35.3598 225.752 35.434 225.764 35.5072Z" fill="#F04DCC" />
	<path opacity="0.5" d="M243.443 68.7922C241.761 69.0741 240.652 70.817 240.966 72.685C241.279 74.5531 242.896 75.8388 244.577 75.5569C246.258 75.2749 247.367 73.5321 247.054 71.664C246.741 69.796 245.124 68.5102 243.443 68.7922Z" fill="#F55F44" />
	<path opacity="0.5" d="M120.341 106.128C118.66 106.41 117.5 107.85 117.751 109.344C118.002 110.839 119.568 111.822 121.249 111.54C122.93 111.258 124.09 109.818 123.839 108.323C123.589 106.829 122.023 105.846 120.341 106.128Z" fill="#F55F44" />
	<path opacity="0.5" d="M199.151 94.9978C197.47 95.2798 196.412 97.3255 196.788 99.5671C197.164 101.809 198.831 103.397 200.513 103.115C202.194 102.834 203.252 100.788 202.876 98.5461C202.5 96.3045 200.832 94.7159 199.151 94.9978Z" fill="#5DF544" />
	<path opacity="0.5" d="M109.692 57.1427C108.571 57.3307 107.891 58.8459 108.173 60.5272C108.455 62.2084 109.592 63.4189 110.713 63.231C111.834 63.043 112.514 61.5277 112.232 59.8465C111.95 58.1653 110.813 56.9547 109.692 57.1427Z" fill="#F55F44" />
	<path opacity="0.5" d="M43.5294 108.19C43.8403 108.451 44.0499 108.846 44.1184 109.299C44.1868 109.752 44.1093 110.231 43.9006 110.647C43.8678 110.71 43.8409 110.776 43.8206 110.846C43.749 111.049 43.737 111.269 43.7866 111.47C43.8362 111.671 43.9444 111.841 44.0931 111.95C44.2419 112.06 44.422 112.103 44.6034 112.072C44.7848 112.041 44.9564 111.938 45.0894 111.78C45.1371 111.731 45.1803 111.676 45.218 111.616C45.4634 111.228 45.8144 110.949 46.2044 110.833C46.5944 110.716 46.9963 110.77 47.3338 110.983C47.385 111.017 47.4399 111.044 47.4972 111.062C47.6643 111.131 47.8509 111.129 48.0258 111.055C48.2007 110.981 48.3533 110.84 48.4579 110.655C48.5625 110.471 48.6127 110.255 48.6003 110.043C48.5878 109.831 48.5134 109.636 48.3895 109.491C48.3512 109.438 48.3076 109.391 48.2594 109.351C47.9485 109.09 47.7389 108.695 47.6705 108.242C47.602 107.789 47.6795 107.309 47.8882 106.894C47.9211 106.831 47.9479 106.764 47.9682 106.695C48.0398 106.492 48.0519 106.272 48.0022 106.071C47.9526 105.869 47.8444 105.7 47.6957 105.59C47.547 105.481 47.3668 105.438 47.1854 105.469C47.0041 105.5 46.8325 105.603 46.6994 105.761C46.6517 105.81 46.6086 105.865 46.5709 105.925C46.3247 106.313 45.9728 106.591 45.5822 106.706C45.1916 106.822 44.7894 106.767 44.4522 106.552C44.401 106.518 44.3462 106.492 44.2888 106.473C44.1217 106.404 43.9351 106.407 43.7602 106.481C43.5853 106.555 43.4327 106.696 43.3282 106.88C43.2236 107.064 43.1733 107.28 43.1857 107.493C43.1982 107.705 43.2726 107.9 43.3966 108.045C43.4354 108.1 43.48 108.148 43.5294 108.19Z" fill="#4D8AF0" />
	<path opacity="0.5" d="M46.7588 89.536C46.9143 89.6666 47.0191 89.864 47.0533 90.0905C47.0876 90.317 47.0488 90.5568 46.9445 90.7644C46.928 90.796 46.9146 90.8294 46.9045 90.864C46.8686 90.9654 46.8626 91.0757 46.8874 91.1762C46.9122 91.2768 46.9664 91.3616 47.0407 91.4163C47.1151 91.4711 47.2051 91.4925 47.2958 91.477C47.3865 91.4615 47.4723 91.4101 47.5388 91.3312C47.5627 91.3066 47.5843 91.279 47.6031 91.249C47.7258 91.0552 47.9013 90.9159 48.0963 90.8576C48.2914 90.7993 48.4923 90.826 48.6611 90.9326C48.6867 90.9496 48.7141 90.9629 48.7427 90.9723C48.8263 91.0069 48.9196 91.0055 49.0071 90.9685C49.0945 90.9314 49.1708 90.8609 49.2231 90.7688C49.2754 90.6767 49.3005 90.5686 49.2943 90.4625C49.2881 90.3565 49.2508 90.259 49.1889 90.1864C49.1698 90.1601 49.1479 90.1367 49.1239 90.1167C48.9684 89.986 48.8636 89.7887 48.8294 89.5622C48.7951 89.3357 48.8339 89.0959 48.9382 88.8883C48.9547 88.8567 48.9681 88.8233 48.9782 88.7887C49.0141 88.6872 49.0201 88.577 48.9953 88.4764C48.9705 88.3759 48.9163 88.2911 48.842 88.2363C48.7676 88.1816 48.6776 88.1602 48.5869 88.1757C48.4962 88.1911 48.4104 88.2426 48.3439 88.3214C48.32 88.3461 48.2984 88.3736 48.2796 88.4036C48.1565 88.5975 47.9806 88.7365 47.7852 88.7944C47.5899 88.8522 47.3888 88.8248 47.2202 88.7173C47.1946 88.7003 47.1672 88.687 47.1386 88.6777C47.055 88.6431 46.9617 88.6444 46.8742 88.6815C46.7868 88.7185 46.7105 88.789 46.6582 88.8811C46.6059 88.9732 46.5808 89.0814 46.587 89.1874C46.5932 89.2935 46.6305 89.391 46.6924 89.4635C46.7118 89.4909 46.7341 89.5153 46.7588 89.536Z" fill="#4D8AF0" />
	<path opacity="0.5" d="M113.036 112.841C112.943 113.246 112.715 113.603 112.396 113.847C112.077 114.091 111.69 114.203 111.308 114.163C111.249 114.155 111.19 114.156 111.131 114.163C110.954 114.173 110.784 114.247 110.649 114.374C110.514 114.501 110.422 114.672 110.389 114.859C110.356 115.047 110.383 115.238 110.467 115.402C110.55 115.566 110.685 115.693 110.848 115.76C110.901 115.787 110.957 115.808 111.014 115.821C111.388 115.908 111.715 116.141 111.932 116.475C112.148 116.809 112.241 117.221 112.191 117.633C112.182 117.696 112.18 117.759 112.185 117.822C112.188 118.011 112.252 118.192 112.366 118.332C112.48 118.473 112.637 118.566 112.811 118.596C112.984 118.625 113.164 118.59 113.32 118.495C113.475 118.4 113.598 118.251 113.666 118.074C113.693 118.016 113.714 117.956 113.728 117.893C113.822 117.489 114.05 117.131 114.368 116.888C114.687 116.644 115.074 116.532 115.457 116.572C115.515 116.579 115.574 116.579 115.633 116.572C115.81 116.562 115.98 116.487 116.115 116.361C116.25 116.234 116.342 116.062 116.375 115.875C116.409 115.688 116.381 115.496 116.298 115.332C116.214 115.168 116.079 115.042 115.916 114.974C115.863 114.947 115.808 114.927 115.75 114.914C115.376 114.826 115.049 114.594 114.833 114.26C114.616 113.926 114.524 113.514 114.574 113.102C114.582 113.039 114.584 112.975 114.579 112.913C114.576 112.723 114.512 112.543 114.398 112.402C114.284 112.261 114.127 112.168 113.954 112.139C113.78 112.109 113.6 112.145 113.445 112.24C113.289 112.335 113.167 112.484 113.098 112.661C113.071 112.718 113.051 112.779 113.036 112.841Z" fill="#4D8AF0" />
	<path opacity="0.5" d="M125.935 62.0691C125.841 62.4731 125.613 62.831 125.294 63.0746C124.976 63.3182 124.588 63.4305 124.206 63.3902C124.148 63.383 124.088 63.3831 124.029 63.3904C123.853 63.4002 123.682 63.4747 123.547 63.6015C123.412 63.7284 123.32 63.8997 123.287 64.087C123.254 64.2742 123.281 64.4658 123.365 64.6298C123.449 64.7938 123.583 64.9202 123.746 64.9877C123.799 65.0148 123.855 65.0351 123.913 65.0483C124.287 65.1357 124.613 65.3686 124.83 65.7026C125.047 66.0367 125.139 66.4486 125.089 66.8601C125.08 66.9231 125.078 66.9867 125.083 67.0497C125.087 67.2389 125.151 67.4191 125.265 67.56C125.379 67.7008 125.535 67.7938 125.709 67.8233C125.883 67.8528 126.062 67.8171 126.218 67.7221C126.374 67.627 126.496 67.4785 126.564 67.3014C126.591 67.2437 126.612 67.1831 126.626 67.1207C126.72 66.7166 126.948 66.3587 127.267 66.1151C127.585 65.8715 127.973 65.7592 128.355 65.7995C128.413 65.8067 128.473 65.8067 128.532 65.7993C128.708 65.7895 128.879 65.715 129.014 65.5882C129.149 65.4614 129.241 65.29 129.274 65.1028C129.307 64.9155 129.28 64.7239 129.196 64.5599C129.112 64.3959 128.978 64.2695 128.815 64.202C128.762 64.1749 128.706 64.1546 128.648 64.1415C128.274 64.054 127.948 63.8212 127.731 63.4871C127.514 63.1531 127.422 62.7411 127.472 62.3297C127.481 62.2667 127.483 62.203 127.478 62.1401C127.474 61.9508 127.41 61.7706 127.296 61.6297C127.183 61.4889 127.026 61.3959 126.852 61.3664C126.678 61.3369 126.499 61.3726 126.343 61.4677C126.187 61.5627 126.065 61.7112 125.997 61.8883C125.97 61.946 125.949 62.0067 125.935 62.0691Z" fill="#F04DCC" />
	<path opacity="0.5" d="M129.356 94.4109C127.92 94.0947 126.47 95.1325 126.119 96.7288C125.768 98.3251 126.648 99.8755 128.084 100.192C129.521 100.508 130.97 99.4701 131.322 97.8738C131.673 96.2775 130.793 94.7271 129.356 94.4109Z" fill="#F55F44" />
	<path opacity="0.5" d="M18.7837 84.6208C17.347 84.3046 15.9545 85.0835 15.6734 86.3605C15.3924 87.6376 16.3292 88.9292 17.7659 89.2454C19.2025 89.5616 20.595 88.7826 20.8761 87.5056C21.1571 86.2285 20.2203 84.937 18.7837 84.6208Z" fill="#F55F44" />
	<path opacity="0.5" d="M85.4586 101.113C84.0219 100.797 82.5155 102.094 82.0939 104.009C81.6723 105.925 82.4952 107.734 83.9319 108.05C85.3686 108.366 86.875 107.07 87.2966 105.154C87.7181 103.239 86.8953 101.429 85.4586 101.113Z" fill="#5DF544" />
	<path opacity="0.5" d="M26.0456 41.9762C25.0878 41.7654 24.055 42.7592 23.7388 44.1959C23.4226 45.6325 23.9428 46.9681 24.9005 47.1789C25.8583 47.3897 26.8911 46.3959 27.2073 44.9592C27.5235 43.5225 27.0034 42.187 26.0456 41.9762Z" fill="#F55F44" />
	<path opacity="0.5" d="M223.423 95.7165C223.636 95.7567 223.837 95.8853 223.987 96.078C224.137 96.2707 224.227 96.514 224.238 96.7616C224.24 96.7996 224.245 96.8377 224.253 96.8752C224.273 96.9882 224.325 97.0939 224.401 97.1744C224.477 97.2549 224.571 97.3054 224.669 97.3174C224.767 97.3294 224.862 97.3022 224.938 97.2404C225.014 97.1785 225.067 97.0857 225.088 96.9776C225.097 96.9422 225.103 96.9053 225.104 96.8675C225.117 96.6231 225.207 96.4017 225.358 96.2455C225.509 96.0892 225.71 96.0089 225.923 96.0197C225.955 96.0221 225.988 96.0202 226.019 96.0139C226.115 96.0023 226.201 95.9522 226.263 95.872C226.325 95.7918 226.359 95.6863 226.359 95.5733C226.36 95.4603 226.327 95.3466 226.265 95.2512C226.204 95.1559 226.118 95.0847 226.023 95.0497C225.991 95.0352 225.959 95.0248 225.926 95.0189C225.713 94.9787 225.512 94.8501 225.362 94.6574C225.212 94.4647 225.122 94.2214 225.11 93.9738C225.109 93.9358 225.104 93.8977 225.096 93.8602C225.076 93.7471 225.024 93.6415 224.948 93.561C224.872 93.4805 224.778 93.43 224.68 93.418C224.582 93.4059 224.487 93.4332 224.411 93.495C224.335 93.5569 224.282 93.6496 224.261 93.7577C224.252 93.7931 224.246 93.8301 224.244 93.8678C224.231 94.1125 224.141 94.3338 223.989 94.4898C223.838 94.6458 223.637 94.7255 223.424 94.7139C223.391 94.7115 223.358 94.7134 223.327 94.7197C223.231 94.7313 223.145 94.7814 223.083 94.8616C223.021 94.9418 222.987 95.0473 222.987 95.1603C222.986 95.2733 223.02 95.387 223.081 95.4823C223.142 95.5777 223.228 95.6489 223.323 95.6839C223.356 95.6993 223.389 95.7102 223.423 95.7165Z" fill="#4D8AF0" />
	<path opacity="0.5" d="M220.043 86.1991C220.149 86.2192 220.249 86.2835 220.325 86.3798C220.4 86.4762 220.444 86.5978 220.45 86.7216C220.451 86.7406 220.453 86.7597 220.458 86.7784C220.468 86.8349 220.494 86.8878 220.532 86.928C220.569 86.9683 220.617 86.9935 220.666 86.9995C220.714 87.0055 220.762 86.9919 220.8 86.961C220.838 86.9301 220.865 86.8837 220.875 86.8296C220.88 86.8119 220.882 86.7935 220.883 86.7746C220.89 86.6524 220.935 86.5417 221.01 86.4636C221.086 86.3854 221.186 86.3452 221.292 86.3507C221.309 86.3519 221.325 86.3509 221.341 86.3477C221.389 86.342 221.432 86.3169 221.463 86.2768C221.494 86.2367 221.511 86.184 221.511 86.1275C221.511 86.071 221.494 86.0141 221.464 85.9664C221.433 85.9188 221.39 85.8832 221.342 85.8656C221.327 85.8584 221.31 85.8532 221.294 85.8502C221.188 85.8302 221.087 85.7659 221.012 85.6695C220.937 85.5732 220.892 85.4515 220.886 85.3277C220.886 85.3087 220.883 85.2897 220.879 85.2709C220.869 85.2144 220.843 85.1616 220.805 85.1213C220.767 85.0811 220.72 85.0558 220.671 85.0498C220.622 85.0438 220.575 85.0574 220.536 85.0883C220.498 85.1193 220.472 85.1656 220.462 85.2197C220.457 85.2374 220.454 85.2559 220.453 85.2747C220.447 85.3971 220.401 85.5077 220.326 85.5857C220.25 85.6637 220.149 85.7036 220.043 85.6978C220.026 85.6965 220.01 85.6975 219.994 85.7007C219.947 85.7065 219.904 85.7315 219.873 85.7716C219.842 85.8117 219.825 85.8645 219.824 85.921C219.824 85.9775 219.841 86.0343 219.871 86.082C219.902 86.1297 219.945 86.1653 219.993 86.1828C220.009 86.1904 220.026 86.1959 220.043 86.1991Z" fill="#4D8AF0" />
	<path opacity="0.5" d="M256.954 79.6922C257.017 79.9046 257.004 80.1306 256.92 80.3272C256.835 80.5239 256.685 80.6774 256.496 80.7587C256.467 80.7707 256.44 80.7862 256.414 80.8051C256.335 80.8558 256.275 80.935 256.245 81.0293C256.216 81.1236 256.218 81.2274 256.251 81.3231C256.285 81.4188 256.348 81.5007 256.43 81.5551C256.511 81.6095 256.607 81.633 256.701 81.6218C256.732 81.6205 256.764 81.6153 256.794 81.6063C256.991 81.5491 257.203 81.572 257.391 81.6706C257.58 81.7691 257.73 81.9365 257.815 82.1409C257.827 82.1725 257.843 82.2025 257.862 82.2305C257.913 82.3176 257.99 82.3847 258.08 82.4203C258.169 82.456 258.267 82.4582 258.355 82.4265C258.443 82.3948 258.518 82.3311 258.565 82.2462C258.613 82.1613 258.631 82.0603 258.616 81.9601C258.614 81.9262 258.607 81.8925 258.598 81.8598C258.536 81.6474 258.548 81.4214 258.632 81.2248C258.717 81.0281 258.867 80.8745 259.056 80.7933C259.085 80.7813 259.112 80.7658 259.138 80.7469C259.217 80.6962 259.277 80.617 259.307 80.5226C259.336 80.4283 259.334 80.3246 259.301 80.2289C259.267 80.1332 259.204 80.0512 259.122 79.9969C259.041 79.9425 258.945 79.919 258.851 79.9302C258.82 79.9315 258.788 79.9367 258.758 79.9457C258.561 80.0028 258.349 79.98 258.161 79.8814C257.972 79.7829 257.822 79.6155 257.737 79.4111C257.725 79.3795 257.709 79.3495 257.69 79.3215C257.639 79.2343 257.562 79.1673 257.472 79.1316C257.383 79.096 257.285 79.0938 257.197 79.1255C257.109 79.1572 257.034 79.2208 256.987 79.3058C256.939 79.3907 256.921 79.4917 256.936 79.5919C256.938 79.6258 256.945 79.6594 256.954 79.6922Z" fill="#4D8AF0" />
	<path opacity="0.5" d="M249.665 52.7122C249.727 52.9246 249.715 53.1506 249.631 53.3472C249.546 53.5439 249.396 53.6975 249.207 53.7787C249.178 53.7907 249.151 53.8062 249.125 53.8251C249.046 53.8759 248.986 53.955 248.956 54.0494C248.927 54.1437 248.929 54.2474 248.962 54.3431C248.996 54.4388 249.059 54.5208 249.141 54.5751C249.222 54.6295 249.318 54.653 249.411 54.6418C249.443 54.6405 249.474 54.6353 249.505 54.6263C249.701 54.5691 249.914 54.592 250.102 54.6906C250.291 54.7891 250.441 54.9565 250.526 55.1609C250.538 55.1925 250.554 55.2225 250.573 55.2505C250.624 55.3377 250.701 55.4047 250.79 55.4404C250.88 55.476 250.978 55.4782 251.066 55.4465C251.154 55.4148 251.229 55.3512 251.276 55.2662C251.324 55.1813 251.342 55.0803 251.327 54.9801C251.325 54.9462 251.318 54.9125 251.309 54.8798C251.246 54.6674 251.259 54.4414 251.343 54.2448C251.428 54.0481 251.578 53.8946 251.767 53.8133C251.796 53.8013 251.823 53.7858 251.849 53.7669C251.928 53.7162 251.988 53.637 252.018 53.5427C252.047 53.4484 252.045 53.3446 252.011 53.2489C251.978 53.1532 251.915 53.0713 251.833 53.0169C251.751 52.9625 251.656 52.939 251.562 52.9502C251.531 52.9515 251.499 52.9567 251.469 52.9657C251.272 53.0229 251.06 53 250.871 52.9014C250.683 52.8029 250.533 52.6355 250.448 52.4311C250.436 52.3995 250.42 52.3695 250.401 52.3415C250.35 52.2544 250.273 52.1873 250.183 52.1517C250.094 52.116 249.996 52.1138 249.908 52.1455C249.819 52.1772 249.745 52.2409 249.698 52.3258C249.65 52.4107 249.632 52.5117 249.647 52.6119C249.649 52.6458 249.656 52.6795 249.665 52.7122Z" fill="#F04DCC" />
	<path opacity="0.5" d="M259.72 66.853C258.969 67.0819 258.567 67.9437 258.821 68.7777C259.075 69.6118 259.89 70.1024 260.641 69.8735C261.391 69.6446 261.794 68.7828 261.539 67.9488C261.285 67.1147 260.47 66.6241 259.72 66.853Z" fill="#F55F44" />
	<path opacity="0.5" d="M205.75 91.234C204.999 91.4629 204.555 92.1894 204.759 92.8566C204.962 93.5239 205.736 93.8792 206.487 93.6503C207.237 93.4214 207.681 92.6949 207.477 92.0277C207.274 91.3604 206.5 91.005 205.75 91.234Z" fill="#F55F44" />
	<path opacity="0.5" d="M241.065 81.456C240.314 81.6849 239.953 82.6818 240.258 83.6827C240.563 84.6836 241.419 85.3094 242.17 85.0805C242.921 84.8516 243.282 83.8546 242.977 82.8537C242.671 81.8529 241.815 81.227 241.065 81.456Z" fill="#5DF544" />
	<path opacity="0.5" d="M197.97 69.5071C197.47 69.6597 197.249 70.392 197.478 71.1427C197.707 71.8933 198.299 72.3782 198.799 72.2255C199.299 72.0729 199.52 71.3407 199.291 70.59C199.062 69.8393 198.47 69.3545 197.97 69.5071Z" fill="#F55F44" />
	<path opacity="0.5" d="M146.899 117.529C147.079 117.65 147.214 117.847 147.277 118.083C147.339 118.319 147.326 118.578 147.24 118.81C147.226 118.846 147.216 118.883 147.209 118.921C147.183 119.032 147.19 119.15 147.228 119.254C147.266 119.358 147.333 119.441 147.419 119.49C147.504 119.54 147.602 119.552 147.696 119.525C147.791 119.498 147.876 119.433 147.937 119.342C147.959 119.313 147.979 119.281 147.995 119.247C148.103 119.027 148.273 118.859 148.473 118.774C148.673 118.69 148.889 118.694 149.08 118.788C149.109 118.803 149.14 118.814 149.172 118.82C149.264 118.847 149.363 118.835 149.451 118.785C149.54 118.736 149.612 118.652 149.657 118.548C149.702 118.444 149.716 118.327 149.697 118.215C149.678 118.103 149.627 118.004 149.553 117.934C149.529 117.909 149.503 117.886 149.475 117.868C149.295 117.748 149.161 117.551 149.098 117.315C149.035 117.078 149.048 116.819 149.135 116.587C149.148 116.552 149.159 116.515 149.165 116.477C149.192 116.365 149.185 116.247 149.147 116.144C149.109 116.04 149.041 115.956 148.956 115.907C148.871 115.858 148.773 115.845 148.679 115.872C148.584 115.9 148.499 115.964 148.438 116.056C148.415 116.084 148.396 116.116 148.379 116.15C148.272 116.37 148.101 116.538 147.901 116.623C147.701 116.707 147.484 116.701 147.293 116.607C147.264 116.592 147.233 116.581 147.201 116.575C147.109 116.548 147.01 116.56 146.922 116.61C146.833 116.659 146.76 116.743 146.716 116.847C146.671 116.95 146.657 117.068 146.676 117.18C146.695 117.292 146.746 117.391 146.82 117.46C146.844 117.487 146.871 117.51 146.899 117.529Z" fill="#4D8AF0" />
	<path opacity="0.5" d="M147.518 107.449C147.608 107.509 147.675 107.608 147.707 107.726C147.738 107.844 147.732 107.973 147.688 108.09C147.682 108.107 147.676 108.126 147.673 108.145C147.66 108.201 147.663 108.259 147.682 108.311C147.701 108.363 147.735 108.405 147.778 108.43C147.82 108.454 147.869 108.46 147.916 108.447C147.964 108.433 148.006 108.401 148.037 108.355C148.048 108.341 148.058 108.325 148.066 108.308C148.12 108.198 148.205 108.114 148.305 108.071C148.405 108.029 148.513 108.031 148.608 108.078C148.623 108.086 148.638 108.091 148.654 108.094C148.7 108.108 148.75 108.102 148.794 108.077C148.838 108.052 148.875 108.01 148.897 107.958C148.919 107.906 148.926 107.848 148.917 107.792C148.907 107.736 148.882 107.686 148.845 107.652C148.833 107.639 148.82 107.628 148.806 107.618C148.716 107.558 148.649 107.46 148.617 107.342C148.586 107.223 148.593 107.094 148.636 106.978C148.643 106.96 148.648 106.942 148.651 106.923C148.664 106.867 148.661 106.808 148.642 106.756C148.623 106.704 148.589 106.662 148.546 106.638C148.504 106.613 148.455 106.607 148.408 106.621C148.36 106.634 148.318 106.666 148.287 106.712C148.276 106.727 148.266 106.742 148.258 106.759C148.204 106.869 148.119 106.954 148.019 106.996C147.919 107.038 147.81 107.035 147.715 106.988C147.7 106.98 147.685 106.975 147.669 106.972C147.623 106.958 147.573 106.964 147.529 106.989C147.485 107.014 147.449 107.056 147.426 107.108C147.404 107.16 147.397 107.218 147.406 107.274C147.416 107.33 147.441 107.38 147.479 107.414C147.49 107.428 147.504 107.439 147.518 107.449Z" fill="#4D8AF0" />
	<path opacity="0.5" d="M184.027 115.924C184.001 116.144 183.902 116.347 183.747 116.495C183.592 116.643 183.393 116.725 183.188 116.726C183.157 116.726 183.125 116.729 183.095 116.737C183.001 116.752 182.916 116.802 182.851 116.877C182.787 116.952 182.748 117.048 182.742 117.149C182.735 117.251 182.761 117.351 182.815 117.433C182.869 117.515 182.948 117.574 183.038 117.6C183.068 117.611 183.098 117.619 183.13 117.622C183.333 117.647 183.52 117.751 183.655 117.916C183.789 118.08 183.862 118.293 183.86 118.514C183.859 118.548 183.862 118.582 183.868 118.615C183.881 118.715 183.925 118.807 183.994 118.875C184.062 118.943 184.151 118.983 184.245 118.989C184.339 118.994 184.432 118.965 184.509 118.905C184.586 118.846 184.642 118.76 184.668 118.662C184.679 118.63 184.686 118.596 184.69 118.562C184.716 118.343 184.816 118.14 184.971 117.992C185.126 117.844 185.324 117.762 185.529 117.761C185.561 117.761 185.592 117.757 185.623 117.75C185.716 117.735 185.802 117.685 185.866 117.61C185.931 117.535 185.969 117.439 185.976 117.337C185.982 117.236 185.957 117.136 185.903 117.054C185.849 116.972 185.77 116.913 185.68 116.887C185.65 116.875 185.619 116.868 185.588 116.864C185.384 116.84 185.198 116.735 185.063 116.571C184.928 116.407 184.855 116.194 184.858 115.972C184.859 115.938 184.856 115.905 184.85 115.872C184.837 115.771 184.792 115.68 184.724 115.612C184.655 115.544 184.566 115.503 184.473 115.498C184.379 115.492 184.286 115.522 184.209 115.581C184.132 115.641 184.076 115.727 184.05 115.825C184.039 115.857 184.031 115.89 184.027 115.924Z" fill="#4D8AF0" />
	<path opacity="0.5" d="M187.893 88.2456C187.867 88.4653 187.767 88.6684 187.612 88.8163C187.457 88.9641 187.258 89.0464 187.053 89.0474C187.022 89.047 186.991 89.0505 186.96 89.0579C186.867 89.0734 186.781 89.1229 186.717 89.1981C186.652 89.2732 186.614 89.3695 186.607 89.4707C186.6 89.5719 186.626 89.6719 186.68 89.754C186.734 89.8361 186.813 89.8952 186.903 89.9214C186.933 89.9327 186.964 89.9402 186.995 89.9438C187.198 89.9682 187.385 90.0726 187.52 90.237C187.654 90.4015 187.727 90.6145 187.725 90.8356C187.724 90.8695 187.727 90.9034 187.733 90.9365C187.746 91.0367 187.79 91.1284 187.859 91.1965C187.928 91.2645 188.016 91.3046 188.11 91.3101C188.204 91.3155 188.297 91.2861 188.374 91.2265C188.451 91.167 188.507 91.0811 188.533 90.9832C188.544 90.951 188.552 90.9177 188.555 90.8837C188.581 90.664 188.681 90.4609 188.836 90.313C188.991 90.1652 189.19 90.0829 189.395 90.0819C189.426 90.0823 189.457 90.0788 189.488 90.0714C189.581 90.0559 189.667 90.0064 189.732 89.9312C189.796 89.8561 189.834 89.7598 189.841 89.6586C189.848 89.5574 189.822 89.4574 189.768 89.3753C189.714 89.2932 189.635 89.2341 189.545 89.2079C189.515 89.1966 189.484 89.1891 189.453 89.1855C189.25 89.1611 189.063 89.0567 188.928 88.8923C188.794 88.7278 188.721 88.5148 188.723 88.2937C188.724 88.2598 188.721 88.2259 188.715 88.1928C188.702 88.0926 188.658 88.0009 188.589 87.9328C188.52 87.8648 188.432 87.8247 188.338 87.8192C188.244 87.8138 188.151 87.8432 188.074 87.9027C187.997 87.9623 187.941 88.0482 187.915 88.1461C187.904 88.1783 187.897 88.2117 187.893 88.2456Z" fill="#F04DCC" />
	<path opacity="0.5" d="M191.603 105.195C190.822 105.111 190.115 105.747 190.022 106.614C189.929 107.481 190.486 108.251 191.267 108.335C192.047 108.418 192.755 107.783 192.848 106.916C192.94 106.049 192.383 105.278 191.603 105.195Z" fill="#F55F44" />
	<path opacity="0.5" d="M132.395 106.482C131.615 106.398 130.922 106.893 130.848 107.587C130.773 108.28 131.346 108.91 132.126 108.994C132.906 109.077 133.599 108.583 133.673 107.889C133.748 107.195 133.175 106.565 132.395 106.482Z" fill="#F55F44" />
	<path opacity="0.5" d="M168.717 111.321C167.936 111.237 167.214 112.013 167.102 113.053C166.991 114.094 167.533 115.005 168.314 115.089C169.094 115.172 169.817 114.396 169.928 113.356C170.039 112.315 169.497 111.404 168.717 111.321Z" fill="#5DF544" />
	<path opacity="0.5" d="M133.749 83.4435C133.229 83.3878 132.739 83.9753 132.656 84.7556C132.572 85.536 132.926 86.2137 133.447 86.2693C133.967 86.325 134.456 85.7375 134.54 84.9572C134.623 84.1768 134.269 83.4991 133.749 83.4435Z" fill="#F55F44" />
	<path d="M126.934 33.9055C126.343 33.1565 112.321 15.5803 101.251 17.1077C97.3265 17.6496 94.3037 20.4082 92.2675 25.3066C89.4583 32.0645 89.2248 37.5577 91.5737 41.6334C94.4979 46.7075 100.294 47.5261 100.539 47.5586C100.604 47.5672 100.67 47.5714 100.735 47.5714H125.761C126.586 47.5714 127.256 46.9019 127.256 46.0761V34.8322C127.256 34.4961 127.143 34.1695 126.934 33.9055Z" fill="#CA1717" />
	<path d="M170.498 25.3067C168.462 20.4082 165.439 17.6496 161.514 17.1077C150.447 15.5799 136.423 33.1567 135.832 33.9056C135.623 34.1696 135.51 34.4961 135.51 34.8323V46.0761C135.51 46.9019 136.179 47.5714 137.005 47.5714H162.031C162.096 47.5714 162.161 47.5672 162.226 47.5587C162.471 47.5262 168.268 46.7075 171.192 41.6334C173.541 37.5576 173.307 32.0645 170.498 25.3067Z" fill="#CA1717" />
	<path d="M125.761 40.6928H100.736C100.67 40.6928 100.605 40.6887 100.54 40.6801C100.295 40.6476 94.4985 39.8291 91.5743 34.7548C91.0105 33.7765 90.5971 32.7156 90.3308 31.5762C89.5877 35.534 90.0004 38.9024 91.5743 41.6333C94.4985 46.7074 100.295 47.5261 100.54 47.5586C100.605 47.5671 100.67 47.5713 100.736 47.5713H125.761C126.587 47.5713 127.256 46.9018 127.256 46.076V39.1975C127.256 40.0233 126.587 40.6928 125.761 40.6928Z" fill="#B31010" />
	<path d="M171.192 34.7548C168.268 39.8289 162.471 40.6476 162.226 40.6801C162.161 40.6887 162.096 40.6928 162.031 40.6928H137.005C136.179 40.6928 135.51 40.0233 135.51 39.1975V46.076C135.51 46.9018 136.179 47.5713 137.005 47.5713H162.031C162.096 47.5713 162.161 47.5671 162.226 47.5586C162.471 47.5261 168.268 46.7074 171.192 41.6333C172.766 38.9022 173.178 35.534 172.435 31.5762C172.169 32.7156 171.756 33.7765 171.192 34.7548Z" fill="#B31010" />
	<path d="M137.003 33.3369H125.759C124.933 33.3369 124.264 34.0064 124.264 34.8322V46.0761C124.264 46.9019 124.933 47.5714 125.759 47.5714H137.003C137.829 47.5714 138.498 46.9019 138.498 46.0761V34.8322C138.498 34.0064 137.829 33.3369 137.003 33.3369Z" fill="#E4C10A" />
	<path d="M124.264 40.6929V46.076C124.264 46.9018 124.933 47.5713 125.759 47.5713H137.003C137.829 47.5713 138.498 46.9018 138.498 46.076V40.6929H124.264Z" fill="#D0B009" />
	<g filter="url(#filter0_d)">
		<path d="M173.277 59.3516H89.4875C88.6617 59.3516 87.9922 60.0211 87.9922 60.8469V104.424C87.9922 108.007 90.9073 110.922 94.4905 110.922H168.274C171.858 110.922 174.773 108.007 174.773 104.424V60.8469C174.773 60.0209 174.103 59.3516 173.277 59.3516Z" fill="white" />
		<path d="M173.277 59.3516H89.4875C88.6617 59.3516 87.9922 60.0211 87.9922 60.8469V104.424C87.9922 108.007 90.9073 110.922 94.4905 110.922H168.274C171.858 110.922 174.773 108.007 174.773 104.424V60.8469C174.773 60.0209 174.103 59.3516 173.277 59.3516Z" fill="url(#paint0_linear)" fill-opacity="0.7" />
	</g>
	<path d="M173.277 59.3516H89.4875C88.6617 59.3516 87.9922 60.0211 87.9922 60.8469V67.2716H174.773V60.8469C174.773 60.0209 174.103 59.3516 173.277 59.3516Z" fill="#CA1717" />
	<path d="M180.831 44.5806H81.9328C81.107 44.5806 80.4375 45.2501 80.4375 46.0759V60.8465C80.4375 61.6723 81.107 62.3418 81.9328 62.3418H180.831C181.657 62.3418 182.327 61.6723 182.327 60.8465V46.0759C182.327 45.2501 181.657 44.5806 180.831 44.5806Z" fill="#F20049" />
	<path d="M80.4375 55.4634V60.8465C80.4375 61.6724 81.107 62.3419 81.9328 62.3419H180.831C181.657 62.3419 182.327 61.6724 182.327 60.8465V55.4634H80.4375Z" fill="#F8457B" />
	<path d="M138.777 44.5806H123.989C123.164 44.5806 122.494 45.2501 122.494 46.0759V109.427C122.494 110.252 123.164 110.922 123.989 110.922H138.777C139.602 110.922 140.272 110.252 140.272 109.427V46.0759C140.272 45.2501 139.603 44.5806 138.777 44.5806Z" fill="#E4C20A" />
	<path d="M138.776 44.5806H133.393V110.922H138.776C139.602 110.922 140.271 110.252 140.271 109.427V46.0759C140.271 45.2501 139.602 44.5806 138.776 44.5806Z" fill="#CDAD07" />
	<path d="M173 128.5C185.426 128.5 195.5 118.426 195.5 106C195.5 93.5736 185.426 83.5 173 83.5C160.574 83.5 150.5 93.5736 150.5 106C150.5 118.426 160.574 128.5 173 128.5Z" fill="#4BD37B" />
	<path d="M183.5 92.5L167.75 108.7L162.5 103.3L157.25 108.7L167.75 119.5L188.75 97.9L183.5 92.5Z" fill="white" />
	<defs>
		<filter id="filter0_d" x="71.9922" y="45.3516" width="118.78" height="83.5708" filterUnits="userSpaceOnUse" color-interpolation-filters="sRGB">
			<feFlood flood-opacity="0" result="BackgroundImageFix" />
			<feColorMatrix in="SourceAlpha" type="matrix" values="0 0 0 0 0 0 0 0 0 0 0 0 0 0 0 0 0 0 127 0" />
			<feOffset dy="2" />
			<feGaussianBlur stdDeviation="8" />
			<feColorMatrix type="matrix" values="0 0 0 0 0 0 0 0 0 0 0 0 0 0 0 0 0 0 0.2 0" />
			<feBlend mode="normal" in2="BackgroundImageFix" result="effect1_dropShadow" />
			<feBlend mode="normal" in="SourceGraphic" in2="effect1_dropShadow" result="shape" />
		</filter>
		<linearGradient id="paint0_linear" x1="131.382" y1="59.3516" x2="131.382" y2="110.922" gradientUnits="userSpaceOnUse">
			<stop stop-color="#E3E3E3" />
			<stop offset="1" stop-color="white" />
		</linearGradient>
	</defs>
</svg>