<svg width="154" height="166" viewBox="0 0 154 166" fill="none" xmlns="http://www.w3.org/2000/svg">
<path fill-rule="evenodd" clip-rule="evenodd" d="M15.8507 132.897L77.3148 164.822C79.4387 165.933 82.0855 165.933 84.2421 164.789L145.706 132.864C147.607 131.881 148.723 130.285 149.056 128.583H149.071V128.503C149.192 127.832 149.192 127.146 149.071 126.475V111.526H125.3L84.2421 90.2219C82.1182 89.1109 79.4714 89.1109 77.3148 90.2219L36.2991 111.526H12.386V128.583H12.4948C12.8195 130.297 13.9382 131.907 15.8507 132.897Z" fill="url(#paint0_linear_1043_875)"/>
<path d="M77.3138 148.843L15.8498 116.919C11.2424 114.533 11.2424 108.553 15.8498 106.168L77.3138 74.2434C79.4705 73.1324 82.1173 73.1324 84.2412 74.2434L145.705 106.168C150.313 108.553 150.313 114.533 145.705 116.919L84.2412 148.843C82.0846 149.954 79.4378 149.954 77.3138 148.843Z" fill="url(#paint1_linear_1043_875)"/>
<path fill-rule="evenodd" clip-rule="evenodd" d="M37.975 115.306L78.4948 136.352C79.895 137.084 81.6399 137.084 83.0616 136.33L123.581 115.284C124.835 114.635 125.571 113.583 125.79 112.46H125.799V112.414C125.88 111.969 125.88 111.513 125.799 111.067V101.216H110.127L83.0616 87.1724C81.6614 86.4399 79.9165 86.4399 78.4948 87.1724L51.4574 101.216H35.6899V112.46H35.7624C35.9762 113.591 36.7137 114.653 37.975 115.306Z" fill="url(#paint2_linear_1043_875)"/>
<path d="M78.4936 125.817L37.9738 104.771C34.9365 103.198 34.9365 99.2559 37.9738 97.6834L78.4936 76.6372C79.9154 75.9048 81.6603 75.9048 83.0605 76.6372L123.58 97.6834C126.618 99.2559 126.618 103.198 123.58 104.771L83.0605 125.817C81.6387 126.549 79.8939 126.549 78.4936 125.817Z" fill="url(#paint3_linear_1043_875)"/>
<path d="M77.6818 30.3099C78.5869 30.6302 79.2934 31.2378 79.9557 31.9006C80.1875 32.1326 80.3862 32.3867 80.607 32.6297C81.479 34.132 81.468 35.789 81.4348 37.446C81.4128 39.0257 81.4348 40.6054 81.4348 42.1851C81.4348 49.1887 81.4459 56.1923 81.4459 63.2069C81.4128 63.2621 81.3686 63.3063 81.3355 63.3616C80.5076 63.9581 79.8895 64.7645 79.1388 65.4383C79.1168 65.3721 79.0947 65.3058 79.0616 65.2395C78.6863 64.5767 79.0064 64.0023 79.746 63.9802C79.9226 63.9802 80.1323 64.0575 80.2979 63.8697C79.4038 63.4057 78.5207 63.5825 78.0239 64.2895C77.6045 65.0627 77.7259 65.7697 78.2778 66.4215C78.2337 66.5209 78.2116 66.6314 78.1454 66.7087C77.2954 67.8355 76.5558 69.0396 75.8825 70.2768C75.6396 70.7187 75.5182 71.2268 75.1429 71.5913C74.7786 71.6355 74.5579 71.4367 74.3812 71.1495C74.4695 70.9838 74.326 71.0611 74.2709 71.039C74.039 70.5971 73.5644 70.5419 73.167 70.3762C73.1229 70.2878 73.0345 70.2657 72.9462 70.2657C72.9352 70.2326 72.9462 70.1774 72.9131 70.1663C71.8645 69.382 70.6502 68.9733 69.4139 68.6198C70.0321 67.6919 70.7606 66.8302 71.2463 65.8139C72.03 64.179 72.7807 62.5441 73.2553 60.7766C73.5975 59.5063 73.8624 58.2249 74.017 56.9434C74.2488 55.0324 73.8514 53.1544 73.1118 51.3759C72.9131 50.9009 72.7365 50.2823 72.1294 50.0724C72.0632 50.0061 71.9859 49.9509 71.9307 49.8846C71.0918 48.7578 69.9879 48.073 68.6191 47.8078C68.4205 47.7636 68.1776 47.62 68.0893 47.9625C66.9192 47.841 66.0251 47.9956 65.4511 48.1503C64.5901 48.3712 63.8836 48.7689 62.4817 49.5643C61.2013 50.2823 60.5279 50.7904 60.3623 50.9119C59.8987 51.2654 59.3578 51.6631 58.7728 52.3149C58.4968 52.6131 58.2098 52.9335 57.9008 53.4195C57.9008 53.4195 57.2164 54.48 56.7196 55.1318C56.6644 55.1981 56.543 55.3638 56.3223 55.4411C56.256 55.4632 56.2008 55.4742 56.1677 55.4742C55.7924 55.1207 55.4502 54.7451 55.0418 54.4358C54.1808 53.7841 53.4522 52.9887 52.7016 52.2265C52.0614 51.5858 51.4212 50.9119 50.7699 50.3044C49.2797 48.9235 47.8888 47.4322 46.3545 46.0845C46.785 45.963 47.072 45.6095 47.4473 45.3886C49.7764 44.052 50.516 43.6653 52.9997 42.2513C54.6334 41.3234 54.6113 41.2682 57.2826 39.7327C58.4196 39.0699 59.4793 38.4734 59.4793 38.4734C60.2961 38.0094 61.1019 37.5234 61.9298 37.0815C62.7467 36.6507 63.5194 36.1425 64.3252 35.7007C65.2966 35.1594 66.2569 34.5739 67.1952 33.9442C67.6698 33.6349 68.2328 33.5355 68.6964 33.182C69.3035 32.7291 69.9879 32.3756 70.6392 31.989C71.3788 31.5692 72.1184 31.1494 72.869 30.7518C73.465 30.4314 74.1053 30.1663 74.7786 30.0779C75.739 29.9674 76.7104 30.1773 77.6818 30.3099Z" fill="#E8E9E9"/>
<path d="M75.132 71.6152C75.5073 71.2507 75.6287 70.7425 75.8716 70.3006C76.5449 69.0634 77.2845 67.8593 78.1345 66.7326C78.2007 66.6442 78.2228 66.5337 78.2669 66.4453C78.3111 66.4343 78.3663 66.4232 78.4104 66.4122C79.1169 66.7657 79.7571 67.2738 80.6071 67.2628C80.7616 67.2628 80.9162 67.3954 80.8499 67.6052C80.7506 67.8925 80.9272 67.9477 81.148 67.9919C81.2915 68.025 81.435 68.0803 81.5454 68.1686C82.0863 68.6215 82.4505 68.5884 82.8589 68.014C83.3005 67.3843 83.8745 66.8762 84.4264 66.3459C84.6472 66.125 84.9783 65.9814 85.0887 65.661C85.9387 64.9982 86.8218 64.3575 87.7269 63.7831C88.0912 63.7279 88.312 63.4186 88.6321 63.286C88.8197 63.2087 89.1288 63.2308 89.1399 62.9546C89.1509 62.7005 88.897 62.5569 88.7094 62.4243C88.5217 62.2807 88.2899 62.2034 88.0802 62.0929C87.6828 61.872 87.3185 61.6179 87.0425 61.2203C86.8438 60.933 86.8549 60.7342 87.0757 60.5022C87.1529 60.4912 87.2302 60.4912 87.2964 60.4801C87.8152 60.6237 88.323 60.4139 88.8418 60.4801C88.9522 60.4912 89.0736 60.5022 89.184 60.5133C89.2723 60.6127 89.3827 60.6016 89.4931 60.5906C90.4203 60.7011 91.1047 61.3418 91.9326 61.6953C92.8046 62.0709 93.6546 62.5127 94.5156 62.9104C95.487 63.3633 96.2486 64.0482 96.8116 64.9651C98.1362 67.1192 99.4719 69.2622 100.808 71.4163C101.371 72.3222 101.945 73.217 102.463 74.1338C103.181 75.3932 104.285 76.2658 105.289 77.249C105.322 77.3042 105.366 77.3595 105.4 77.4037C105.411 77.4368 105.433 77.4589 105.455 77.4699L105.488 77.481L105.499 77.5141C105.51 77.5473 105.543 77.5694 105.565 77.5804H105.598V77.6135C105.587 77.8234 105.698 77.9228 105.896 77.9118H105.929L105.94 77.9449C105.974 77.967 105.996 78.0002 106.029 78.0223L106.051 78.0554C106.084 78.0775 106.106 78.1106 106.139 78.1327L106.161 78.1548C106.194 78.188 106.216 78.2101 106.25 78.2432L106.272 78.2653C106.305 78.2984 106.327 78.3205 106.36 78.3537L106.382 78.3758C106.316 78.7403 106.57 78.8729 106.835 79.0165C106.824 79.0275 106.824 79.0496 106.812 79.0607C106.824 79.0496 106.824 79.0386 106.835 79.0165C106.901 79.0165 106.978 79.0165 107.044 79.0165C107.088 79.0496 107.122 79.0938 107.166 79.1269C107.155 79.6572 107.409 79.9113 107.938 79.8892L107.949 79.9002C107.983 79.9333 108.016 79.9665 108.049 80.0107C108.082 80.0438 108.126 80.077 108.159 80.1101C108.192 80.1432 108.236 80.1764 108.27 80.2206C108.303 80.2537 108.347 80.2979 108.38 80.331C108.413 80.3642 108.457 80.4084 108.49 80.4415C108.535 80.4857 108.579 80.5188 108.623 80.563C108.689 80.6293 108.755 80.6956 108.81 80.7508C108.855 80.795 108.899 80.8392 108.932 80.8834C108.899 81.1374 109.009 81.2479 109.263 81.2148C109.307 81.2479 109.34 81.2921 109.384 81.3252C109.34 81.5903 109.462 81.6898 109.727 81.6677C109.76 81.7008 109.793 81.734 109.826 81.756C109.782 82.0433 110.003 82.3084 109.837 82.5956C110.102 82.6398 110.367 82.4299 110.51 82.7282C110.731 83.1921 111.151 83.3689 111.592 83.5346C111.692 83.5788 111.692 83.6671 111.692 83.7555C111.725 83.8991 111.438 84.1311 111.802 84.1974C111.791 84.4514 111.78 84.7055 111.78 84.9706C111.515 85.0811 111.515 85.2026 111.78 85.3131C111.813 85.6445 111.614 85.6887 111.382 85.6113C111.084 85.5119 110.786 85.523 110.477 85.534C110.29 85.048 110.334 84.5619 110.433 84.0759C110.588 83.3026 110.334 83.0485 109.561 83.17C109.241 83.2253 108.866 83.3247 108.59 83.2253C107.839 82.9601 107.398 83.0485 106.846 83.6119C106.459 84.0096 106.106 84.4073 105.786 84.8602C105.124 85.7549 104.605 86.716 104.307 87.7765C103.942 89.0579 103.931 90.3614 104.351 91.6649C103.733 91.6428 103.424 91.3446 103.291 90.7591C102.927 89.1794 103.148 87.666 103.788 86.2189C104.252 85.1695 104.826 84.1642 105.676 83.3578C105.874 83.17 106.073 82.9049 105.841 82.6398C105.631 82.3857 105.322 82.3747 105.046 82.5625C104.914 82.6508 104.781 82.7503 104.66 82.8607C104.296 83.17 104.042 83.5788 103.766 83.9654C103.048 84.9375 102.563 86.009 102.254 87.1579C101.922 88.373 101.768 89.5992 102.331 90.8033C102.552 91.2783 102.209 91.2783 101.889 91.2783C101.878 91.1126 101.911 90.9469 101.746 90.8364C101.271 90.494 101.183 89.9637 101.117 89.4445C101.017 88.5829 101.095 87.7544 101.271 86.8817C101.503 85.7108 102.011 84.7055 102.585 83.7224C102.817 83.3247 102.695 83.1479 102.43 82.9601C102.165 82.7723 101.911 82.6729 101.635 83.0375C100.653 84.3189 100.101 85.7881 99.9355 87.3567C99.8472 88.2846 99.6264 89.3009 100.223 90.1957C100.311 90.3283 100.521 90.5271 100.344 90.6707C100.167 90.8143 99.9797 90.6044 99.8251 90.4829C99.7147 90.3946 99.6044 90.2841 99.516 90.1736C99.3505 89.9858 99.1407 89.8975 98.92 89.9637C98.4784 90.0963 98.059 90.03 97.6174 89.9637C97.2863 89.9195 96.9441 89.7649 96.6019 89.9416H96.5908C96.5136 89.6544 96.348 89.6876 96.1493 89.8201C96.072 89.8201 95.9948 89.8201 95.9175 89.8091C95.4097 89.6213 94.8909 89.7428 94.3721 89.7207C92.0209 89.7097 89.6807 89.5219 87.3406 89.4335C86.1484 89.3893 84.9563 89.2788 83.7641 89.2899C82.0863 89.3009 80.5961 88.8922 79.2714 87.8317C78.3552 87.1026 77.3839 86.4398 76.4014 85.7991C74.7015 84.6834 73.9509 83.0375 73.6308 81.1264C73.5866 80.8502 73.5425 80.5851 73.4983 80.3089C73.421 78.4089 73.6639 76.531 74.1275 74.6862C74.1937 74.5094 74.3041 74.3327 74.282 74.1338C74.3483 73.9129 74.4255 73.692 74.5028 73.471C74.6905 72.8635 75.0878 72.3001 75.132 71.6152ZM83.0797 82.2311C83.1018 82.2421 83.1239 82.2531 83.1459 82.2642C83.1349 82.2421 83.1239 82.22 83.1128 82.1979C83.0797 82.1648 83.0356 82.1206 83.0024 82.0874C83.0024 81.988 83.0024 81.8776 83.0024 81.7781C83.0356 81.745 83.0797 81.7008 83.1128 81.6677C83.1459 81.6345 83.1901 81.5903 83.2232 81.5572C83.4661 81.8223 83.3778 82.2421 83.742 82.463C84.0511 82.6508 84.4595 82.7613 84.5699 83.2253C84.603 83.3578 84.8569 83.2363 84.9342 83.1258C85.2874 82.6619 85.5744 82.8828 85.8062 83.2142C85.9828 83.4572 86.1705 83.634 86.4685 83.634C87.4951 83.6229 88.1574 84.4625 89.0736 84.7387C89.3717 84.827 89.6476 85.1142 89.9677 85.2468C91.1599 85.7549 92.3631 86.23 93.5442 86.7491C93.9306 86.9148 94.0741 86.7933 94.1844 86.4398C94.2617 86.1858 94.2617 85.9317 94.2507 85.6776C94.2065 84.8049 94.5266 83.9875 94.7253 83.159C95.0234 81.9217 95.6195 80.806 96.3259 79.7566C96.5246 79.4694 96.4915 79.1932 96.2707 79.0165C95.8402 78.663 95.4318 78.188 94.8688 78.0665C94.0078 77.8676 93.1468 77.713 92.4624 77.0833C92.4073 77.0281 92.2858 77.017 92.1975 77.017C91.8112 77.006 91.5021 76.8182 91.1599 76.6967C90.3651 76.4205 89.7028 75.8019 88.8087 75.7798C88.6762 75.7798 88.621 75.6693 88.621 75.5478C88.621 75.1833 88.3561 75.117 88.0912 75.0065C87.8373 74.8961 87.5503 74.9623 87.3075 74.7745C86.6893 74.2664 85.9276 73.9902 85.1991 73.7582C83.7972 73.3053 82.594 72.4216 81.1811 72.0018C80.5298 71.814 80.3091 71.7478 79.9337 72.3111C79.5805 72.8414 79.3377 73.4379 79.1169 74.0344C78.8299 74.8298 78.6312 75.7025 78.2117 76.4095C77.704 77.2711 77.7702 78.1217 77.8364 78.9833C77.8806 79.5136 78.2559 79.9444 78.8961 80.0107C79.7571 80.099 80.5298 80.5078 81.3467 80.7839C81.5343 80.8502 81.7551 80.9386 81.8213 81.1374C81.9538 81.5462 82.296 81.6566 82.6382 81.7781C82.6603 81.7892 82.6823 81.8002 82.7044 81.8223C82.6934 81.8002 82.6823 81.7781 82.6603 81.756C82.6603 81.6014 82.583 81.4026 82.8148 81.3473C82.9804 81.3031 83.157 81.2921 83.1901 81.5351C83.157 81.5683 83.1128 81.6124 83.0797 81.6456C83.0466 81.6787 83.0024 81.7229 82.9693 81.756C82.8369 81.8776 82.8479 81.9991 82.9693 82.1206C83.0135 82.1648 83.0466 82.1979 83.0797 82.2311ZM90.4645 74.2443C90.3762 74.2774 90.2437 74.2443 90.2216 74.3769C90.2216 74.41 90.2768 74.4763 90.3099 74.4763C90.4424 74.4873 90.4866 74.3879 90.5197 74.2885C90.5307 74.2664 90.5417 74.2333 90.5528 74.2112C90.5197 74.2222 90.4976 74.2333 90.4645 74.2443ZM97.772 86.3846C97.772 86.4619 97.783 86.5282 97.772 86.6055C97.7278 86.9701 97.8713 87.2021 98.2466 87.2904C98.6771 87.3899 98.655 87.0364 98.7323 86.7933C98.7985 86.6055 98.8537 86.4067 98.8758 86.2079C98.9641 85.4346 99.229 84.7166 99.5602 84.0206C99.9024 83.3026 100.256 82.5845 100.697 81.9107C100.797 81.7671 100.885 81.6345 100.73 81.4799C100.587 81.3363 100.443 81.1816 100.211 81.2479C99.9686 81.3252 99.7368 81.3915 99.5602 81.6235C99.3284 81.9107 99.2401 82.2752 99.0304 82.5735C98.2356 83.7113 98.0148 85.048 97.772 86.3846ZM95.5643 85.523C95.6084 85.7329 95.4428 86.0643 95.8733 86.0863C96.2597 86.0974 96.5798 86.0201 96.6571 85.5782C96.6792 85.4677 96.6571 85.3573 96.6681 85.2468C96.7564 84.595 96.922 83.9543 97.1648 83.3578C97.4629 82.6398 97.8492 81.9549 98.2245 81.2589C98.4232 80.8834 98.1473 80.6845 97.9486 80.5188C97.7168 80.32 97.5291 80.5078 97.3856 80.7398C96.933 81.4357 96.5577 82.1648 96.2818 82.938C95.9948 83.7776 95.6084 84.6061 95.5643 85.523ZM89.1178 75.117C89.0847 75.1059 89.0626 75.0949 89.0295 75.0838C89.0184 75.117 88.9853 75.1501 88.9964 75.1722C89.0074 75.1943 89.0515 75.1943 89.0736 75.2164C89.0957 75.1833 89.1067 75.1501 89.1178 75.117ZM90.1223 74.7193C90.1112 74.6862 90.1002 74.642 90.0781 74.642C90.045 74.642 90.0009 74.653 89.9898 74.6751C89.9567 74.7304 89.9788 74.7745 90.045 74.7745C90.0781 74.7745 90.1002 74.7304 90.1223 74.7193Z" fill="#080A0A"/>
<path d="M77.6818 30.3104C76.7215 30.1778 75.7501 29.9679 74.7676 30.1005C74.0943 30.1889 73.4651 30.454 72.858 30.7743C72.1074 31.1831 71.3678 31.5918 70.6282 32.0116C69.9659 32.3872 69.2925 32.7517 68.6854 33.2046C68.2218 33.5581 67.6589 33.6575 67.1842 33.9668C66.2459 34.5855 65.2856 35.182 64.3142 35.7233C63.5084 36.1651 62.7357 36.6733 61.9188 37.1041C61.0909 37.546 60.2851 38.032 59.4683 38.496C59.4683 38.496 58.4086 39.1035 57.2716 39.7553C54.6003 41.3018 54.6224 41.346 52.9887 42.2739C50.505 43.6879 49.7654 44.0856 47.4363 45.4112C47.061 45.6211 46.774 45.9746 46.3435 46.1071C44.4339 47.2118 43.4845 48.913 43.4845 51.0892C43.4625 63.2516 43.4735 75.403 43.4735 87.5653C43.4735 87.6869 43.4735 88.0845 43.5728 88.6148C43.8047 89.8962 44.4007 90.8683 44.8975 91.5201C44.8202 91.509 44.7429 91.4869 44.6767 91.4759C44.6215 91.4427 44.5663 91.4096 44.5001 91.3764L44.478 91.3544C44.4559 91.3323 44.4228 91.2991 44.4007 91.277L44.3787 91.2328C44.3676 91.2218 44.1689 91.0119 44.1689 91.0009C44.1579 90.9898 43.9371 90.7357 43.9261 90.7357C43.0982 89.6642 42.6898 88.438 42.5794 87.1014C42.5904 85.4554 42.5904 83.8095 42.5904 82.1635C42.5904 77.7117 42.5904 73.2599 42.5904 68.8081C42.5904 62.7214 42.5794 56.6346 42.5794 50.5369C42.6235 49.3438 43.0209 48.2502 43.5839 47.2118C44.2131 46.6374 44.7209 45.9414 45.4825 45.5106C45.7254 45.367 45.6591 45.1792 45.3942 45.0246C43.9923 44.1519 42.6456 43.2019 41.1113 42.528C40.758 42.3734 40.3165 42.1635 40.0405 41.81C41.1223 40.9815 42.3586 40.396 43.5177 39.7001C46.2662 38.0762 49.0479 36.5076 51.8076 34.9058C56.4658 32.2104 61.1241 29.515 65.7823 26.8307C67.7361 25.7039 69.6899 25.8033 71.6438 26.908C73.5093 27.9574 75.4079 28.9737 77.2844 30.0121C77.45 30.0895 77.6266 30.1226 77.6818 30.3104Z" fill="#F0F1F2"/>
<path d="M111.802 84.209C111.968 84.5625 111.89 84.9381 111.879 85.2916C111.868 85.6561 111.979 85.8218 112.321 85.9985C117.189 88.4509 121.295 91.776 123.878 96.6807C126.241 101.166 126.461 105.872 125.004 110.677C124.187 113.383 122.929 115.88 121.339 118.222C121.273 118.321 121.218 118.443 121.163 118.564C119.816 120.442 118.425 122.276 116.869 123.977C115.82 125.126 114.76 126.275 113.601 127.313C112.663 128.153 111.581 128.462 110.356 127.965C110.886 127.976 111.416 128.208 111.979 127.976C111.615 127.722 111.294 127.479 110.952 127.269C109.385 126.264 109.506 123.712 110.588 122.662C111.924 121.359 113.204 120.022 114.407 118.586C115.456 117.338 116.438 116.057 117.366 114.72C118.745 112.743 119.816 110.633 120.456 108.291C120.843 106.877 121.041 105.452 120.931 103.994C120.865 103.099 120.754 102.215 120.467 101.353C120.081 100.182 119.529 99.122 118.823 98.1057C118.05 97.001 117.156 96.0289 116.184 95.1342C115.202 94.2394 114.131 93.4219 112.961 92.7702C112.233 92.3614 111.581 91.787 110.776 91.5329C109.296 91.08 108.413 89.3015 108.656 87.9759C108.855 86.8712 109.594 86.1532 110.466 85.5567C110.765 85.5456 111.074 85.5456 111.372 85.634C111.603 85.7113 111.813 85.6671 111.769 85.3357C111.769 85.2253 111.769 85.1038 111.769 84.9933C111.78 84.7171 111.791 84.4631 111.802 84.209ZM122.62 103.74C122.532 104.877 122.421 105.949 122.256 107.009C122.123 107.882 121.803 108.699 121.527 109.517C121.306 110.202 120.953 110.887 120.622 111.55C120.136 112.488 119.684 113.45 119.088 114.333C118.536 115.14 117.951 115.935 117.399 116.741C116.847 117.537 116.251 118.299 115.633 119.028C114.451 120.453 113.149 121.779 111.902 123.137C111.813 123.226 111.736 123.336 111.703 123.458C111.559 123.955 111.902 124.739 112.354 124.993C112.774 125.225 113.8 125.071 114.076 124.695C114.727 123.822 115.577 123.137 116.273 122.309C117.399 120.961 118.569 119.647 119.617 118.233C120.622 116.885 121.494 115.46 122.311 113.991C123.437 111.947 124.265 109.804 124.817 107.551C125.203 105.96 125.203 104.336 125.159 102.701C125.104 100.735 124.485 98.9232 123.724 97.1447C123.658 97.001 123.613 96.8132 123.415 96.7912C123.172 96.7691 122.995 96.7359 123.216 96.4487C123.293 96.3493 123.216 96.2388 123.172 96.1394C122.741 95.2336 122.2 94.383 121.538 93.6429C120.81 92.8144 120.158 91.9306 119.242 91.2568C118.635 90.8039 118.094 90.1963 117.487 89.7102C115.776 88.3625 113.911 87.2579 111.902 86.4073C111.052 86.0427 110.179 86.4404 109.959 87.3352C109.892 87.6114 109.926 87.8433 110.102 88.1085C110.411 88.5503 110.798 88.7823 111.305 88.9701C112.001 89.2242 112.608 89.7213 113.292 90.0195C114.54 90.5719 115.522 91.4888 116.56 92.3062C117.818 93.3004 118.966 94.4603 119.904 95.8411C120.81 97.1667 121.582 98.5144 122.035 100.05C122.399 101.287 122.498 102.546 122.62 103.74ZM114.838 125.711C114.805 125.7 114.772 125.667 114.749 125.678C114.727 125.689 114.727 125.733 114.705 125.756C114.738 125.767 114.772 125.8 114.794 125.789C114.816 125.778 114.827 125.733 114.838 125.711Z" fill="#313232"/>
<path d="M110.466 85.5334C109.583 86.13 108.854 86.848 108.656 87.9527C108.413 89.2893 109.296 91.0568 110.775 91.5097C111.581 91.7638 112.232 92.3382 112.961 92.7469C114.142 93.3987 115.212 94.2161 116.184 95.1109C117.155 96.0057 118.049 96.9778 118.822 98.0825C119.528 99.0988 120.08 100.17 120.467 101.33C120.754 102.192 120.864 103.076 120.93 103.97C121.041 105.429 120.842 106.854 120.456 108.268C119.827 110.609 118.745 112.708 117.365 114.697C116.438 116.033 115.455 117.315 114.407 118.563C113.203 119.999 111.923 121.336 110.587 122.639C109.506 123.689 109.384 126.24 110.952 127.246C111.283 127.456 111.603 127.699 111.978 127.953C111.415 128.174 110.885 127.953 110.355 127.942C110.322 127.931 110.278 127.92 110.245 127.92C110.19 127.654 109.991 127.732 109.826 127.721C108.998 127.29 108.567 126.561 108.247 125.721C108.048 124.484 108.324 123.413 109.252 122.518C111.239 120.607 113.104 118.574 114.76 116.365C116.559 113.957 118.071 111.394 118.899 108.466C120.091 104.235 119.264 100.446 116.427 97.0993C114.418 94.7353 111.945 93.001 109.196 91.6312C108.92 91.4986 108.689 91.4655 108.435 91.6643C108.335 91.7417 108.203 91.7859 108.104 91.8521C107.342 92.4045 106.547 92.5702 105.62 92.2719C104.384 91.8853 103.125 91.5981 101.878 91.2667C102.198 91.2667 102.54 91.2667 102.319 90.7917C101.757 89.5876 101.911 88.3614 102.242 87.1463C102.562 85.9974 103.037 84.9259 103.754 83.9538C104.041 83.5671 104.284 83.1584 104.649 82.8491C104.77 82.7386 104.902 82.6392 105.035 82.5508C105.322 82.363 105.62 82.3851 105.83 82.6282C106.062 82.8933 105.863 83.1584 105.664 83.3462C104.814 84.1526 104.24 85.1578 103.777 86.2073C103.136 87.6544 102.916 89.1678 103.28 90.7475C103.412 91.3329 103.732 91.6312 104.34 91.6533C103.92 90.3498 103.931 89.0463 104.295 87.7649C104.593 86.7044 105.112 85.7433 105.775 84.8485C106.106 84.4067 106.459 83.9979 106.834 83.6003C107.386 83.0258 107.828 82.9485 108.578 83.2136C108.865 83.313 109.23 83.2136 109.55 83.1584C110.322 83.0369 110.576 83.291 110.422 84.0642C110.322 84.5613 110.278 85.0584 110.466 85.5334Z" fill="#1D1F20"/>
<path d="M43.5839 47.2011C43.0209 48.2395 42.6346 49.3332 42.5794 50.5262C42.3365 50.5041 42.0937 50.4599 41.906 50.3053C41.2658 49.7529 40.46 49.4878 39.7535 49.0459C38.9919 48.5599 38.2192 48.0738 37.3802 47.6982C37.0491 47.5546 36.8283 47.3779 36.5303 47.6541C36.5082 47.2232 36.5303 46.6819 36.6517 46.0744C36.8614 45.036 37.2919 44.2517 37.612 43.7656C38.1971 44.2738 38.9146 44.561 39.5769 44.9255C40.9236 45.6877 42.2482 46.45 43.5839 47.2011Z" fill="#DBDBDA"/>
<path d="M43.5841 47.2013C42.2485 46.4391 40.9239 45.6769 39.5772 44.9368C38.9148 44.5612 38.1973 44.274 37.6123 43.7769C38.1863 42.8268 39.0142 42.1972 40.0518 41.8105C40.3388 42.164 40.7693 42.3739 41.1225 42.5286C42.6459 43.2024 44.0036 44.1524 45.4055 45.0251C45.6594 45.1908 45.7366 45.3786 45.4938 45.5112C44.7321 45.931 44.2133 46.6269 43.5841 47.2013Z" fill="#E8E9E9"/>
<path d="M87.727 63.7703C86.8108 64.3558 85.9388 64.9855 85.0888 65.6483C84.9122 65.6483 84.7135 65.6704 84.57 65.5157C84.3051 65.2395 83.974 65.1953 83.6097 65.2064C82.5941 65.2174 81.5676 64.3779 81.3247 63.3726C81.3578 63.3174 81.402 63.2732 81.4351 63.218C81.5676 63.1407 81.7111 63.0523 81.8435 62.975C82.1636 62.9197 82.561 62.9639 82.5169 62.4447C82.5941 62.4005 82.6714 62.3563 82.7487 62.3122C82.7818 62.2901 82.8149 62.2569 82.8591 62.2348L82.8922 62.2238C83.3889 62.3011 83.7973 62.0802 84.1726 61.793C84.5148 61.804 84.8129 61.9476 85.1109 62.0802C86.0713 62.5 86.7777 63.3285 87.727 63.7703Z" fill="#313232"/>
<path d="M87.7268 63.7704C86.7774 63.3286 86.071 62.5001 85.1106 62.0803C84.8126 61.9477 84.5146 61.7931 84.1724 61.7931C84.1834 61.6826 84.1834 61.5832 84.1834 61.4727C84.3711 61.3733 84.5697 61.2739 84.7574 61.1745C84.8016 61.2186 84.8347 61.1965 84.8567 61.1413C84.9009 61.1303 84.934 61.1082 84.9782 61.0971C85.2872 61.2186 85.7288 61.0529 85.9716 60.7215C86.3249 60.5779 86.7002 60.5227 87.0755 60.4785C86.8547 60.7105 86.8437 60.9093 87.0424 61.1965C87.3183 61.5832 87.6826 61.8373 88.08 62.0692C88.2897 62.1908 88.5215 62.2681 88.7092 62.4006C88.8968 62.5332 89.1507 62.6768 89.1397 62.9309C89.1286 63.207 88.8196 63.185 88.6319 63.2623C88.3118 63.4059 88.091 63.7152 87.7268 63.7704Z" fill="#1D1F20"/>
<path d="M84.1943 61.4629C84.1943 61.5734 84.1833 61.6728 84.1833 61.7832C83.808 62.0815 83.3996 62.2914 82.9028 62.2141C83.2671 61.8716 83.7086 61.6286 84.1943 61.4629Z" fill="#4D4D4D"/>
<path d="M85.9608 60.7227C85.7289 61.043 85.2764 61.2198 84.9673 61.0982C85.2874 60.9104 85.6186 60.8 85.9608 60.7227Z" fill="#313232"/>
<path d="M88.8418 60.4575C88.323 60.3912 87.8152 60.6011 87.2964 60.4575C87.8042 60.3249 88.323 60.3028 88.8418 60.4575Z" fill="#1D1F20"/>
<path d="M81.8545 62.9645C81.8766 62.9203 81.8986 62.8761 81.9097 62.8319C82.1194 62.6994 82.3181 62.5779 82.5278 62.4453C82.561 62.9535 82.1636 62.9093 81.8545 62.9645Z" fill="#4D4D4D"/>
<path d="M89.4819 60.5792C89.3715 60.5792 89.2612 60.5903 89.1729 60.5019C89.2943 60.4577 89.3936 60.4909 89.4819 60.5792Z" fill="#1D1F20"/>
<path d="M84.8572 61.1419C84.8351 61.1971 84.813 61.2192 84.7578 61.175C84.7909 61.1309 84.813 61.1198 84.8572 61.1419Z" fill="#313232"/>
<path d="M82.8589 62.2344C82.8258 62.2565 82.7927 62.2896 82.7485 62.3117C82.7927 62.2896 82.8258 62.2565 82.8589 62.2344Z" fill="#4D4D4D"/>
<path d="M44.8976 91.5093C44.5885 91.1116 44.3678 90.736 44.2243 90.4598C43.7717 89.5982 43.6282 88.8581 43.584 88.6151C43.4847 88.0848 43.4847 87.6761 43.4847 87.5656C43.4847 75.4032 43.4737 63.2519 43.4957 51.0895C43.4957 48.9133 44.445 47.2231 46.3547 46.1074C47.8891 47.4441 49.2799 48.9354 50.7701 50.3273C51.4324 50.9348 52.0726 51.6087 52.7018 52.2494C53.4525 53.0116 54.181 53.7959 55.042 54.4587C55.4504 54.768 55.7926 55.1547 56.1679 55.4971C55.8257 56.2483 55.1965 56.8227 54.9095 57.6291C54.6336 58.3913 54.0485 59.0541 53.7836 59.8164C53.3642 61.0204 52.8012 62.1803 52.5142 63.4397C52.3045 64.3676 52.0285 65.2955 52.0064 66.2234C51.9733 67.6043 51.8519 68.9961 52.172 70.388C52.3928 71.3712 52.7901 72.2439 53.2758 73.0945C53.6622 73.7573 54.2803 74.177 54.8323 74.6962C55.4835 75.3038 56.2231 75.6352 57.04 75.823C58.6295 76.1875 60.1639 75.8782 61.643 75.2928C62.5482 74.9393 63.365 74.4201 64.1708 73.8898C65.1974 73.2049 66.1578 72.4538 66.9967 71.5479C67.5265 70.9735 68.0122 70.3549 68.6414 69.8688C68.2992 71.1282 68.9395 71.8683 69.955 72.4427C71.1472 73.1166 72.3283 73.8125 73.5204 74.4974C73.7081 74.6079 73.8737 74.7625 74.1165 74.7404C73.6529 76.5852 73.4211 78.4521 73.4873 80.3632C73.2445 80.2196 73.0679 80.3742 72.8802 80.4847C71.5997 81.2248 70.3193 81.965 69.0499 82.7272C66.5993 84.1964 64.1046 85.5662 61.6541 87.0464C60.5392 87.7203 59.3691 88.3389 58.2432 88.9906C56.6536 89.9075 55.0751 90.8575 53.4635 91.7523C52.7129 92.1721 52.0285 92.6802 51.2006 92.9674C49.9753 93.3872 48.8825 93.3209 48.5403 93.2878C46.6417 93.0337 45.3833 91.9622 44.8976 91.5093Z" fill="#DBDBDA"/>
<path d="M96.5684 89.9411C96.9106 89.7643 97.2527 89.919 97.5839 89.9632C98.0254 90.0184 98.4449 90.0847 98.8864 89.9632C99.1072 89.8969 99.3169 89.9853 99.4825 90.173C99.5819 90.2835 99.6812 90.394 99.7916 90.4824C99.9461 90.6039 100.134 90.8138 100.31 90.6701C100.487 90.5265 100.277 90.3277 100.189 90.1951C99.5819 89.3004 99.8026 88.2841 99.902 87.3561C100.057 85.7875 100.608 84.3183 101.602 83.0369C101.878 82.6723 102.132 82.7718 102.397 82.9596C102.673 83.1474 102.794 83.3241 102.551 83.7218C101.977 84.7049 101.469 85.7102 101.238 86.8811C101.061 87.7538 100.984 88.5823 101.083 89.444C101.149 89.9632 101.238 90.4934 101.712 90.8358C101.878 90.9574 101.845 91.1231 101.856 91.2777C100.079 90.8911 98.3235 90.4271 96.5684 89.9411Z" fill="#1D1F20"/>
<path d="M39.4333 88.7353C39.0249 88.415 38.4509 87.9068 37.8328 87.1777C38.9808 88.0394 39.9411 88.5917 40.6365 88.9562C40.9567 89.1219 41.2989 89.144 41.7845 89.5417C42.4248 90.0609 43.1533 90.4365 43.915 90.7237C44.0695 90.8894 44.213 91.0551 44.3676 91.2319C44.1578 91.1545 43.8267 91.033 43.4182 90.8673C42.1047 90.326 40.7469 89.7737 39.4333 88.7353Z" fill="#B7B8B8"/>
<path d="M94.3496 89.7295C94.8684 89.7515 95.3872 89.6301 95.895 89.8178C95.3762 89.8399 94.8574 89.8399 94.3496 89.7295Z" fill="#1D1F20"/>
<path d="M96.1274 89.8296C96.3261 89.6859 96.4807 89.6639 96.569 89.9511C96.4034 89.9621 96.2599 89.9069 96.1274 89.8296Z" fill="#1D1F20"/>
<path d="M44.4006 91.2656C44.4228 91.2878 44.456 91.321 44.4781 91.3431C44.456 91.321 44.4228 91.2878 44.4006 91.2656Z" fill="#B7B8B8"/>
<path d="M69.6124 58.5891C69.6787 57.142 70.1202 55.7501 70.1423 54.303C70.1533 53.8721 70.1312 53.4634 70.065 53.0547C69.8222 51.2762 69.4248 49.5419 68.2768 48.0837C68.2326 48.0285 68.1553 48.0174 68.0891 47.9843C68.1774 47.6308 68.4203 47.7854 68.619 47.8296C69.9877 48.1058 71.0916 48.7907 71.9305 49.9064C71.9857 49.9837 72.063 50.039 72.1292 50.0942C72.5155 50.9006 72.935 51.696 73.1558 52.5797C73.6084 54.4687 73.5642 56.3577 73.211 58.2466C73.1006 58.8432 72.9571 59.4286 72.8246 60.0141C72.3169 59.9699 71.9305 59.6496 71.5 59.4286C70.8929 59.0972 70.3851 58.5338 69.6124 58.5891Z" fill="#B7B8B8"/>
<path d="M81.3243 63.373C81.5672 64.3783 82.5937 65.2178 83.6093 65.2068C83.9736 65.2068 84.3047 65.2399 84.5696 65.5161C84.7131 65.6708 84.9008 65.6487 85.0884 65.6487C84.967 65.969 84.6469 66.1126 84.4261 66.3336C83.8742 66.8638 83.3113 67.3719 82.8587 68.0016C82.4502 68.576 82.097 68.6092 81.5451 68.1563C81.4347 68.0679 81.2912 68.0016 81.1477 67.9795C80.9269 67.9353 80.7503 67.8801 80.8497 67.5929C80.9269 67.3719 80.7724 67.2394 80.6068 67.2504C79.7569 67.2615 79.1166 66.7533 78.4102 66.3998C78.5426 66.2231 78.664 66.0574 78.7965 65.8806C78.929 65.7591 79.0614 65.6266 79.1277 65.4498C79.8893 64.776 80.5075 63.9696 81.3243 63.373Z" fill="#1D1F20"/>
<path d="M75.1318 71.6152C75.0877 72.3 74.6903 72.8634 74.4805 73.4931C73.2332 72.7751 71.9858 72.057 70.7385 71.35C70.4294 71.1733 70.1203 71.0186 69.9216 70.7204C69.6788 70.3558 69.6346 69.9581 69.8664 69.5826C70.0872 69.218 70.4405 69.2512 70.7937 69.3727C71.0034 69.45 71.2021 69.5273 71.4118 69.5826C71.9638 69.7262 72.328 70.2675 72.9352 70.3006C72.9793 70.389 73.0676 70.4111 73.1559 70.4111C73.3877 70.8529 73.8624 70.9082 74.2598 71.0739C74.2929 71.107 74.337 71.1512 74.3702 71.1843C74.5468 71.4605 74.7675 71.6704 75.1318 71.6152Z" fill="#F0F1F2"/>
<path d="M72.9353 70.2872C72.3282 70.2541 71.9639 69.7128 71.412 69.5692C71.2023 69.5139 70.9926 69.4366 70.7939 69.3593C70.4406 69.2378 70.0874 69.2046 69.8666 69.5692C69.6348 69.9447 69.679 70.3424 69.9218 70.707C70.1205 71.0052 70.4296 71.1709 70.7387 71.3366C71.986 72.0436 73.2334 72.7616 74.4807 73.4797C74.4035 73.7006 74.3372 73.9215 74.26 74.1425C72.8581 73.325 71.4672 72.5076 70.0543 71.7122C69.4141 71.3477 68.9836 70.8506 68.8732 70.0994C68.8511 69.9447 68.9173 69.7459 68.6414 69.7459C68.7849 69.293 69.0939 68.9616 69.403 68.6191C70.6393 68.9837 71.8536 69.3814 72.9022 70.1657C72.9353 70.1988 72.9353 70.2541 72.9353 70.2872Z" fill="#DBDBDA"/>
<path d="M79.1276 65.4501C79.0614 65.6269 78.9289 65.7594 78.7964 65.8809C78.2997 65.7263 78.2004 65.3065 78.1341 64.8646C78.101 64.6769 78.2003 64.4559 78.0127 64.3013C78.5094 63.5832 79.3925 63.4175 80.2866 63.8815C80.121 64.0693 79.9113 63.992 79.7347 63.992C78.9951 64.0141 78.675 64.5885 79.0503 65.2513C79.0834 65.3065 79.1055 65.3838 79.1276 65.4501Z" fill="#DBDBDA"/>
<path d="M78.013 64.3008C78.2007 64.4554 78.1013 64.6764 78.1345 64.8642C78.2007 65.306 78.3 65.7258 78.7968 65.8805C78.6643 66.0572 78.5429 66.2229 78.4104 66.3997C78.3663 66.4107 78.3111 66.4217 78.2669 66.4328C77.715 65.77 77.5936 65.0741 78.013 64.3008Z" fill="#9C9B9B"/>
<path d="M74.2599 71.0612C73.8625 70.8955 73.3878 70.8403 73.156 70.3984C73.5644 70.5641 74.028 70.6194 74.2599 71.0612Z" fill="#DBDBDA"/>
<path d="M74.3702 71.1849C74.337 71.1517 74.2929 71.1075 74.2598 71.0744C74.315 71.0855 74.4695 71.0192 74.3702 71.1849Z" fill="#DBDBDA"/>
<path d="M73.1673 70.3995C73.079 70.3995 72.9907 70.3774 72.9465 70.2891C73.0348 70.2891 73.1121 70.3112 73.1673 70.3995Z" fill="#DBDBDA"/>
<path d="M83.19 81.5456C83.1568 81.3026 82.9802 81.3136 82.8146 81.3578C82.5828 81.4131 82.6711 81.6119 82.6601 81.7666L82.627 81.7997C82.2848 81.6782 81.9426 81.5677 81.8101 81.159C81.7439 80.9601 81.5231 80.8718 81.3355 80.8055C80.5297 80.5293 79.7459 80.1206 78.8849 80.0322C78.2447 79.9659 77.8694 79.5351 77.8252 79.0049C77.759 78.1432 77.7038 77.2926 78.2005 76.431C78.62 75.724 78.8187 74.8513 79.1057 74.056C79.3265 73.4594 79.5693 72.8629 79.9226 72.3327C80.3089 71.7693 80.5297 71.8356 81.1699 72.0234C82.5828 72.4431 83.786 73.3269 85.1879 73.7798C85.9054 74.0118 86.6781 74.2879 87.2963 74.7961C87.5281 74.9839 87.8261 74.9176 88.08 75.0281C88.3339 75.1385 88.6099 75.2048 88.6099 75.5694C88.6099 75.6909 88.665 75.8013 88.7975 75.8013C89.6916 75.8124 90.3539 76.431 91.1487 76.7182C91.4909 76.8397 91.811 77.0386 92.1863 77.0386C92.2746 77.0386 92.385 77.0496 92.4513 77.1048C93.1356 77.7345 93.9856 77.8892 94.8576 78.088C95.4096 78.2206 95.818 78.6845 96.2595 79.038C96.4803 79.2148 96.5134 79.4909 96.3147 79.7781C95.5972 80.8276 95.0122 81.9433 94.7141 83.1805C94.5154 84.009 94.2064 84.8154 94.2395 85.6992C94.2505 85.9532 94.2616 86.2073 94.1733 86.4614C94.0629 86.8149 93.9083 86.9364 93.533 86.7707C92.3519 86.2515 91.1487 85.7765 89.9566 85.2684C89.6364 85.1358 89.3494 84.8486 89.0624 84.7602C88.1462 84.4951 87.4839 83.6445 86.4573 83.6555C86.1593 83.6555 85.9606 83.4898 85.795 83.2358C85.5632 82.9044 85.2762 82.6724 84.923 83.1474C84.8347 83.2579 84.5808 83.3683 84.5587 83.2468C84.4594 82.7829 84.0399 82.6724 83.7308 82.4846C83.3666 82.2526 83.4549 81.8328 83.212 81.5788C83.212 81.5677 83.19 81.5456 83.19 81.5456Z" fill="#1D1F20"/>
<path d="M97.7719 86.3843C98.0037 85.0476 98.2245 83.711 99.0303 82.5621C99.24 82.2639 99.3173 81.9104 99.5601 81.6121C99.7367 81.3912 99.9685 81.3138 100.211 81.2365C100.443 81.1702 100.587 81.3249 100.73 81.4685C100.896 81.6342 100.796 81.7557 100.697 81.8993C100.256 82.5732 99.9023 83.2912 99.5601 84.0092C99.229 84.7052 98.953 85.4232 98.8757 86.1965C98.8537 86.3953 98.7985 86.5942 98.7322 86.7819C98.655 87.025 98.677 87.3785 98.2465 87.279C97.8712 87.1907 97.7277 86.9587 97.7719 86.5941C97.7829 86.5279 97.7719 86.4505 97.7719 86.3843Z" fill="#1D1F20"/>
<path d="M95.564 85.5216C95.6081 84.5936 95.9834 83.7762 96.2925 82.9366C96.5685 82.1744 96.9438 81.4343 97.3964 80.7384C97.5399 80.5064 97.7275 80.3186 97.9593 80.5174C98.147 80.6831 98.434 80.882 98.2353 81.2575C97.86 81.9424 97.4736 82.6273 97.1756 83.3564C96.9327 83.9529 96.7561 84.5936 96.6789 85.2454C96.6678 85.3559 96.6789 85.4663 96.6678 85.5768C96.5905 86.0187 96.2704 86.096 95.8841 86.0849C95.4425 86.0629 95.6081 85.7315 95.564 85.5216Z" fill="#1D1F20"/>
<path d="M68.6523 69.7582C68.9172 69.7472 68.862 69.9571 68.8841 70.1117C68.9945 70.8629 69.425 71.36 70.0652 71.7245C71.4671 72.5199 72.869 73.3484 74.2709 74.1548C74.2819 74.3536 74.1715 74.5304 74.1163 74.7071C73.8735 74.7292 73.7079 74.5746 73.5203 74.4641C72.3281 73.7792 71.147 73.0833 69.9548 72.4094C68.9393 71.835 68.299 71.0949 68.6412 69.8356C68.6412 69.8135 68.6523 69.7914 68.6523 69.7582Z" fill="#9C9B9B"/>
<path d="M109.815 81.7559C110.422 82.3303 111.107 82.8384 111.581 83.5454C111.151 83.3797 110.72 83.1919 110.499 82.739C110.356 82.4297 110.091 82.6396 109.826 82.6065C109.992 82.2971 109.771 82.032 109.815 81.7559Z" fill="#1D1F20"/>
<path d="M107.155 79.1367C107.453 79.3466 107.707 79.6117 107.927 79.8989C107.397 79.921 107.144 79.6559 107.155 79.1367Z" fill="#1D1F20"/>
<path d="M106.382 78.375C106.647 78.5407 106.846 78.7727 107.045 79.0157C106.978 79.0157 106.901 79.0157 106.835 79.0157C106.57 78.8831 106.305 78.7506 106.382 78.375Z" fill="#1D1F20"/>
<path d="M105.598 77.623C105.731 77.7004 105.841 77.7887 105.896 77.9213C105.697 77.9213 105.598 77.8219 105.598 77.623Z" fill="#1D1F20"/>
<path d="M90.5192 74.2883C90.4861 74.3877 90.442 74.4872 90.3095 74.4761C90.2764 74.4761 90.2212 74.4098 90.2212 74.3767C90.2433 74.2441 90.3757 74.2662 90.464 74.2441C90.4861 74.2552 90.4972 74.2773 90.5192 74.2883Z" fill="#313232"/>
<path d="M111.769 84.9688C111.769 85.0792 111.769 85.2007 111.769 85.3112C111.504 85.2007 111.504 85.0903 111.769 84.9688Z" fill="#1D1F20"/>
<path d="M111.681 83.7637C111.813 83.8852 111.813 84.0398 111.791 84.2055C111.427 84.1393 111.725 83.9073 111.681 83.7637Z" fill="#1D1F20"/>
<path d="M109.374 81.3125C109.528 81.3898 109.627 81.5113 109.716 81.6549C109.462 81.6881 109.34 81.5887 109.374 81.3125Z" fill="#1D1F20"/>
<path d="M108.932 80.8828C109.087 80.9601 109.197 81.0596 109.263 81.2142C109.009 81.2474 108.899 81.1369 108.932 80.8828Z" fill="#1D1F20"/>
<path d="M89.118 75.1282C89.1069 75.1613 89.0959 75.1834 89.0849 75.2165C89.0517 75.2055 89.0076 75.1945 89.0076 75.1724C88.9966 75.1503 89.0297 75.1171 89.0407 75.084C89.0628 75.095 89.0849 75.1061 89.118 75.1282Z" fill="#1D1F20"/>
<path d="M90.1218 74.7189C90.0997 74.741 90.0776 74.7742 90.0445 74.7742C89.9783 74.7742 89.9562 74.73 89.9893 74.6747C90.0004 74.6527 90.0445 74.6306 90.0776 74.6416C90.0997 74.6416 90.1108 74.6858 90.1218 74.7189Z" fill="#313232"/>
<path d="M82.9693 82.1204C82.8479 81.9989 82.8368 81.8774 82.9693 81.7559L82.9914 81.778C82.9914 81.8774 82.9914 81.9878 82.9914 82.0873C83.0024 82.0983 82.9693 82.1204 82.9693 82.1204Z" fill="#1D1F20"/>
<path d="M83.1129 81.6783C83.0798 81.7115 83.0357 81.7557 83.0025 81.7888L82.9805 81.7667C83.0136 81.7336 83.0577 81.6894 83.0909 81.6562L83.1129 81.6783Z" fill="#1D1F20"/>
<path d="M82.6714 81.7656C82.6824 81.7878 82.6935 81.8099 82.7156 81.8321C82.6935 81.821 82.6714 81.8099 82.6492 81.7878C82.6382 81.7878 82.6714 81.7656 82.6714 81.7656Z" fill="#1D1F20"/>
<path d="M108.81 80.7598C108.854 80.804 108.898 80.8481 108.931 80.8923C108.898 80.8371 108.854 80.7929 108.81 80.7598Z" fill="#1D1F20"/>
<path d="M108.27 80.2188C108.303 80.2519 108.347 80.2961 108.38 80.3292C108.336 80.2961 108.303 80.2629 108.27 80.2188Z" fill="#1D1F20"/>
<path d="M83.0796 82.2302C83.0465 82.1971 83.0024 82.1529 82.9692 82.1198L82.9913 82.0977C83.0244 82.1308 83.0686 82.175 83.1017 82.2081L83.0796 82.2302Z" fill="#1D1F20"/>
<path d="M108.038 80.0098C108.071 80.0429 108.115 80.076 108.148 80.1092C108.115 80.076 108.082 80.0429 108.038 80.0098Z" fill="#1D1F20"/>
<path d="M107.927 79.8984C107.96 79.9316 107.993 79.9647 108.027 80.0089C108.005 79.9758 107.971 79.9426 107.927 79.8984Z" fill="#1D1F20"/>
<path d="M106.051 78.0547C106.084 78.0768 106.106 78.1099 106.139 78.132C106.106 78.1099 106.073 78.0878 106.051 78.0547Z" fill="#1D1F20"/>
<path d="M90.4644 74.2442C90.4865 74.2331 90.5197 74.222 90.5418 74.2109C90.5308 74.2331 90.5197 74.2663 90.5086 74.2884C90.4976 74.2774 90.4865 74.2552 90.4644 74.2442Z" fill="#313232"/>
<path d="M106.823 79.0156C106.812 79.0267 106.812 79.0378 106.801 79.0599C106.812 79.0378 106.812 79.0267 106.823 79.0156Z" fill="#1D1F20"/>
<path d="M105.399 77.4023C105.444 77.4023 105.466 77.4245 105.455 77.4688C105.422 77.4577 105.399 77.4356 105.399 77.4023Z" fill="#1D1F20"/>
<path d="M105.499 77.5117C105.521 77.5339 105.543 77.556 105.565 77.5782C105.532 77.5671 105.51 77.5449 105.499 77.5117Z" fill="#1D1F20"/>
<path d="M106.271 78.2637C106.305 78.2968 106.327 78.3189 106.36 78.3521C106.327 78.33 106.294 78.2968 106.271 78.2637Z" fill="#1D1F20"/>
<path d="M105.94 77.9531C105.974 77.9752 105.996 78.0084 106.029 78.0305C105.996 77.9973 105.963 77.9752 105.94 77.9531Z" fill="#1D1F20"/>
<path d="M109.263 81.2129C109.307 81.246 109.34 81.2902 109.384 81.3234C109.34 81.2902 109.296 81.246 109.263 81.2129Z" fill="#1D1F20"/>
<path d="M108.38 80.3301C108.413 80.3632 108.457 80.4074 108.49 80.4405C108.446 80.4074 108.413 80.3743 108.38 80.3301Z" fill="#1D1F20"/>
<path d="M106.161 78.1523C106.194 78.1856 106.216 78.2077 106.25 78.2409C106.216 78.2188 106.183 78.1856 106.161 78.1523Z" fill="#1D1F20"/>
<path d="M83.0801 81.6554C83.1132 81.6222 83.1573 81.5781 83.1905 81.5449L83.2125 81.567C83.1794 81.6002 83.1353 81.6443 83.1022 81.6775C83.1132 81.6775 83.0801 81.6554 83.0801 81.6554Z" fill="#1D1F20"/>
<path d="M108.479 80.4512C108.524 80.4954 108.568 80.5285 108.612 80.5727C108.579 80.5285 108.524 80.4843 108.479 80.4512Z" fill="#1D1F20"/>
<path d="M83.1133 82.207C83.1243 82.2292 83.1354 82.2513 83.1465 82.2735C83.1243 82.2624 83.1022 82.2513 83.0801 82.2402C83.0801 82.2292 83.1133 82.207 83.1133 82.207Z" fill="#1D1F20"/>
<path d="M36.6298 83.9868C36.6298 76.8175 36.6188 69.6482 36.6188 62.4789C36.6188 58.0271 36.6188 53.5863 36.6188 49.1345C36.6188 48.6374 36.5746 48.1513 36.5415 47.6542C36.8506 47.3781 37.0714 47.5438 37.3915 47.6984C38.2304 48.074 38.9921 48.56 39.7647 49.0461C40.4712 49.488 41.277 49.7531 41.9173 50.3054C42.0939 50.4601 42.3478 50.5043 42.5906 50.5264C42.5906 56.6131 42.6016 62.6998 42.6016 68.7976C42.6016 73.2494 42.6016 77.7012 42.6016 82.153C42.6016 83.799 42.5906 85.4449 42.5906 87.0909C41.5309 86.9583 40.8244 86.174 39.9855 85.6327C39.9524 85.6106 39.9745 85.5001 39.9634 85.4228L39.9855 85.4007L39.9634 85.4228C39.7647 85.6217 39.5881 85.467 39.4226 85.3786C38.9148 85.1025 38.4291 84.7821 37.9103 84.517C37.4798 84.3071 37.1597 83.8984 36.6298 83.9868Z" fill="#B7B8B8"/>
<path d="M42.5795 87.0917C42.6899 88.4284 43.0872 89.6546 43.9262 90.7261C43.6723 90.6267 43.297 90.472 42.8334 90.2621C40.3939 89.1796 38.7822 88.4615 37.6232 86.915C37.281 86.451 36.5856 85.501 36.5525 84.1865C36.5414 83.9766 36.5525 83.6673 36.6297 83.3027C38.6056 84.5621 40.5925 85.8214 42.5795 87.0917Z" fill="#9C9B9B"/>
<path d="M122.62 103.736C122.498 102.543 122.399 101.273 122.035 100.047C121.582 98.5003 120.809 97.1636 119.904 95.838C118.966 94.4572 117.818 93.3083 116.559 92.3031C115.533 91.4856 114.539 90.5688 113.292 90.0164C112.608 89.7182 112.001 89.2211 111.305 88.967C110.797 88.7792 110.411 88.5583 110.102 88.1054C109.925 87.8513 109.892 87.6083 109.958 87.3321C110.179 86.4373 111.051 86.0396 111.901 86.4042C113.91 87.2658 115.776 88.3594 117.487 89.7071C118.094 90.1932 118.635 90.8007 119.242 91.2537C120.158 91.9275 120.809 92.8223 121.538 93.6397C122.189 94.3799 122.741 95.2305 123.171 96.1363C123.216 96.2357 123.293 96.3462 123.216 96.4456C122.995 96.7328 123.171 96.766 123.414 96.788C123.613 96.8101 123.657 96.9979 123.723 97.1415C124.485 98.9201 125.103 100.732 125.158 102.698C125.203 104.333 125.214 105.957 124.816 107.548C124.264 109.801 123.436 111.955 122.31 113.988C121.494 115.457 120.622 116.882 119.617 118.23C118.568 119.644 117.398 120.958 116.272 122.306C115.577 123.134 114.727 123.819 114.076 124.692C113.789 125.068 112.762 125.222 112.354 124.99C111.901 124.736 111.559 123.952 111.702 123.455C111.736 123.333 111.824 123.223 111.901 123.134C113.149 121.765 114.451 120.439 115.632 119.025C116.239 118.285 116.846 117.534 117.398 116.738C117.95 115.932 118.535 115.148 119.087 114.33C119.683 113.446 120.136 112.496 120.622 111.546C120.964 110.884 121.306 110.199 121.527 109.514C121.792 108.696 122.112 107.879 122.255 107.006C122.421 105.946 122.531 104.885 122.62 103.736Z" fill="#4D4D4D"/>
<path d="M71.2907 64.1134C70.9154 64.9971 70.529 65.7483 70.1979 66.3227C69.5356 67.4826 68.9285 68.289 68.52 68.8192C68.4428 68.9187 67.946 69.5594 67.3941 70.178C66.7428 70.885 66.6104 70.896 66.511 71.0617C66.5 71.0838 66.4669 71.1391 66.4006 71.1611C66.2903 71.1943 66.1578 71.1059 66.0805 71.0396C65.5948 70.653 65.0208 70.4763 64.4468 70.2885C63.4865 69.9792 63.354 69.4047 64.0826 68.7419C64.778 68.1123 65.1423 67.2617 65.7052 66.5436C66.224 65.8698 66.5441 65.0744 67.085 64.4227C67.35 64.1023 67.4603 63.7157 67.6038 63.3401C67.7363 62.9866 67.8908 62.6662 68.211 62.4453C68.9174 63.0418 69.8336 63.2517 70.5842 63.782C70.7719 63.9366 70.9816 64.1465 71.2907 64.1134Z" fill="#E8E9E9"/>
<path d="M71.2905 64.1131C70.9815 64.1462 70.7717 63.9363 70.562 63.7817C69.8114 63.2514 68.8952 63.0415 68.1887 62.445C68.4868 61.6055 68.7627 60.7659 69.0718 59.9264C69.2374 59.4734 69.2153 58.9432 69.6127 58.5897C70.3854 58.5345 70.8932 59.0979 71.5113 59.4182C71.9418 59.6502 72.3282 59.9705 72.8359 60.0037C72.4385 61.4287 71.9308 62.7875 71.2905 64.1131Z" fill="#DBDBDA"/>
<path d="M39.9414 85.4225L39.9635 85.4004L39.9414 85.4225Z" fill="#9C9B9B"/>
<path d="M73.1562 51.3431C73.101 51.1995 73.0569 50.8791 72.825 50.5919C72.6043 50.3157 72.3394 50.1721 72.1407 50.0948C72.3062 50.3931 72.5049 50.7907 72.6926 51.2657C72.7147 51.3099 72.9685 51.9727 73.1562 52.7349C73.7302 55.1542 73.2887 57.8717 73.2335 58.2031C73.2114 58.3356 73.09 59.0426 72.8471 59.9705C72.7367 60.3793 72.5601 60.9979 72.2952 61.738C72.2069 61.97 71.8978 62.8206 71.3017 64.0688C70.2972 66.1456 69.3369 67.5596 68.5311 68.7526C68.3103 69.073 68.0012 69.5259 67.5707 70.012C66.9636 70.6969 66.6876 70.8184 66.5662 71.0283C66.5552 71.0503 66.5221 71.1056 66.4558 71.1277C66.3454 71.1608 66.213 71.0724 66.1357 71.0062C65.65 70.6195 65.076 70.4428 64.502 70.255C63.5417 69.9457 63.4092 69.3713 64.1377 68.7085C64.8332 68.0788 65.1974 67.2282 65.7604 66.5102C66.2792 65.8363 66.5993 65.041 67.1402 64.3892C67.4051 64.0688 67.5155 63.6822 67.659 63.3066C67.7915 62.9531 67.946 62.6328 68.2661 62.4118C68.5642 61.5723 68.8401 60.7327 69.1492 59.8932C69.3148 59.4403 69.2927 58.91 69.6901 58.5566C69.7563 57.1094 70.1979 55.7176 70.22 54.2704C70.231 53.8396 70.2089 53.4309 70.1427 53.0222C69.8998 51.2436 69.5025 49.5093 68.3545 48.0512C68.3103 47.9959 68.233 47.9849 68.1668 47.9517C67.2727 47.4878 66.2571 47.7971 65.5065 48.0622C62.8683 48.9901 60.8483 50.5698 60.4288 50.9012C59.6672 51.5088 59.2918 51.807 58.8393 52.3041C58.2873 52.9227 56.753 54.7896 56.5985 55.1873C56.5874 55.2205 56.5322 55.3641 56.3887 55.4414C56.3446 55.4635 56.2894 55.4745 56.2342 55.4745C55.892 56.2257 55.2628 56.8001 54.9758 57.6065C54.6998 58.3688 54.1148 59.0316 53.8499 59.7938C53.4304 60.9979 52.8674 62.1578 52.5804 63.4171C52.3707 64.345 52.0947 65.2729 52.0727 66.2009C52.0396 67.5817 51.9181 68.9736 52.2382 70.3655C52.459 71.3486 52.8564 72.2213 53.3421 73.0719C53.7284 73.7347 54.3466 74.1545 54.8985 74.6737C55.5498 75.2812 56.2894 75.6126 57.1062 75.8004C58.6958 76.165 60.2301 75.8557 61.7093 75.2702C62.6144 74.9167 63.4313 74.3975 64.2371 73.8673C65.2637 73.1824 66.224 72.4312 67.063 71.5254C67.5928 70.9509 68.0785 70.3323 68.7077 69.8463C68.7187 69.8242 68.7298 69.791 68.7298 69.7579C68.8733 69.305 69.1823 68.9736 69.4914 68.6311C70.1096 67.7032 70.8381 66.8416 71.3238 65.8253C72.1075 64.1904 72.8582 62.5555 73.3328 60.788C73.675 59.5176 73.9399 58.2362 74.0945 56.9548C74.2932 54.9885 73.8847 53.1105 73.1562 51.3431ZM68.6635 54.7565C68.6525 54.6681 68.6304 54.5797 68.6194 54.5024C68.6746 54.5908 68.6856 54.6792 68.6635 54.7565Z" fill="#E3E3E5"/>
<path d="M59.1482 64.325C58.7067 65.2418 57.8236 65.7389 57.1944 65.4296C57.084 65.3744 56.9957 65.3081 56.9184 65.2198C56.5321 64.7889 56.4879 63.9715 56.8632 63.2203C57.0509 62.8447 57.3048 62.5354 57.5807 62.3366C57.9892 62.0383 58.4417 61.9389 58.8171 62.1267C59.4462 62.4249 59.6008 63.4081 59.1482 64.325Z" fill="#9C9B9B"/>
<path d="M57.6359 64.3237C57.4483 64.6993 57.1944 65.0086 56.9184 65.2074C56.5321 64.7766 56.4879 63.9591 56.8632 63.208C57.0509 62.8324 57.3048 62.5231 57.5807 62.3242C57.9671 62.755 58.0002 63.5725 57.6359 64.3237Z" fill="#4D4D4D"/>
<path d="M66.6211 58.823C66.1796 59.7399 65.2965 60.237 64.6673 59.9277C64.5569 59.8725 64.4686 59.8062 64.3913 59.7178C64.005 59.287 63.9608 58.4695 64.3361 57.7184C64.5238 57.3428 64.7777 57.0335 65.0536 56.8346C65.4621 56.5364 65.9146 56.4369 66.29 56.6247C66.9191 56.9119 67.0737 57.9061 66.6211 58.823Z" fill="#9C9B9B"/>
<path d="M65.1088 58.8217C64.9212 59.1973 64.6673 59.5066 64.3913 59.7054C64.005 59.2746 63.9608 58.4572 64.3361 57.706C64.5238 57.3304 64.7777 57.0211 65.0536 56.8223C65.44 57.242 65.4731 58.0595 65.1088 58.8217Z" fill="#4D4D4D"/>
<path fill-rule="evenodd" clip-rule="evenodd" d="M22.4142 112.071L0 40.6994L80.809 0L153.95 40.6994L141.563 112.071H141.551C141.431 113.774 140.432 115.433 138.553 116.406L85.0101 144.217C83.1314 145.184 80.8258 145.184 78.9756 144.217L25.4332 116.406C23.5539 115.433 22.5545 113.774 22.4352 112.071H22.4142Z" fill="url(#paint4_linear_1043_875)"/>
<defs>
<linearGradient id="paint0_linear_1043_875" x1="80.7738" y1="89.3887" x2="80.7738" y2="165.651" gradientUnits="userSpaceOnUse">
<stop stop-color="#097CDE"/>
<stop offset="1" stop-color="#0A51B0"/>
</linearGradient>
<linearGradient id="paint1_linear_1043_875" x1="80.7775" y1="73.4102" x2="80.7775" y2="149.677" gradientUnits="userSpaceOnUse">
<stop stop-color="#097CDE"/>
<stop offset="1" stop-color="#83B8FF"/>
</linearGradient>
<linearGradient id="paint2_linear_1043_875" x1="80.7747" y1="86.623" x2="80.7747" y2="136.899" gradientUnits="userSpaceOnUse">
<stop stop-color="#097CDE"/>
<stop offset="1" stop-color="#0A51B0"/>
</linearGradient>
<linearGradient id="paint3_linear_1043_875" x1="80.7771" y1="76.0879" x2="80.7771" y2="126.366" gradientUnits="userSpaceOnUse">
<stop stop-color="#097CDE"/>
<stop offset="1" stop-color="#83B8FF"/>
</linearGradient>
<linearGradient id="paint4_linear_1043_875" x1="76.975" y1="0" x2="76.975" y2="144.942" gradientUnits="userSpaceOnUse">
<stop offset="0.315625" stop-color="#097CDE" stop-opacity="0"/>
<stop offset="1" stop-color="#0A51B0" stop-opacity="0.8"/>
</linearGradient>
</defs>
</svg>
