<svg width="74" height="74" viewBox="0 0 74 74" fill="none" xmlns="http://www.w3.org/2000/svg">
<path d="M24.4502 37.86C27.2253 43.3718 30.39 48.6786 33.9202 53.74C35.8102 56.33 37.7202 58.45 39.3502 59.33C40.9522 60.2502 42.3397 61.5014 43.4202 63C45.2929 65.6477 46.7216 68.5828 47.6502 71.69L59.8502 53.23C59.8502 53.23 59.4302 35.23 57.9702 32.17C55.8302 27.77 54.8002 18.88 53.9702 17.12C53.3602 15.8 51.6302 9.02001 51.4602 8.53001C51.2867 8.33836 51.0703 8.19045 50.8287 8.09834C50.5872 8.00623 50.3273 7.97254 50.0702 8.00001C49.6072 8.05532 49.1743 8.25832 48.8357 8.57893C48.497 8.89954 48.2707 9.32069 48.1902 9.78001C47.3975 13.1514 47.4801 16.6695 48.4302 20C47.9702 24.65 49.3602 28.1 48.4302 29C48.4302 29 48.3302 29 48.2402 29C46.5602 27.92 36.1202 12.7 34.8302 12.37C33.5402 12.04 24.4502 37.86 24.4502 37.86Z" fill="#FAB17E"/>
<path d="M13.7799 6.05991L17.5599 11.5999L21.2699 16.9999C21.357 17.1193 21.4741 17.2136 21.6093 17.2733C21.7444 17.333 21.893 17.356 22.0399 17.3399C22.9299 17.2499 24.0399 15.9699 24.8799 15.2599L24.9699 15.1899C25.2507 14.9718 25.4841 14.6989 25.656 14.3877C25.828 14.0766 25.9347 13.7337 25.9699 13.3799C26.0045 13.0321 25.9702 12.6808 25.869 12.3462C25.7678 12.0116 25.6016 11.7002 25.3799 11.4299L19.6599 4.61991L17.9999 2.58991C17.7773 2.31835 17.5023 2.09431 17.1914 1.93111C16.8804 1.76791 16.5399 1.66888 16.1899 1.63991C15.834 1.59848 15.4734 1.62938 15.1297 1.73077C14.786 1.83215 14.4664 2.00193 14.1899 2.22991L14.1099 2.29991C13.8393 2.52309 13.6153 2.79741 13.4507 3.10719C13.2862 3.41697 13.1843 3.75614 13.1508 4.10532C13.1174 4.4545 13.1531 4.80685 13.2559 5.14223C13.3587 5.4776 13.5266 5.78944 13.7499 6.05991H13.7799Z" fill="#FAB17E"/>
<path d="M17.5601 11.6001L21.2701 17.0001C21.3572 17.1195 21.4742 17.2138 21.6094 17.2735C21.7446 17.3332 21.8931 17.3562 22.0401 17.3401L19.6601 4.62012C19.6601 4.69012 19.2501 10.4201 17.5601 11.6001Z" fill="#EFA26F"/>
<path d="M23.1301 55.6298H44.3801C45.3888 55.6298 46.3564 55.2298 47.0706 54.5174C47.7849 53.8051 48.1874 52.8385 48.1901 51.8298V5.1098C48.1874 4.10014 47.7852 3.13259 47.0712 2.41864C46.3573 1.7047 45.3897 1.30244 44.3801 1.2998H23.1301C22.1213 1.30245 21.1548 1.70503 20.4425 2.41926C19.7301 3.13348 19.3301 4.10106 19.3301 5.1098V51.8298C19.3301 52.8376 19.7304 53.8042 20.4431 54.5168C21.1557 55.2295 22.1223 55.6298 23.1301 55.6298Z" fill="#3A3B3A"/>
<path d="M20.7598 5.4699V51.1099C20.7597 51.8517 21.0531 52.5634 21.5757 53.0898C22.0984 53.6162 22.808 53.9146 23.5498 53.9199H43.9998C44.7416 53.9146 45.4512 53.6162 45.9738 53.0898C46.4965 52.5634 46.7898 51.8517 46.7898 51.1099V5.4699C46.7924 4.72637 46.5003 4.01208 45.9774 3.48352C45.4544 2.95495 44.7433 2.65519 43.9998 2.6499H23.5498C22.8071 2.6578 22.0975 2.95839 21.5751 3.48639C21.0527 4.01439 20.7597 4.72716 20.7598 5.4699Z" fill="#468FCD"/>
<path d="M29.49 4.35012H38C38.3342 4.35012 38.6547 4.21737 38.891 3.98107C39.1273 3.74478 39.26 3.42429 39.26 3.09012V2.89012C39.2613 2.72381 39.2297 2.55889 39.167 2.40486C39.1043 2.25084 39.0117 2.11075 38.8945 1.99269C38.7774 1.87463 38.638 1.78092 38.4845 1.71698C38.331 1.65303 38.1663 1.62011 38 1.62012H29.49C29.3237 1.62011 29.159 1.65303 29.0055 1.71698C28.852 1.78092 28.7126 1.87463 28.5955 1.99269C28.4784 2.11075 28.3858 2.25084 28.323 2.40486C28.2603 2.55889 28.2287 2.72381 28.23 2.89012V3.09012C28.23 3.42429 28.3628 3.74478 28.5991 3.98107C28.8354 4.21737 29.1558 4.35012 29.49 4.35012Z" fill="#3A3B3A"/>
<path d="M15.6598 27.0001L16.2298 27.2101L19.9998 28.6301C20.0843 28.6661 20.1712 28.6961 20.2598 28.7201C20.8748 28.8754 21.5253 28.8004 22.0889 28.5094C22.6525 28.2184 23.0903 27.7314 23.3198 27.1401L23.3998 27.0001C23.5242 26.6794 23.5821 26.3367 23.5701 25.993C23.5581 25.6492 23.4763 25.3114 23.3298 25.0001C23.0522 24.3752 22.5379 23.8861 21.8998 23.6401L18.3698 22.3001L18.1098 22.2001L17.5498 22.0001C16.9105 21.759 16.2017 21.7803 15.578 22.0594C14.9543 22.3385 14.4661 22.8527 14.2198 23.4901L14.1698 23.6401C14.0458 23.9585 13.986 24.2982 13.9938 24.6398C14.0017 24.9813 14.077 25.3179 14.2155 25.6303C14.354 25.9426 14.5529 26.2244 14.8008 26.4595C15.0487 26.6946 15.3406 26.8783 15.6598 27.0001Z" fill="#FAB17E"/>
<path d="M17.3802 32.3099L20.3002 33.0999C20.5119 33.1591 20.7333 33.1755 20.9514 33.148C21.1695 33.1206 21.3799 33.0498 21.5702 32.9399C21.954 32.7224 22.2375 32.3635 22.3602 31.9399L22.4502 31.6099C22.5614 31.1806 22.5004 30.7248 22.2802 30.3399C22.0644 29.9547 21.7049 29.6707 21.2802 29.5499L18.3602 28.7599C18.1488 28.7008 17.9277 28.6843 17.7099 28.7113C17.492 28.7383 17.2817 28.8082 17.091 28.917C16.9004 29.0258 16.7332 29.1714 16.5992 29.3452C16.4652 29.5191 16.3669 29.7178 16.3102 29.9299L16.2202 30.2599C16.1035 30.6882 16.1611 31.1452 16.3803 31.5312C16.5995 31.9172 16.9626 32.2007 17.3902 32.3199L17.3802 32.3099Z" fill="#FAB17E"/>
<path d="M15.7501 21.3802H15.8201L19.6501 22.3802C20.4285 22.6044 21.2633 22.5222 21.983 22.1502C22.7027 21.7783 23.2527 21.1449 23.5201 20.3802L23.7401 19.5902C23.9299 18.8547 23.8276 18.0743 23.4548 17.4125C23.082 16.7507 22.4675 16.2589 21.7401 16.0402L20.4701 15.7202L17.8601 15.0002C17.0816 14.7734 16.2457 14.8545 15.5254 15.2267C14.805 15.599 14.2554 16.2339 13.9901 17.0002L13.7601 17.7902C13.5581 18.5299 13.6531 19.3193 14.0249 19.9899C14.3966 20.6606 15.0157 21.1595 15.7501 21.3802Z" fill="#FAB17E"/>
<path d="M48.1899 41.3C48.1899 41.3 48.9999 34 49.7899 32.59C50.5799 31.18 51.2099 28.31 50.0299 26.2C48.8499 24.09 48.4299 20 48.4299 20C47.9699 24.65 49.3599 28.1 48.4299 29C48.4299 29 48.3299 29 48.2399 29L48.1899 41.3Z" fill="#EFA26F"/>
<path d="M33.7598 34.4801C35.2823 34.4781 36.77 34.0248 38.035 33.1775C39.2999 32.3302 40.2853 31.127 40.8665 29.7198C41.4478 28.3127 41.5989 26.7648 41.3006 25.2718C41.0024 23.7788 40.2683 22.4077 39.191 21.3318C38.1137 20.256 36.7417 19.5236 35.2483 19.2273C33.7549 18.931 32.2072 19.0841 30.8008 19.6672C29.3944 20.2503 28.1924 21.2372 27.3468 22.5032C26.5012 23.7693 26.0498 25.2576 26.0498 26.7801C26.0498 27.7921 26.2493 28.7942 26.6369 29.729C27.0245 30.6639 27.5925 31.5132 28.3086 32.2283C29.0247 32.9435 29.8747 33.5104 30.8101 33.8968C31.7454 34.2832 32.7478 34.4814 33.7598 34.4801Z" fill="white"/>
<path d="M32.2 30.4499C32.0971 30.4494 31.9952 30.429 31.9 30.3899C31.8047 30.3486 31.7194 30.2872 31.65 30.2099L29.42 27.8699C29.2833 27.7235 29.2081 27.5302 29.21 27.3299C29.218 27.1307 29.3 26.9417 29.44 26.7999C29.5874 26.6659 29.7809 26.5942 29.98 26.5999C30.0794 26.5995 30.1779 26.6198 30.2691 26.6594C30.3603 26.699 30.4423 26.757 30.51 26.8299L32.19 28.5999L37 23.3599C37.1337 23.2114 37.3205 23.1216 37.52 23.1099C37.7212 23.1093 37.9161 23.1802 38.07 23.3099C38.2122 23.4471 38.2979 23.6326 38.31 23.8299C38.3162 23.9289 38.3017 24.028 38.2672 24.1211C38.2328 24.2141 38.1792 24.2988 38.11 24.3699L32.75 30.1999C32.6842 30.2767 32.6022 30.3382 32.51 30.3799C32.4169 30.4265 32.3141 30.4505 32.21 30.4499H32.2Z" fill="#468FCD"/>
</svg>
