<svg width="253" height="83" viewBox="0 0 253 83" fill="none" xmlns="http://www.w3.org/2000/svg">
<path d="M137.475 71.7663C137.213 76.6414 135.031 79.9804 130.848 82.0014C129.633 82.5885 128.499 82.1244 127.946 80.8841C127.52 79.9281 128.007 78.84 129.153 78.332C132.115 77.0164 133.415 74.3199 133.36 71.7793C133.292 68.6909 131.433 66.3356 128.511 65.3227C125.696 64.3475 122.756 65.2935 120.68 67.8441C119.085 69.8029 118.948 73.1849 120.348 75.4534C121.123 76.7113 122.151 77.6604 123.499 78.2928C124.768 78.8892 125.217 79.9888 124.704 81.077C124.179 82.1882 122.936 82.544 121.688 81.9169C118.337 80.2332 116.142 77.6174 115.471 73.9057C114.409 68.0385 118.09 62.7745 123.393 61.3144C129.661 59.5885 135.683 63.5307 137.083 69.238C137.305 70.1394 137.372 71.0777 137.475 71.7663V71.7663Z" fill="#00AA11"/>
<path d="M153.481 65.8098C153.514 65.3433 153.54 64.9706 153.57 64.5464C154.654 64.5464 155.698 64.5464 156.806 64.5464C156.831 64.7831 156.874 65.0068 156.874 65.2304C156.877 69.0396 156.897 72.8481 156.867 76.6574C156.849 79.0082 155.938 80.9393 153.83 82.1258C151.187 83.6128 147.067 83.1433 144.705 81.1683C144.483 80.9823 144.271 80.7841 144.011 80.5528C144.714 79.865 145.401 79.1903 146.158 78.4495C147.337 79.3916 148.658 79.865 150.202 79.8189C152.582 79.7482 153.754 78.4495 153.444 75.9243C151.452 77.4766 149.253 77.535 147.022 76.7927C145.691 76.3493 144.638 75.4617 143.893 74.2252C142.32 71.6125 142.725 68.2973 144.904 66.2739C147.239 64.1053 150.77 63.8825 153.481 65.8098V65.8098ZM153.346 70.8709C153.346 68.6646 152.142 67.4612 149.952 67.4812C147.894 67.4996 146.506 68.8429 146.431 70.7141C146.332 73.1509 147.924 74.2491 150.03 74.2199C152.194 74.1914 153.346 73.051 153.346 70.8709Z" fill="black"/>
<path d="M208.366 64.5067C206.369 66.3817 204.551 68.0892 202.706 69.8213C204.582 72.3058 206.418 74.7357 208.378 77.3323C207.037 77.3323 205.928 77.3653 204.824 77.3077C204.566 77.2946 204.261 77.0211 204.085 76.7874C203.067 75.4303 202.08 74.0486 201.081 72.6769C200.913 72.4456 200.734 72.2228 200.434 71.8301C199.714 72.6493 198.798 73.2948 198.486 74.1578C198.159 75.0607 198.413 76.1719 198.413 77.3338C197.815 77.3338 197.297 77.3338 196.779 77.3338C196.284 77.3338 195.791 77.3338 195.215 77.3338C195.192 76.9527 195.158 76.6422 195.158 76.3325C195.155 71.5273 195.182 66.7221 195.133 61.917C195.124 60.994 195.409 60.7251 196.287 60.8196C196.949 60.8911 197.625 60.8342 198.4 60.8342C198.4 63.7528 198.4 66.5692 198.4 69.6246C199.415 68.714 200.258 67.9701 201.086 67.2101C201.928 66.4386 202.749 65.6432 203.596 64.8771C203.78 64.7111 204.036 64.529 204.263 64.5228C205.543 64.489 206.825 64.5067 208.366 64.5067V64.5067Z" fill="black"/>
<path d="M183.394 72.0114C183.595 73.3677 184.897 74.4029 186.398 74.5227C187.666 74.6242 188.855 74.4398 189.891 73.619C190.057 73.4876 190.414 73.3839 190.557 73.4715C191.25 73.8941 191.9 74.3867 192.629 74.9008C190.38 77.1301 187.822 77.7441 184.879 77.0202C182.487 76.4316 180.751 75.0953 180.19 72.6508C178.968 67.3315 183.082 63.8165 187.837 64.6188C190.596 65.0837 192.315 66.6944 192.961 69.3802C193.154 70.1832 193.099 71.0462 193.166 72.0114C191.44 72.0114 189.83 72.0114 188.221 72.0114C186.635 72.0114 185.049 72.0114 183.394 72.0114V72.0114ZM189.777 69.5592C189.553 67.9647 188.281 67.2031 186.135 67.303C184.599 67.3753 183.558 68.2452 183.481 69.5592C185.564 69.5592 187.645 69.5592 189.777 69.5592Z" fill="black"/>
<path d="M165.646 64.3271C169.449 64.4778 172.273 66.8354 172.557 70.5056C172.751 73.0092 171.645 75.0195 169.432 76.3697C166.899 77.9159 162.882 77.5024 160.738 75.4383C157.522 72.3437 158.505 66.8838 162.624 65.1694C163.582 64.7705 164.636 64.6023 165.646 64.3271V64.3271ZM169.103 70.9275C169.097 68.8449 167.762 67.4663 165.742 67.4817C163.476 67.4986 162.293 68.9533 162.218 70.9359C162.144 72.8402 163.785 74.3694 165.706 74.3556C167.757 74.3402 169.11 72.9754 169.103 70.9275V70.9275Z" fill="black"/>
<path d="M174.552 64.5166C175.717 64.5166 176.743 64.5166 177.908 64.5166C177.908 64.8009 177.908 65.0783 177.908 65.3565C177.908 69.9888 177.91 74.6211 177.906 79.2541C177.904 81.5918 176.535 82.9512 174.188 82.9589C173.283 82.9627 172.378 82.9597 171.375 82.9597C171.375 82.4102 171.375 81.9499 171.375 81.4896C171.375 81.0255 171.375 80.5605 171.375 79.9327C171.982 79.9327 172.53 79.9542 173.075 79.9281C174.317 79.8682 174.552 79.6161 174.552 78.3973C174.552 74.1162 174.552 69.8359 174.552 65.5548C174.552 65.2382 174.552 64.9216 174.552 64.5166Z" fill="black"/>
<path d="M122.265 71.8177C122.011 69.9426 124.397 67.6849 126.424 67.8171C128.666 67.9638 130.524 69.7067 130.509 71.936C130.495 74.1584 128.558 76.1218 126.325 76.0627C124.092 76.0035 122.133 74.2422 122.265 71.8177V71.8177Z" fill="#00AA11"/>
<path d="M44.6221 66.0684H48.0873C49.9727 66.0684 51.0894 67.1288 51.0894 68.8279C51.0894 70.5531 49.9858 71.5621 48.0873 71.5621H45.6747V75.0125H44.6221V66.0684ZM48.0224 70.5662C49.3954 70.5662 50.0244 70.0167 50.0244 68.8279C50.0244 67.6399 49.3699 67.0651 48.0224 67.0651H45.6747V70.5662H48.0224Z" fill="black"/>
<path d="M54.8118 68.0479C56.7365 68.0479 58.02 69.4918 58.02 71.6258C58.02 73.7591 56.7365 75.203 54.8118 75.203C52.9001 75.203 51.6167 73.7591 51.6167 71.6258C51.6167 69.4918 52.9001 68.0479 54.8118 68.0479ZM54.8118 68.9808C53.4643 68.9808 52.6177 70.0028 52.6177 71.6258C52.6177 73.248 53.4643 74.2709 54.8118 74.2709C56.1593 74.2709 57.019 73.248 57.019 71.6258C57.019 70.0028 56.1593 68.9808 54.8118 68.9808Z" fill="black"/>
<path d="M58.6631 68.2393H59.6509L60.8826 73.504H60.9089L62.731 68.2393H63.6417L65.4638 73.504H65.4892L66.7217 68.2393H67.7096L66.0804 75.0117H65.1304L63.2056 69.4788H63.1802L61.2423 75.0117H60.2923L58.6631 68.2393Z" fill="black"/>
<path d="M71.5089 68.0479C73.331 68.0479 74.5496 69.4149 74.5496 71.4083V71.9194H69.3788C69.4043 73.2227 70.2386 74.2962 71.4834 74.2962C72.4458 74.2962 72.9845 73.9512 73.5617 72.9414L74.396 73.4401C73.8187 74.6028 72.8309 75.203 71.5089 75.203C69.6227 75.203 68.3647 73.7591 68.3647 71.6258C68.3647 69.4918 69.6613 68.0479 71.5089 68.0479V68.0479ZM73.5363 71.114C73.5231 70.4885 73.3186 69.9775 72.9459 69.5686C72.5739 69.159 72.0993 68.9554 71.5089 68.9554C70.3543 68.9554 69.4305 69.9775 69.4043 71.114H73.5363Z" fill="black"/>
<path d="M75.9756 68.2395H76.9249V68.802H76.9503C77.2073 68.3809 77.7074 68.125 78.3619 68.125C78.5672 68.125 78.7987 68.1634 79.0426 68.2272L78.8234 69.2616C78.5803 69.1855 78.3488 69.1471 78.1566 69.1471C77.3478 69.1471 76.9758 69.6842 76.9758 70.9491V75.012H75.9756V68.2395V68.2395Z" fill="black"/>
<path d="M82.6483 68.0479C84.4712 68.0479 85.6898 69.4149 85.6898 71.4083V71.9194H80.5182C80.5437 73.2227 81.3779 74.2962 82.6228 74.2962C83.5852 74.2962 84.1246 73.9512 84.7011 72.9414L85.5354 73.4401C84.9581 74.6028 83.9703 75.203 82.6483 75.203C80.7621 75.203 79.5049 73.7591 79.5049 71.6258C79.5049 69.4918 80.8007 68.0479 82.6483 68.0479ZM84.6764 71.114C84.6633 70.4885 84.458 69.9775 84.086 69.5686C83.7133 69.159 83.2387 68.9554 82.6483 68.9554C81.4937 68.9554 80.5699 69.9775 80.5437 71.114H84.6764V71.114Z" fill="black"/>
<path d="M89.9122 68.0484C90.7334 68.0484 91.465 68.3934 91.915 68.9559H91.9397V65.6846H92.9414V75.0121H91.979V74.3344H91.9528C91.5036 74.8846 90.7465 75.2035 89.9122 75.2035C88.1418 75.2035 86.8584 73.7342 86.8584 71.6263C86.8584 69.5177 88.1418 68.0484 89.9122 68.0484V68.0484ZM91.9397 70.9616C91.9397 69.8627 91.0421 68.9813 89.9122 68.9813C88.6936 68.9813 87.8594 70.0287 87.8594 71.6263C87.8594 73.2232 88.6936 74.2713 89.9771 74.2713C91.0552 74.2713 91.9397 73.3769 91.9397 72.278V70.9616V70.9616Z" fill="black"/>
<path d="M99.0625 74.3344V75.0121H98.1001V65.6846H99.1011V68.9559H99.1265C99.5765 68.3934 100.307 68.0484 101.128 68.0484C102.9 68.0484 104.182 69.5177 104.182 71.6263C104.182 73.7342 102.9 75.2035 101.128 75.2035C100.294 75.2035 99.5371 74.8846 99.0879 74.3344H99.0625V74.3344ZM101.128 68.9813C99.9994 68.9813 99.1011 69.8627 99.1011 70.9616V72.278C99.1011 73.3769 99.9863 74.2713 101.064 74.2713C102.348 74.2713 103.182 73.2232 103.182 71.6263C103.182 70.0287 102.348 68.9813 101.128 68.9813V68.9813Z" fill="black"/>
<path d="M107.135 74.4369L104.518 68.2393H105.583L107.649 73.2865H107.675L109.753 68.2393H110.818L106.738 77.8865H105.698L107.135 74.4369Z" fill="black"/>
<path d="M27.6105 0C42.8542 0 55.2116 11.8743 55.2116 26.5219C55.2116 41.1703 42.8542 53.0446 27.6105 53.0446C12.3676 53.0446 0.0102539 41.1703 0.0102539 26.5219C0.0102539 11.8743 12.3676 0 27.6105 0Z" fill="#00AED6"/>
<path fill-rule="evenodd" clip-rule="evenodd" d="M43.7102 25.7044C43.5003 22.3293 40.5097 19.7412 36.9944 19.8918H19.5604C18.9245 19.8918 18.4098 19.3969 18.4098 18.7867C18.4098 18.1766 18.9245 17.6817 19.5604 17.6817H37.2244C37.121 15.394 35.4956 13.4306 33.1989 12.8196C28.0497 11.9351 22.7779 11.9351 17.628 12.8196C14.7015 13.5105 12.512 15.8504 12.1076 18.7206C11.3027 23.9224 11.3027 29.2109 12.1076 34.4126C12.7242 37.4496 15.2355 39.8003 18.4098 40.3144C24.7945 41.0875 31.2541 41.0875 37.638 40.3144C40.4827 39.7603 42.6351 37.5141 42.9747 34.7446C43.5589 31.7653 43.8051 28.7345 43.7102 25.7044ZM37.9606 29.4176V30.3905C37.9606 31.0007 37.4459 31.4955 36.8107 31.4955C36.1756 31.4955 35.6608 31.0007 35.6608 30.3905V29.4176C35.2888 29.1064 35.0789 28.6538 35.0851 28.1804C35.0851 27.2644 35.8576 26.5221 36.8107 26.5221C37.7631 26.5221 38.5356 27.2644 38.5356 28.1804C38.5302 28.6515 38.3218 29.0995 37.9606 29.4176V29.4176Z" fill="white"/>
<path d="M133.826 23.5391C133.864 18.8884 129.971 15.0891 125.131 15.0522C120.292 15.0161 116.338 18.7562 116.3 23.4069C116.262 28.0577 120.154 31.857 124.994 31.8931C125.04 31.8938 125.086 31.8938 125.131 31.8931C129.723 32.1298 133.645 28.7447 133.891 24.3322C133.906 24.0678 133.907 23.8035 133.894 23.5391H133.826V23.5391ZM107.789 23.5391C107.789 14.698 115.057 7.95703 125.131 7.95703C135.206 7.95703 142.473 14.7425 142.473 23.5391C142.473 32.3357 135.274 39.1427 125.131 39.1427C114.988 39.1427 107.789 32.358 107.789 23.5391Z" fill="black"/>
<path d="M93.9882 25.1515C93.9882 28.7986 90.1248 31.7825 85.2257 31.7825C80.7264 32.219 76.7102 29.0683 76.2556 24.745C76.2093 24.3077 76.2016 23.8666 76.2325 23.4278C76.2325 18.6096 79.9122 15.2944 85.5707 15.2944C90.1704 15.2944 93.9882 18.3222 93.9882 21.748V25.1515V25.1515ZM94.334 7.93409V11.4267C91.534 8.9838 87.8265 7.73198 84.0527 7.95637C75.1289 8.03552 67.9616 15.0516 68.0442 23.6268C68.1267 32.2021 75.4275 39.0891 84.3513 39.0099C88.0257 39.1674 91.602 37.8457 94.2182 35.3628V38.3467C94.2182 42.3911 90.5848 45.3528 85.8007 45.3528C82.1464 45.6064 78.5477 44.3891 75.8644 41.9931L70.2753 47.1656C74.4659 51.1178 80.1623 53.2434 86.0307 53.0443C95.8289 53.0443 102.545 46.723 102.545 38.3022V7.93409H94.334V7.93409Z" fill="black"/>
<path d="M147.534 8.84146H155.768V11.4488H155.883C158.582 9.08429 162.147 7.84476 165.796 8.00153C174.758 8.32582 181.749 15.5693 181.412 24.1815C181.092 32.3379 174.284 38.8799 165.796 39.1872C162.31 39.2648 158.907 38.1613 156.182 36.0704V50.8348H147.603L147.534 8.84146V8.84146ZM164.462 15.295C159.862 15.295 156.112 18.3673 156.112 21.704V25.4395C156.112 28.9982 159.816 31.9376 164.508 31.9376C169.291 32.1743 173.367 28.6409 173.614 24.0455C173.86 19.4493 170.184 15.5317 165.401 15.295C165.103 15.2804 164.806 15.2804 164.508 15.295H164.462V15.295Z" fill="black"/>
<path d="M197.881 20.6873C203.516 19.9573 205.195 19.1842 205.195 17.6811C205.195 15.7361 203.056 14.565 199.744 14.565C196.174 14.2837 192.923 16.5446 192.085 19.8912L183.989 18.2782C185.139 12.2665 191.579 7.97852 199.514 7.97852C208.484 7.97852 214.051 12.3987 214.051 19.56V38.3243H206.346V35.053H206.231C203.616 37.8809 199.784 39.3832 195.858 39.1197C189.072 39.1197 184.357 35.5617 184.357 30.2793C184.357 24.9969 188.221 21.9691 197.881 20.6873V20.6873ZM205.886 23.8034H205.771C205.011 24.8639 203.47 25.4833 199.215 26.1903C194.178 27.0963 192.315 28.0469 192.315 29.7706C192.315 31.495 193.81 32.3349 197.053 32.3349C201.998 32.3349 205.816 30.1248 205.816 27.3176L205.886 23.8034V23.8034Z" fill="black"/>
<path d="M229.577 36.6678L215.385 8.8418H224.838L234.153 28.114H234.291L243.491 8.8418H252.991L231.738 50.8351H222.285L229.577 36.6678Z" fill="black"/>
</svg>
