<svg width="20" height="20" viewBox="0 0 20 20" fill="none" xmlns="http://www.w3.org/2000/svg">
<path fill-rule="evenodd" clip-rule="evenodd" d="M11.6461 1.66693C11.6819 1.66693 11.7169 1.66994 11.7511 1.67573L11.8651 1.67643C12.0351 1.67643 12.1976 1.7456 12.316 1.8681L16.5368 6.2656C16.6485 6.38143 16.7111 6.53726 16.7111 6.6981V14.3364C16.726 16.4273 15.0976 18.1356 13.0035 18.2206L6.32098 18.2214H6.23014C4.18852 18.1753 2.55111 16.5241 2.50123 14.5024L2.50098 5.40893C2.54931 3.34143 4.25681 1.67643 6.30931 1.67643L11.541 1.67573C11.5752 1.66994 11.6103 1.66693 11.6461 1.66693ZM11.021 2.9261L6.31098 2.92643C4.93014 2.92643 3.78348 4.04476 3.75098 5.42393V14.3364C3.72014 15.7639 4.84514 16.9398 6.25848 16.9714H12.9785C14.3693 16.9139 15.471 15.7581 15.461 14.3414L15.461 7.4861L13.7861 7.48693C12.2611 7.48276 11.0211 6.23943 11.0211 4.7161L11.021 2.9261ZM11.4904 12.1737C11.8354 12.1737 12.1154 12.4537 12.1154 12.7987C12.1154 13.1437 11.8354 13.4237 11.4904 13.4237H6.99039C6.64539 13.4237 6.36539 13.1437 6.36539 12.7987C6.36539 12.4537 6.64539 12.1737 6.99039 12.1737H11.4904ZM9.78631 9.04701C10.1313 9.04701 10.4113 9.32701 10.4113 9.67201C10.4113 10.017 10.1313 10.297 9.78631 10.297H6.98964C6.64464 10.297 6.36464 10.017 6.36464 9.67201C6.36464 9.32701 6.64464 9.04701 6.98964 9.04701H9.78631ZM12.271 3.62693L12.2711 4.7161C12.2711 5.55276 12.9519 6.23443 13.7877 6.23693L14.776 6.2361L12.271 3.62693Z" fill="#363636"/>
</svg>
