<svg width="28" height="28" viewBox="0 0 28 28" fill="none" xmlns="http://www.w3.org/2000/svg">
<rect width="28" height="28" rx="8" fill="#F0EEF8"/>
<path d="M14 20.5C15.2685 20.5 16.5078 20.1177 17.5612 19.4025C18.6144 18.6873 19.4342 17.6716 19.9179 16.4848C20.4016 15.2981 20.5281 13.9927 20.2816 12.7334C20.0351 11.4741 19.4264 10.3162 18.5314 9.40666C17.6363 8.49703 16.4948 7.87663 15.251 7.6252C14.007 7.37376 12.7178 7.50289 11.5466 7.99589C10.3754 8.48885 9.37573 9.3231 8.67298 10.3919C7.97029 11.4606 7.5957 12.7162 7.5957 14C7.5957 15.7213 8.26852 17.3738 9.46865 18.5933C10.6691 19.8132 12.2989 20.5 14 20.5Z" fill="#3D2B7F" stroke="#D6CBFF"/>
<path d="M12.8038 16.8519C12.7273 16.8521 12.6516 16.8362 12.5814 16.8052C12.5092 16.7749 12.444 16.7298 12.3897 16.6727L10.6721 14.8415C10.5698 14.7295 10.5148 14.5813 10.5188 14.4285C10.5185 14.351 10.534 14.2743 10.5644 14.2033C10.5947 14.1322 10.6393 14.0683 10.6951 14.0155C10.8029 13.9061 10.9491 13.8446 11.1015 13.8446C11.2539 13.8446 11.4001 13.9061 11.5079 14.0155L12.7961 15.3948L16.4844 11.3116C16.5887 11.1995 16.7315 11.1326 16.8832 11.1246C16.9587 11.1215 17.0341 11.1335 17.105 11.16C17.176 11.1866 17.2411 11.227 17.2967 11.2791C17.3522 11.3312 17.3971 11.394 17.4288 11.4637C17.4605 11.5335 17.4783 11.6089 17.4812 11.6857C17.4885 11.8399 17.4362 11.9908 17.3356 12.1064L13.2332 16.6649C13.18 16.7252 13.1146 16.773 13.0415 16.8052C12.9687 16.8362 12.8905 16.8521 12.8115 16.8519H12.8038Z" fill="white"/>
</svg>
