<svg width="23" height="45" viewBox="0 0 23 45" fill="none" xmlns="http://www.w3.org/2000/svg">
<path d="M3.02841 45H19.9716C20.7755 44.9978 21.5458 44.6644 22.1135 44.0728C22.6812 43.4812 23 42.6798 23 41.8443V3.14743C23 2.73411 22.9217 2.32483 22.7695 1.94296C22.6173 1.5611 22.3942 1.21413 22.113 0.921862C21.8318 0.629595 21.4979 0.397757 21.1305 0.239584C20.7631 0.0814107 20.3693 0 19.9716 0L3.02841 0C2.22523 0 1.45494 0.331603 0.887002 0.921862C0.319064 1.51212 0 2.31268 0 3.14743L0 41.8443C-2.76905e-06 42.6798 0.318807 43.4812 0.886516 44.0728C1.45423 44.6644 2.2245 44.9978 3.02841 45Z" fill="#3A3B3A"/>
<path d="M1.13965 3.44561V41.2479C1.13963 41.8645 1.37422 42.4561 1.79225 42.8937C2.21028 43.3313 2.77783 43.5793 3.37111 43.5836H19.6369C20.2288 43.5771 20.7943 43.3281 21.2106 42.8908C21.6269 42.4535 21.8604 41.8631 21.8604 41.2479V3.44561C21.8604 2.83119 21.6266 2.24169 21.2101 1.80569C20.7936 1.36968 20.228 1.12254 19.6369 1.11816H3.36314C2.77197 1.12254 2.20645 1.36968 1.78992 1.80569C1.37338 2.24169 1.13963 2.83119 1.13965 3.44561Z" fill="white"/>
<path d="M8.09705 2.48494H14.903C15.0349 2.48936 15.1663 2.46673 15.2898 2.41832C15.4132 2.36992 15.5263 2.2967 15.6225 2.20286C15.7188 2.10901 15.7962 1.99638 15.8505 1.87139C15.9049 1.74641 15.9349 1.61152 15.939 1.47445V1.3088C15.9391 1.16891 15.9121 1.03044 15.8597 0.901616C15.8072 0.772789 15.7304 0.656234 15.6338 0.558879C15.5371 0.461524 15.4226 0.385356 15.2971 0.334901C15.1715 0.284446 15.0375 0.260734 14.903 0.265174H8.09705C7.83073 0.265174 7.57532 0.375127 7.38701 0.570844C7.19869 0.766562 7.0929 1.03201 7.0929 1.3088V1.47445C7.10118 1.74545 7.21062 2.00247 7.39804 2.19108C7.58547 2.37969 7.83617 2.48508 8.09705 2.48494Z" fill="#3A3B3A"/>
<path opacity="0.35" d="M17.8278 8.34912H5.17227C4.89749 8.34912 4.63397 8.46256 4.43968 8.66449C4.24538 8.86643 4.13623 9.1403 4.13623 9.42587V14.909C4.13623 15.05 4.16308 15.1897 4.21524 15.3198C4.26741 15.45 4.34385 15.5682 4.44016 15.6675C4.53647 15.7668 4.65074 15.8454 4.77639 15.8986C4.90205 15.9518 5.03659 15.9786 5.17227 15.9775H17.8278C17.9635 15.9786 18.0981 15.9518 18.2237 15.8986C18.3494 15.8454 18.4636 15.7668 18.56 15.6675C18.6563 15.5682 18.7327 15.45 18.7849 15.3198C18.837 15.1897 18.8639 15.05 18.8639 14.909V9.42587C18.8639 9.1403 18.7547 8.86643 18.5604 8.66449C18.3661 8.46256 18.1026 8.34912 17.8278 8.34912Z" fill="#3D2B7F" fill-opacity="0.3"/>
<path d="M8.53532 25.4281V26.422H7.85791V23.4817H8.98958C9.18738 23.478 9.38346 23.5204 9.56339 23.6059C9.72337 23.6805 9.85706 23.805 9.94592 23.9621C10.0421 24.1145 10.0921 24.2934 10.0894 24.4756C10.0963 24.6083 10.0724 24.7408 10.0197 24.8619C9.96699 24.983 9.88702 25.0891 9.78653 25.1713C9.55639 25.348 9.2755 25.4385 8.98958 25.4281H8.53532ZM8.53532 24.8814H8.98958C9.09763 24.8869 9.20345 24.8483 9.28445 24.7738C9.32211 24.7367 9.35159 24.6916 9.37085 24.6416C9.39012 24.5915 9.3987 24.5377 9.39603 24.4839C9.40119 24.3626 9.36123 24.244 9.28445 24.1526C9.24831 24.1113 9.20387 24.0788 9.1543 24.0573C9.10472 24.0358 9.05121 24.0259 8.99755 24.0283H8.53532V24.8814ZM11.7231 25.8754H10.7748L10.6154 26.422H9.88217L10.9262 23.4817H11.5637L12.6157 26.422H11.8825L11.7231 25.8754ZM10.9262 25.3287H11.5319L11.229 24.3017L10.9262 25.3287ZM13.5481 24.7572L14.0741 23.4817H14.8073L13.8988 25.3701V26.422H13.2055V25.3701L12.2969 23.4817H13.0301L13.5481 24.7572Z" fill="#3D2B7F"/>
<path opacity="0.5" d="M11.4999 33.5616C11.9428 33.5616 12.3758 33.4251 12.7441 33.1694C13.1124 32.9136 13.3994 32.5501 13.5689 32.1249C13.7384 31.6996 13.7827 31.2316 13.6963 30.7801C13.6099 30.3286 13.3966 29.9139 13.0834 29.5884C12.7703 29.2629 12.3712 29.0413 11.9368 28.9515C11.5024 28.8617 11.0521 28.9077 10.6429 29.0839C10.2337 29.2601 9.88398 29.5584 9.63791 29.9411C9.39184 30.3239 9.2605 30.7739 9.2605 31.2342C9.2605 31.8515 9.49644 32.4435 9.91641 32.8799C10.3364 33.3164 10.906 33.5616 11.4999 33.5616Z" fill="#3D2B7F" fill-opacity="0.7"/>
<path opacity="0.5" d="M11.5 32.9322C11.8153 32.9322 12.1234 32.8351 12.3856 32.6531C12.6477 32.471 12.852 32.2123 12.9726 31.9096C13.0932 31.6069 13.1248 31.2738 13.0633 30.9525C13.0018 30.6312 12.85 30.336 12.6271 30.1043C12.4042 29.8727 12.1202 29.7149 11.811 29.651C11.5018 29.5871 11.1813 29.6199 10.8901 29.7452C10.5988 29.8706 10.3499 30.0829 10.1747 30.3554C9.99961 30.6278 9.90613 30.9481 9.90613 31.2757C9.90613 31.715 10.0741 32.1364 10.373 32.447C10.6719 32.7577 11.0773 32.9322 11.5 32.9322Z" fill="#3D2B7F"/>
</svg>
