<svg width="74" height="74" viewBox="0 0 74 74" fill="none" xmlns="http://www.w3.org/2000/svg">
<path d="M25.5098 37.6301C28.0985 42.8146 31.0491 47.8103 34.3398 52.5801C36.1098 55.0001 37.8898 57.0001 39.4098 57.8401C40.9037 58.7213 42.1924 59.9111 43.1898 61.3301C44.9586 63.8214 46.3097 66.5843 47.1898 69.5101L58.5098 52.1301C58.5098 52.1301 58.1198 35.1301 56.7598 32.2901C54.7598 28.1501 53.8098 19.7801 53.0398 18.1101C52.4698 16.8801 50.8498 10.4901 50.6998 10.0201C50.5366 9.83854 50.333 9.69779 50.1055 9.60921C49.8779 9.52063 49.6328 9.4867 49.3898 9.51013C48.9543 9.55972 48.5472 9.75099 48.231 10.0545C47.9148 10.3581 47.7071 10.757 47.6398 11.1901C46.903 14.3648 46.9821 17.6743 47.8698 20.8101C47.4398 25.1901 48.7298 28.4401 47.8698 29.3001C47.8698 29.3001 47.7798 29.3001 47.6898 29.3001C46.1198 28.3001 36.3898 13.9501 35.1898 13.6401C33.9898 13.3301 25.5098 37.6301 25.5098 37.6301Z" fill="#FAB17E"/>
<path d="M15.0801 7.74017L18.6301 13.0002L22.1201 18.1702C22.2018 18.2822 22.311 18.3714 22.437 18.4292C22.5631 18.487 22.7019 18.5114 22.8401 18.5002C23.6801 18.4202 24.7201 17.1902 25.5201 16.5002L25.6001 16.4302C26.1143 15.9972 26.4376 15.3794 26.5001 14.7102C26.5608 14.0411 26.3601 13.3745 25.9401 12.8502L20.6101 6.36017L19.0001 4.43017C18.792 4.17407 18.5352 3.96187 18.2444 3.80592C17.9536 3.64996 17.6347 3.55336 17.3062 3.52172C16.9778 3.49009 16.6463 3.52405 16.3311 3.62164C16.0159 3.71922 15.7232 3.87849 15.4701 4.09017L15.3901 4.16017C14.8759 4.59312 14.5527 5.21092 14.4901 5.88017C14.4295 6.54924 14.6302 7.2158 15.0501 7.74017H15.0801Z" fill="#FAB17E"/>
<path d="M18.5098 13.0698L22.6498 18.1898C22.76 18.3041 22.8945 18.3923 23.0433 18.4476C23.1922 18.503 23.3516 18.5243 23.5098 18.5098L20.8598 6.50977C20.8498 6.57977 20.3998 11.9998 18.5098 13.0698Z" fill="#EFA26F"/>
<path d="M24.0698 54.5098H43.9998C44.4681 54.5098 44.9319 54.4174 45.3644 54.2378C45.797 54.0583 46.1899 53.7952 46.5206 53.4635C46.8513 53.1319 47.1133 52.7383 47.2917 52.3052C47.47 51.8721 47.5611 51.4081 47.5598 50.9398V7.07977C47.5611 6.61142 47.47 6.14742 47.2917 5.71434C47.1133 5.28127 46.8513 4.88764 46.5206 4.556C46.1899 4.22436 45.797 3.96124 45.3644 3.78171C44.9319 3.60218 44.4681 3.50976 43.9998 3.50977H24.0698C23.6014 3.50976 23.1377 3.60218 22.7051 3.78171C22.2725 3.96124 21.8796 4.22436 21.5489 4.556C21.2182 4.88764 20.9562 5.28127 20.7779 5.71434C20.5996 6.14742 20.5085 6.61142 20.5098 7.07977V50.9398C20.5085 51.4081 20.5996 51.8721 20.7779 52.3052C20.9562 52.7383 21.2182 53.1319 21.5489 53.4635C21.8796 53.7952 22.2725 54.0583 22.7051 54.2378C23.1377 54.4174 23.6014 54.5098 24.0698 54.5098Z" fill="#3A3B3A"/>
<path d="M21.5098 7.14984V49.8798C21.5203 50.5845 21.809 51.2564 22.3129 51.7491C22.8168 52.2417 23.4951 52.5152 24.1998 52.5098H43.8198C44.5245 52.5152 45.2027 52.2417 45.7066 51.7491C46.2105 51.2564 46.4992 50.5845 46.5098 49.8798V7.14984C46.5018 6.44345 46.2143 5.76898 45.7101 5.27416C45.2059 4.77934 44.5262 4.50451 43.8198 4.50984H24.1998C23.4933 4.50451 22.8136 4.77934 22.3094 5.27416C21.8052 5.76898 21.5177 6.44345 21.5098 7.14984Z" fill="#468FCD"/>
<path d="M29.7702 6.50977H38.2502C38.6013 6.49164 38.931 6.33525 39.1671 6.07478C39.4032 5.8143 39.5266 5.47095 39.5102 5.11977V4.89977C39.5266 4.54859 39.4032 4.20523 39.1671 3.94475C38.931 3.68428 38.6013 3.52789 38.2502 3.50977H29.7702C29.4191 3.52789 29.0895 3.68428 28.8534 3.94475C28.6173 4.20523 28.4939 4.54859 28.5102 4.89977V5.11977C28.4939 5.47095 28.6173 5.8143 28.8534 6.07478C29.0895 6.33525 29.4191 6.49164 29.7702 6.50977Z" fill="#3A3B3A"/>
<path d="M17.0701 26.9399L17.6101 27.1299L21.1701 28.3699L21.4201 28.4399C22.0005 28.577 22.6103 28.5136 23.1501 28.2599C23.6671 28.0236 24.0772 27.6028 24.3001 27.0799L24.3501 26.9499C24.4632 26.6793 24.5173 26.3876 24.5087 26.0945C24.5001 25.8013 24.4289 25.5133 24.3001 25.2499C24.0317 24.7084 23.5667 24.2899 23.0001 24.0799L19.6701 22.9199L19.4301 22.8399L18.9001 22.6499C18.2958 22.4495 17.64 22.4708 17.0501 22.7099C16.7661 22.8203 16.5069 22.9859 16.2872 23.197C16.0675 23.4081 15.8918 23.6606 15.7701 23.9399L15.7201 24.0699C15.6069 24.3405 15.5528 24.6321 15.5614 24.9253C15.5701 25.2184 15.6412 25.5064 15.7701 25.7699C16.0502 26.321 16.5347 26.7409 17.1201 26.9399H17.0701Z" fill="#FAB17E"/>
<path d="M18.6701 32.5599L21.4301 33.4499C21.6312 33.5134 21.8443 33.5293 22.0525 33.4964C22.2608 33.4634 22.4585 33.3824 22.6301 33.2599C23.0104 32.99 23.2747 32.5864 23.3701 32.1299L23.4601 31.7599C23.564 31.2818 23.5078 30.7829 23.3001 30.3399C23.112 29.9327 22.7705 29.6164 22.3501 29.4599L19.5901 28.5699C19.3888 28.5087 19.1761 28.494 18.9683 28.5269C18.7604 28.5598 18.5627 28.6395 18.3901 28.7599C18.012 29.0319 17.7483 29.4346 17.6501 29.8899L17.5601 30.2599C17.4563 30.738 17.5125 31.237 17.7201 31.6799C17.819 31.8864 17.9585 32.0707 18.1303 32.2219C18.3022 32.3732 18.5028 32.4881 18.7201 32.5599H18.6701Z" fill="#FAB17E"/>
<path d="M17.3599 22.4802H17.4199L20.7999 23.3902C21.5013 23.5892 22.2528 23.5047 22.8925 23.155C23.5322 22.8052 24.0089 22.2181 24.2199 21.5202L24.4199 20.7802C24.5905 20.1045 24.4973 19.3892 24.1592 18.7799C23.8211 18.1706 23.2635 17.7129 22.5999 17.5002L21.4899 17.2002L19.2199 16.5902C18.5172 16.3915 17.7645 16.4774 17.1246 16.8292C16.4846 17.181 16.0088 17.7704 15.7999 18.4702L15.5999 19.2002C15.4239 19.8681 15.5076 20.578 15.8342 21.1866C16.1608 21.7953 16.706 22.2575 17.3599 22.4802Z" fill="#FAB17E"/>
<path d="M47.5098 40.5098C47.5098 40.5098 48.1798 33.6598 48.7998 32.3198C49.2256 31.3816 49.4617 30.3685 49.4943 29.3387C49.5269 28.309 49.3554 27.283 48.9898 26.3198C48.3009 24.4503 47.8703 22.4956 47.7098 20.5098C47.3398 24.8798 48.4498 28.1198 47.7098 28.9798C47.7098 28.9798 47.6298 28.9798 47.5498 28.9798L47.5098 40.5098Z" fill="#EFA26F"/>
<path fill-rule="evenodd" clip-rule="evenodd" d="M27.7899 22.2002C27.4002 22.2329 27.0236 22.3562 26.6899 22.5602C26.3552 22.7696 26.0771 23.0581 25.8799 23.4002C25.6073 23.8508 25.4815 24.375 25.5199 24.9002C25.5548 25.2823 25.6781 25.6511 25.8803 25.9772C26.0824 26.3033 26.3577 26.5779 26.6844 26.7791C27.0111 26.9803 27.3802 27.1027 27.7624 27.1364C28.1446 27.1702 28.5294 27.1145 28.8863 26.9736C29.2432 26.8328 29.5624 26.6108 29.8186 26.3251C30.0748 26.0395 30.2609 25.6981 30.3621 25.328C30.4634 24.958 30.4771 24.5694 30.4021 24.1931C30.3271 23.8168 30.1654 23.4632 29.9299 23.1602C29.8404 23.0412 29.7399 22.9307 29.6299 22.8302C29.405 22.6292 29.1481 22.467 28.8699 22.3502C28.5256 22.2204 28.1566 22.1692 27.7899 22.2002Z" fill="white"/>
<path fill-rule="evenodd" clip-rule="evenodd" d="M26.5601 23.9998C26.5601 24.0898 26.5601 25.0998 26.5601 25.2898C26.5601 25.4798 26.5601 25.5598 26.8401 25.6598C27.6801 25.9498 28.5101 24.9798 29.3501 25.4598C29.3501 25.4598 29.4301 25.5298 29.4501 25.4598V24.1598C29.4501 24.0198 29.4501 23.9798 29.3601 23.9098C28.6201 23.3898 27.8101 24.2798 27.0501 24.1798C26.7701 24.1798 26.6501 23.9998 26.5701 24.0098L26.5601 23.9998Z" fill="#468FCD"/>
<path fill-rule="evenodd" clip-rule="evenodd" d="M32.3398 26.0002C32.6576 25.9832 32.9573 25.8476 33.1798 25.6202C33.353 25.4471 33.472 25.2272 33.5222 24.9875C33.5724 24.7479 33.5517 24.4988 33.4626 24.2707C33.3735 24.0426 33.2198 23.8454 33.0204 23.7032C32.821 23.5611 32.5845 23.4801 32.3398 23.4702H31.3398V26.0002H32.3398ZM31.9198 25.4502C32.0663 25.4602 32.2133 25.4602 32.3598 25.4502C32.5032 25.4297 32.6373 25.367 32.7449 25.27C32.8525 25.1731 32.9289 25.0464 32.9643 24.9059C32.9996 24.7655 32.9924 24.6177 32.9436 24.4813C32.8947 24.345 32.8064 24.2262 32.6898 24.1402C32.5939 24.0741 32.4847 24.0297 32.3698 24.0102H31.9198V25.4502Z" fill="white"/>
<path fill-rule="evenodd" clip-rule="evenodd" d="M40.6099 25.9998H41.1399V25.4598H42.2099V25.9998H42.7499V25.0998C42.7853 24.8143 42.7853 24.5254 42.7499 24.2398C42.6898 24.0183 42.5601 23.822 42.3799 23.6798C42.1919 23.5397 41.9643 23.4627 41.7299 23.4598C41.4987 23.4537 41.2725 23.5279 41.0899 23.6698C40.9038 23.8104 40.7672 24.0065 40.6999 24.2298C40.6645 24.5154 40.6645 24.8042 40.6999 25.0898C40.6999 25.3898 40.6999 25.6998 40.6999 25.9998H40.6099ZM41.1399 24.9098H42.2099C42.2443 24.6941 42.2201 24.473 42.1399 24.2698C42.0915 24.1896 42.0224 24.124 41.9399 24.0798C41.8608 24.0342 41.7711 24.0102 41.6799 24.0102C41.5886 24.0102 41.4989 24.0342 41.4199 24.0798C41.3373 24.124 41.2682 24.1896 41.2199 24.2698C41.1407 24.4733 41.1132 24.6932 41.1399 24.9098Z" fill="white"/>
<path fill-rule="evenodd" clip-rule="evenodd" d="M34.46 26H35C34.99 25.8202 34.99 25.6399 35 25.46H36.06V26H36.59V25.1C36.6255 24.8145 36.6255 24.5256 36.59 24.24C36.5259 24.0178 36.3928 23.8217 36.21 23.68C36.0268 23.5381 35.8017 23.4607 35.57 23.46C35.3362 23.4571 35.1079 23.5309 34.92 23.67C34.7371 23.8117 34.604 24.0078 34.54 24.23C34.4996 24.5153 34.4996 24.8048 34.54 25.09C34.54 25.39 34.54 25.7 34.54 26H34.46ZM35 24.89H36.07C36.0962 24.6734 36.0687 24.4536 35.99 24.25C35.9452 24.1706 35.8794 24.1049 35.8 24.06C35.718 24.0126 35.6247 23.9884 35.53 23.99C35.4384 23.9881 35.3482 24.0124 35.27 24.06C35.1884 24.102 35.1219 24.1684 35.08 24.25C34.9917 24.4511 34.9639 24.6735 35 24.89Z" fill="white"/>
<path fill-rule="evenodd" clip-rule="evenodd" d="M37.5501 24.4298V24.8098C37.5501 25.1298 37.5501 25.7198 37.5501 25.9698H38.0701C38.0701 25.7898 38.0701 24.5098 38.0701 24.4698C38.0849 24.3398 38.1472 24.22 38.2451 24.1332C38.3429 24.0465 38.4693 23.9989 38.6001 23.9998C38.7365 23.9989 38.8684 24.0488 38.9701 24.1398C39.0656 24.228 39.123 24.3499 39.1301 24.4798C39.1301 24.4798 39.1301 25.8298 39.1301 25.9798H39.6501V24.4398C39.6444 24.2998 39.6068 24.163 39.5401 24.0398C39.4474 23.8553 39.3041 23.701 39.1271 23.5948C38.9501 23.4886 38.7465 23.4348 38.5401 23.4398C38.3425 23.4418 38.149 23.4971 37.9801 23.5998C37.8067 23.6998 37.6674 23.8496 37.5801 24.0298C37.5395 24.159 37.5292 24.2959 37.5501 24.4298Z" fill="white"/>
<path fill-rule="evenodd" clip-rule="evenodd" d="M32.3398 26.0001H31.3998V23.4501H32.3398C32.1835 23.4346 32.0261 23.4346 31.8698 23.4501C31.7398 23.4501 31.5198 23.4501 31.3898 23.4501C31.2598 23.4501 31.3898 25.9201 31.3898 25.9901H32.3898L32.3398 26.0001Z" fill="#7BBBE7"/>
<path fill-rule="evenodd" clip-rule="evenodd" d="M39.1299 24.4699C39.1299 24.6799 39.1299 25.9099 39.1299 25.9799H39.6699C39.6699 25.9199 39.6699 24.9799 39.6699 24.8199C39.6853 24.6937 39.6853 24.5661 39.6699 24.4399V25.9999H39.1499C39.1399 25.8199 39.1599 24.4799 39.1299 24.4699Z" fill="#7BBBE7"/>
<path fill-rule="evenodd" clip-rule="evenodd" d="M38.0799 24.4699C38.0799 24.4699 38.0799 25.7899 38.0799 25.9699H37.5599C37.5599 25.7199 37.5599 25.1299 37.5599 24.8099V24.4399C37.5438 24.693 37.5438 24.9469 37.5599 25.1999C37.5599 25.3299 37.5599 25.9099 37.5599 25.9799H38.0899V24.4699H38.0799Z" fill="#7BBBE7"/>
</svg>
