<svg width="57" height="69" viewBox="0 0 57 69" fill="none" xmlns="http://www.w3.org/2000/svg">
<path d="M29.1 54.2C44.0669 54.2 56.2 42.0669 56.2 27.1C56.2 12.1331 44.0669 0 29.1 0C14.1331 0 2 12.1331 2 27.1C2 42.0669 14.1331 54.2 29.1 54.2Z" fill="#468FCD"/>
<path d="M24.6002 17.8999H22.1002C20.8002 17.8999 19.7002 18.9999 19.7002 20.2999V22.7999C19.7002 24.0999 20.8002 25.1999 22.1002 25.1999H24.6002C25.9002 25.1999 27.0002 24.0999 27.0002 22.7999V20.2999C27.0002 18.9999 26.0002 17.8999 24.6002 17.8999ZM23.4002 22.6999C22.8002 22.6999 22.3002 22.1999 22.3002 21.5999C22.3002 20.9999 22.8002 20.4999 23.4002 20.4999C24.0002 20.4999 24.5002 20.9999 24.5002 21.5999C24.5002 22.1999 24.0002 22.6999 23.4002 22.6999Z" fill="#FAFAF9"/>
<path d="M36.1002 17.8999H33.6002C32.3002 17.8999 31.2002 18.9999 31.2002 20.2999V22.7999C31.2002 24.0999 32.3002 25.1999 33.6002 25.1999H36.1002C37.4002 25.1999 38.5002 24.0999 38.5002 22.7999V20.2999C38.5002 18.9999 37.4002 17.8999 36.1002 17.8999ZM34.8002 22.6999C34.2002 22.6999 33.7002 22.1999 33.7002 21.5999C33.7002 20.9999 34.2002 20.4999 34.8002 20.4999C35.4002 20.4999 35.9002 20.9999 35.9002 21.5999C35.9002 22.1999 35.4002 22.6999 34.8002 22.6999Z" fill="#FAFAF9"/>
<path d="M24.6002 28.8999H22.1002C20.8002 28.8999 19.7002 29.9999 19.7002 31.2999V33.7999C19.7002 35.0999 20.8002 36.1999 22.1002 36.1999H24.6002C25.9002 36.1999 27.0002 35.0999 27.0002 33.7999V31.2999C27.0002 29.8999 26.0002 28.8999 24.6002 28.8999ZM23.4002 33.5999C22.8002 33.5999 22.3002 33.0999 22.3002 32.4999C22.3002 31.8999 22.8002 31.3999 23.4002 31.3999C24.0002 31.3999 24.5002 31.8999 24.5002 32.4999C24.5002 33.0999 24.0002 33.5999 23.4002 33.5999Z" fill="#FAFAF9"/>
<path d="M36.1002 28.8999H33.6002C32.3002 28.8999 31.2002 29.9999 31.2002 31.2999V33.7999C31.2002 35.0999 32.3002 36.1999 33.6002 36.1999H36.1002C37.4002 36.1999 38.5002 35.0999 38.5002 33.7999V31.2999C38.5002 29.8999 37.4002 28.8999 36.1002 28.8999ZM34.8002 33.5999C34.2002 33.5999 33.7002 33.0999 33.7002 32.4999C33.7002 31.8999 34.2002 31.3999 34.8002 31.3999C35.4002 31.3999 35.9002 31.8999 35.9002 32.4999C35.9002 33.0999 35.4002 33.5999 34.8002 33.5999Z" fill="#FAFAF9"/>
<path d="M27.2002 27.6001C27.1002 27.6001 27.0002 27.6001 26.9002 27.6001H20.8002C20.5002 27.6001 20.2002 27.3001 20.2002 27.0001C20.2002 26.7001 20.5002 26.4001 20.8002 26.4001H26.9002C26.9002 26.4001 26.9002 26.4001 27.0002 26.4001C27.2002 26.4001 27.9002 26.4001 28.2002 26.1001C28.5002 25.8001 28.5002 25.2001 28.5002 25.0001V18.7001C28.5002 18.4001 28.8002 18.1001 29.1002 18.1001C29.4002 18.1001 29.7002 18.4001 29.7002 18.7001V25.0001C29.7002 25.1001 29.7002 26.2001 29.1002 26.9001C28.5002 27.6001 27.7002 27.6001 27.2002 27.6001Z" fill="#FAFAF9"/>
<path d="M29.1 35.9001C28.8 35.9001 28.5 35.6001 28.5 35.3001V28.7001C28.5 28.4001 28.8 28.1001 29.1 28.1001C29.4 28.1001 29.7 28.4001 29.7 28.7001V35.3001C29.7 35.6001 29.4 35.9001 29.1 35.9001Z" fill="#FAFAF9"/>
<path d="M33.8001 27.5999H30.9001C30.8001 27.5999 30.6001 27.2999 30.6001 26.9999C30.6001 26.6999 30.7001 26.3999 30.9001 26.3999H33.8001C33.9001 26.3999 34.1001 26.6999 34.1001 26.9999C34.1001 27.2999 33.9001 27.5999 33.8001 27.5999Z" fill="#FAFAF9"/>
<path d="M38.1 27.5999H35.3C35.2 27.5999 35 27.2999 35 26.9999C35 26.6999 35.1 26.3999 35.3 26.3999H38.1C38.2 26.3999 38.4 26.6999 38.4 26.9999C38.4 27.2999 38.2 27.5999 38.1 27.5999Z" fill="#FAFAF9"/>
<path d="M29.01 55.7969C29.0128 56.0751 28.9894 56.353 28.94 56.6269C28.85 57.0469 28.28 58.8769 27.58 61.0069C26.58 63.9569 25.41 67.4869 24.84 68.7269H0C0.92 62.2569 2.3 53.0369 2.86 51.8269C3.07014 51.4406 3.3558 51.1005 3.7 50.8269C4.6087 50.0956 5.58281 49.4495 6.61 48.8969C8.02 48.1169 9.83 47.2469 9.83 47.1369C10.12 46.8169 12.46 44.6269 13.54 43.6169C13.8895 43.2839 14.3477 43.0885 14.83 43.0669L17.88 42.9469C17.88 42.9469 20.49 38.5169 21.43 37.1169C21.61 36.8669 22.26 36.0069 22.96 35.1169L24.12 33.5969L25.05 32.3869C25.1265 32.2685 25.2291 32.1693 25.35 32.0969C25.4258 32.0567 25.5065 32.0265 25.59 32.0069C25.6328 31.9977 25.6772 31.9977 25.72 32.0069H25.86C26.169 31.9824 26.4765 32.0699 26.7263 32.2536C26.976 32.4372 27.1513 32.7046 27.22 33.0069C27.352 33.5929 27.352 34.2009 27.22 34.7869C27.22 34.9669 27.16 35.1469 27.11 35.3369C26.9108 36.1526 26.6397 36.949 26.3 37.7169C25.8271 38.8244 25.2826 39.9 24.67 40.9369L24.09 42.4869L22.98 45.5169L20.17 53.0369V59.9169C20.41 59.6469 24.17 55.3069 24.45 54.3169C24.64 53.7069 25.01 51.4269 25.52 49.5169C25.65 49.0169 25.8 48.5169 25.95 48.1369C26.0881 47.6296 26.3571 47.1675 26.73 46.7969C27.0086 46.5489 27.3511 46.3837 27.7186 46.3201C28.0862 46.2565 28.4642 46.297 28.81 46.4369V46.5169C28.81 46.7469 28.81 47.3469 28.87 48.1469C28.87 48.4669 28.87 48.8169 28.87 49.1469C28.8648 49.2402 28.8648 49.3336 28.87 49.4269C28.99 51.6969 29.06 54.3969 29.01 55.7969Z" fill="#FAB17E"/>
</svg>
