<svg width="74" height="74" viewBox="0 0 74 74" fill="none" xmlns="http://www.w3.org/2000/svg">
<path d="M25.5098 37.6301C28.0985 42.8146 31.0491 47.8103 34.3398 52.5801C36.1098 55.0001 37.8898 57.0001 39.4098 57.8401C40.9037 58.7213 42.1924 59.9111 43.1898 61.3301C44.9586 63.8214 46.3097 66.5843 47.1898 69.5101L58.5098 52.1301C58.5098 52.1301 58.1198 35.1301 56.7598 32.2901C54.7598 28.1501 53.8098 19.7801 53.0398 18.1101C52.4698 16.8801 50.8498 10.4901 50.6998 10.0201C50.5366 9.83854 50.333 9.69779 50.1055 9.60921C49.8779 9.52063 49.6328 9.4867 49.3898 9.51013C48.9543 9.55972 48.5472 9.75099 48.231 10.0545C47.9148 10.3581 47.7071 10.757 47.6398 11.1901C46.903 14.3648 46.9821 17.6743 47.8698 20.8101C47.4398 25.1901 48.7298 28.4401 47.8698 29.3001C47.8698 29.3001 47.7798 29.3001 47.6898 29.3001C46.1198 28.3001 36.3898 13.9501 35.1898 13.6401C33.9898 13.3301 25.5098 37.6301 25.5098 37.6301Z" fill="#FAB17E"/>
<path d="M15.0801 7.74017L18.6301 13.0002L22.1201 18.1702C22.2018 18.2822 22.311 18.3714 22.437 18.4292C22.5631 18.487 22.7019 18.5114 22.8401 18.5002C23.6801 18.4202 24.7201 17.1902 25.5201 16.5002L25.6001 16.4302C26.1143 15.9972 26.4376 15.3794 26.5001 14.7102C26.5608 14.0411 26.3601 13.3745 25.9401 12.8502L20.6101 6.36017L19.0001 4.43017C18.792 4.17407 18.5352 3.96187 18.2444 3.80592C17.9536 3.64996 17.6347 3.55336 17.3062 3.52172C16.9778 3.49009 16.6463 3.52405 16.3311 3.62164C16.0159 3.71922 15.7232 3.87849 15.4701 4.09017L15.3901 4.16017C14.8759 4.59312 14.5527 5.21092 14.4901 5.88017C14.4295 6.54924 14.6302 7.2158 15.0501 7.74017H15.0801Z" fill="#FAB17E"/>
<path d="M18.5098 13.0698L22.6498 18.1898C22.76 18.3041 22.8945 18.3923 23.0433 18.4476C23.1922 18.503 23.3516 18.5243 23.5098 18.5098L20.8598 6.50977C20.8498 6.57977 20.3998 11.9998 18.5098 13.0698Z" fill="#EFA26F"/>
<path d="M24.0698 54.5098H43.9998C44.4681 54.5098 44.9319 54.4174 45.3644 54.2378C45.797 54.0583 46.1899 53.7952 46.5206 53.4635C46.8513 53.1319 47.1133 52.7383 47.2917 52.3052C47.47 51.8721 47.5611 51.4081 47.5598 50.9398V7.07977C47.5611 6.61142 47.47 6.14742 47.2917 5.71434C47.1133 5.28127 46.8513 4.88764 46.5206 4.556C46.1899 4.22436 45.797 3.96124 45.3644 3.78171C44.9319 3.60218 44.4681 3.50976 43.9998 3.50977H24.0698C23.6014 3.50976 23.1377 3.60218 22.7051 3.78171C22.2725 3.96124 21.8796 4.22436 21.5489 4.556C21.2182 4.88764 20.9562 5.28127 20.7779 5.71434C20.5996 6.14742 20.5085 6.61142 20.5098 7.07977V50.9398C20.5085 51.4081 20.5996 51.8721 20.7779 52.3052C20.9562 52.7383 21.2182 53.1319 21.5489 53.4635C21.8796 53.7952 22.2725 54.0583 22.7051 54.2378C23.1377 54.4174 23.6014 54.5098 24.0698 54.5098Z" fill="#3A3B3A"/>
<path d="M21.5098 7.14984V49.8798C21.5203 50.5845 21.809 51.2564 22.3129 51.7491C22.8168 52.2417 23.4951 52.5152 24.1998 52.5098H43.8198C44.5245 52.5152 45.2027 52.2417 45.7066 51.7491C46.2105 51.2564 46.4992 50.5845 46.5098 49.8798V7.14984C46.5018 6.44345 46.2143 5.76898 45.7101 5.27416C45.2059 4.77934 44.5262 4.50451 43.8198 4.50984H24.1998C23.4933 4.50451 22.8136 4.77934 22.3094 5.27416C21.8052 5.76898 21.5177 6.44345 21.5098 7.14984Z" fill="#4BC6DF"/>
<path d="M29.7702 6.50977H38.2502C38.6013 6.49164 38.931 6.33525 39.1671 6.07478C39.4032 5.8143 39.5266 5.47095 39.5102 5.11977V4.89977C39.5266 4.54859 39.4032 4.20523 39.1671 3.94475C38.931 3.68428 38.6013 3.52789 38.2502 3.50977H29.7702C29.4191 3.52789 29.0895 3.68428 28.8534 3.94475C28.6173 4.20523 28.4939 4.54859 28.5102 4.89977V5.11977C28.4939 5.47095 28.6173 5.8143 28.8534 6.07478C29.0895 6.33525 29.4191 6.49164 29.7702 6.50977Z" fill="#3A3B3A"/>
<path d="M17.0701 26.9399L17.6101 27.1299L21.1701 28.3699L21.4201 28.4399C22.0005 28.577 22.6103 28.5136 23.1501 28.2599C23.6671 28.0236 24.0772 27.6028 24.3001 27.0799L24.3501 26.9499C24.4632 26.6793 24.5173 26.3876 24.5087 26.0945C24.5001 25.8013 24.4289 25.5133 24.3001 25.2499C24.0317 24.7084 23.5667 24.2899 23.0001 24.0799L19.6701 22.9199L19.4301 22.8399L18.9001 22.6499C18.2958 22.4495 17.64 22.4708 17.0501 22.7099C16.7661 22.8203 16.5069 22.9859 16.2872 23.197C16.0675 23.4081 15.8918 23.6606 15.7701 23.9399L15.7201 24.0699C15.6069 24.3405 15.5528 24.6321 15.5614 24.9253C15.5701 25.2184 15.6412 25.5064 15.7701 25.7699C16.0502 26.321 16.5347 26.7409 17.1201 26.9399H17.0701Z" fill="#FAB17E"/>
<path d="M18.6701 32.5599L21.4301 33.4499C21.6312 33.5134 21.8443 33.5293 22.0525 33.4964C22.2608 33.4634 22.4585 33.3824 22.6301 33.2599C23.0104 32.99 23.2747 32.5864 23.3701 32.1299L23.4601 31.7599C23.564 31.2818 23.5078 30.7829 23.3001 30.3399C23.112 29.9327 22.7705 29.6164 22.3501 29.4599L19.5901 28.5699C19.3888 28.5087 19.1761 28.494 18.9683 28.5269C18.7604 28.5598 18.5627 28.6395 18.3901 28.7599C18.012 29.0319 17.7483 29.4346 17.6501 29.8899L17.5601 30.2599C17.4563 30.738 17.5125 31.237 17.7201 31.6799C17.819 31.8864 17.9585 32.0707 18.1303 32.2219C18.3022 32.3732 18.5028 32.4881 18.7201 32.5599H18.6701Z" fill="#FAB17E"/>
<path d="M17.3599 22.4802H17.4199L20.7999 23.3902C21.5013 23.5892 22.2528 23.5047 22.8925 23.155C23.5322 22.8052 24.0089 22.2181 24.2199 21.5202L24.4199 20.7802C24.5905 20.1045 24.4973 19.3892 24.1592 18.7799C23.8211 18.1706 23.2635 17.7129 22.5999 17.5002L21.4899 17.2002L19.2199 16.5902C18.5172 16.3915 17.7645 16.4774 17.1246 16.8292C16.4846 17.181 16.0088 17.7704 15.7999 18.4702L15.5999 19.2002C15.4239 19.8681 15.5076 20.578 15.8342 21.1866C16.1608 21.7953 16.706 22.2575 17.3599 22.4802Z" fill="#FAB17E"/>
<path d="M47.5098 40.5098C47.5098 40.5098 48.1798 33.6598 48.7998 32.3198C49.2256 31.3816 49.4617 30.3685 49.4943 29.3387C49.5269 28.309 49.3554 27.283 48.9898 26.3198C48.3009 24.4503 47.8703 22.4956 47.7098 20.5098C47.3398 24.8798 48.4498 28.1198 47.7098 28.9798C47.7098 28.9798 47.6298 28.9798 47.5498 28.9798L47.5098 40.5098Z" fill="#EFA26F"/>
<path d="M27.14 22.0802C27.5031 22.092 27.8547 22.2104 28.1509 22.4207C28.4472 22.631 28.6749 22.9239 28.8058 23.2628C28.9367 23.6017 28.9648 23.9717 28.8868 24.3265C28.8088 24.6813 28.628 25.0053 28.3671 25.2581C28.1061 25.5108 27.7765 25.6812 27.4194 25.7478C27.0623 25.8145 26.6934 25.7745 26.3589 25.6329C26.0243 25.4913 25.7388 25.2543 25.5381 24.9515C25.3373 24.6487 25.2302 24.2935 25.23 23.9302C25.2405 23.4324 25.447 22.9589 25.8046 22.6125C26.1623 22.2661 26.6421 22.0748 27.14 22.0802Z" fill="white"/>
<path fill-rule="evenodd" clip-rule="evenodd" d="M28.2599 23.8801C28.2522 23.7651 28.1997 23.6578 28.1137 23.5811C28.0277 23.5045 27.915 23.4646 27.7999 23.4701H26.5899C26.579 23.4718 26.5679 23.4709 26.5574 23.4675C26.5469 23.4641 26.5374 23.4582 26.5296 23.4504C26.5218 23.4426 26.516 23.4331 26.5125 23.4226C26.5091 23.4121 26.5082 23.401 26.5099 23.3901C26.5098 23.38 26.5119 23.37 26.516 23.3608C26.5202 23.3516 26.5262 23.3433 26.5338 23.3367C26.5414 23.33 26.5504 23.3251 26.5601 23.3223C26.5698 23.3194 26.5799 23.3187 26.5899 23.3201H27.8099C27.8059 23.2409 27.7765 23.1651 27.726 23.1039C27.6756 23.0427 27.6069 22.9993 27.5299 22.9801C27.1724 22.92 26.8074 22.92 26.4499 22.9801C26.353 23.0028 26.265 23.054 26.1973 23.127C26.1296 23.2001 26.0852 23.2917 26.0699 23.3901C26.0099 23.7509 26.0099 24.1192 26.0699 24.4801C26.0913 24.5868 26.145 24.6844 26.2237 24.7595C26.3024 24.8346 26.4024 24.8837 26.5099 24.9001C26.9519 24.9501 27.398 24.9501 27.8399 24.9001C27.9347 24.8821 28.0214 24.8348 28.0878 24.7648C28.1542 24.6948 28.197 24.6057 28.2099 24.5101C28.2514 24.3028 28.2682 24.0913 28.2599 23.8801ZM27.8599 24.1401V24.2001C27.8617 24.211 27.8608 24.2221 27.8573 24.2326C27.8539 24.2431 27.8481 24.2526 27.8403 24.2604C27.8325 24.2682 27.823 24.2741 27.8125 24.2775C27.802 24.2809 27.7908 24.2818 27.7799 24.2801C27.7587 24.2801 27.7384 24.2717 27.7234 24.2567C27.7084 24.2417 27.6999 24.2213 27.6999 24.2001V24.1401C27.6923 24.1106 27.6923 24.0796 27.6999 24.0501C27.7023 24.019 27.7156 23.9898 27.7377 23.9678C27.7597 23.9458 27.7889 23.9324 27.8199 23.9301C27.8444 23.93 27.8683 23.9373 27.8884 23.9511C27.9086 23.9649 27.924 23.9845 27.9327 24.0074C27.9414 24.0302 27.9429 24.0551 27.9371 24.0789C27.9312 24.1026 27.9183 24.1239 27.8999 24.1401H27.8599Z" fill="#00AED6"/>
<path d="M34.5201 23.7301C34.5201 23.5683 34.4559 23.4132 34.3415 23.2988C34.2271 23.1844 34.0719 23.1201 33.9101 23.1201C33.7483 23.1201 33.5932 23.1844 33.4788 23.2988C33.3644 23.4132 33.3001 23.5683 33.3001 23.7301C33.3014 23.8089 33.3182 23.8867 33.3496 23.959C33.381 24.0313 33.4263 24.0967 33.4829 24.1515C33.5396 24.2063 33.6064 24.2494 33.6797 24.2783C33.753 24.3072 33.8313 24.3214 33.9101 24.3201C34.0597 24.3284 34.2065 24.2774 34.3188 24.1782C34.4311 24.079 34.4998 23.9396 34.5101 23.7901V23.7401L34.5201 23.7301ZM32.7101 23.7301C32.6839 23.487 32.7319 23.2416 32.8479 23.0263C32.9639 22.8109 33.1424 22.6358 33.3599 22.524C33.5774 22.4122 33.8237 22.3689 34.0663 22.3999C34.3089 22.4308 34.5364 22.5346 34.7189 22.6974C34.9013 22.8603 35.0301 23.0746 35.0884 23.3121C35.1466 23.5497 35.1314 23.7993 35.0449 24.028C34.9585 24.2568 34.8047 24.454 34.6039 24.5936C34.4031 24.7332 34.1647 24.8087 33.9201 24.8101C33.769 24.8224 33.6169 24.8038 33.4731 24.7556C33.3294 24.7073 33.1969 24.6303 33.0837 24.5294C32.9706 24.4284 32.8791 24.3055 32.8149 24.1681C32.7507 24.0307 32.715 23.8817 32.7101 23.7301Z" fill="#010101"/>
<path d="M31.7502 23.84C31.7279 23.9807 31.6519 24.1074 31.5381 24.1932C31.4243 24.279 31.2817 24.3173 31.1402 24.3C30.9931 24.3169 30.8452 24.2748 30.729 24.183C30.6128 24.0912 30.5377 23.957 30.5202 23.81V23.72C30.521 23.6384 30.539 23.5579 30.5731 23.4837C30.6071 23.4096 30.6564 23.3434 30.7178 23.2897C30.7791 23.2359 30.8511 23.1956 30.9291 23.1715C31.007 23.1475 31.0892 23.1401 31.1702 23.15C31.3063 23.1356 31.4426 23.1744 31.5507 23.2583C31.6588 23.3422 31.7303 23.4646 31.7502 23.6V23.84ZM31.7502 22.64V22.88C31.5511 22.7085 31.2924 22.6223 31.0302 22.64C30.7438 22.64 30.4691 22.7538 30.2665 22.9563C30.064 23.1588 29.9502 23.4335 29.9502 23.72C29.9502 24.0064 30.064 24.2811 30.2665 24.4836C30.4691 24.6862 30.7438 24.8 31.0302 24.8C31.1563 24.8085 31.2827 24.7907 31.4015 24.7476C31.5203 24.7046 31.6288 24.6373 31.7202 24.55V24.76C31.7153 24.8315 31.6959 24.9013 31.6632 24.9651C31.6305 25.0289 31.5852 25.0854 31.5301 25.1312C31.4749 25.1771 31.411 25.2112 31.3423 25.2316C31.2736 25.252 31.2014 25.2583 31.1302 25.25C30.8782 25.2599 30.6317 25.1741 30.4402 25.01L30.0602 25.37C30.204 25.5094 30.375 25.6178 30.5625 25.6884C30.7501 25.7589 30.9501 25.7901 31.1502 25.78C31.2919 25.7922 31.4345 25.7759 31.5697 25.7319C31.705 25.6879 31.8299 25.6171 31.9372 25.5238C32.0445 25.4305 32.132 25.3166 32.1943 25.1888C32.2567 25.061 32.2927 24.922 32.3002 24.78V22.64H31.7502Z" fill="#010101"/>
<path d="M35.4702 22.7004H36.0002V22.8804C36.1917 22.7163 36.4381 22.6305 36.6902 22.6404C36.9793 22.6404 37.2565 22.7553 37.4609 22.9597C37.6653 23.1641 37.7802 23.4413 37.7802 23.7304C37.7802 24.0195 37.6653 24.2967 37.4609 24.5012C37.2565 24.7056 36.9793 24.8204 36.6902 24.8204C36.4492 24.8197 36.2146 24.7427 36.0202 24.6004V25.6004H35.4302V22.7004H35.4702ZM36.6502 23.1504C36.5141 23.1361 36.3778 23.1749 36.2697 23.2587C36.1616 23.3426 36.0901 23.465 36.0702 23.6004V23.8604C36.0876 23.9969 36.1585 24.1209 36.2672 24.2052C36.3759 24.2896 36.5136 24.3274 36.6502 24.3104C36.7263 24.3144 36.8025 24.3033 36.8744 24.2777C36.9463 24.2522 37.0124 24.2128 37.0691 24.1618C37.1257 24.1107 37.1718 24.049 37.2045 23.9801C37.2373 23.9112 37.2562 23.8366 37.2602 23.7604C37.2641 23.6843 37.253 23.6081 37.2275 23.5362C37.202 23.4643 37.1626 23.3982 37.1115 23.3415C37.0604 23.2849 36.9987 23.2388 36.9298 23.206C36.861 23.1733 36.7863 23.1544 36.7102 23.1504H36.6502Z" fill="#010101"/>
<path d="M39 23.5303C39.39 23.4803 39.5 23.4203 39.5 23.3203C39.5 23.2203 39.36 23.1003 39.13 23.1003C39.0109 23.0888 38.8915 23.1196 38.7928 23.1872C38.6941 23.2549 38.6223 23.3551 38.59 23.4703L38 23.3603C38.065 23.1314 38.2094 22.9332 38.4073 22.8013C38.6053 22.6693 38.8438 22.6122 39.08 22.6403C39.7 22.6403 40.08 22.9503 40.08 23.4503V24.7603H39.54V24.5303C39.4492 24.6287 39.3371 24.705 39.2124 24.7535C39.0876 24.802 38.9534 24.8215 38.82 24.8103C38.35 24.8103 38.02 24.5603 38.02 24.2003C38.02 23.8403 38.29 23.6203 38.96 23.5303H39ZM39.55 23.7403C39.55 23.8203 39.39 23.8603 39.1 23.9103C38.81 23.9603 38.62 24.0403 38.62 24.1603C38.62 24.2803 38.72 24.3403 38.95 24.3403C39.18 24.3403 39.56 24.1803 39.56 23.9903V23.7403H39.55Z" fill="#010101"/>
<path d="M41.1702 24.6402L40.1802 22.7002H40.8402L41.4802 24.0402H41.4902L42.1302 22.7002H42.7902L41.3202 25.6302H40.6602L41.1702 24.6402Z" fill="#010101"/>
</svg>
