<svg width="74" height="74" viewBox="0 0 74 74" fill="none" xmlns="http://www.w3.org/2000/svg">
<path d="M37.1 61.2C52.0669 61.2 64.2 49.0669 64.2 34.1C64.2 19.1331 52.0669 7 37.1 7C22.1331 7 10 19.1331 10 34.1C10 49.0669 22.1331 61.2 37.1 61.2Z" fill="#4BC6DF"/>
<path d="M41.7999 22.3999H32.3999C28.4999 22.3999 25.3999 25.4999 25.3999 29.3999V38.7999C25.3999 42.6999 28.4999 45.7999 32.3999 45.7999H41.7999C45.6999 45.7999 48.7999 42.6999 48.7999 38.7999V29.3999C48.7999 25.4999 45.6999 22.3999 41.7999 22.3999ZM41.4999 33.8999C41.0999 34.2999 40.3999 34.2999 39.8999 33.8999L38.1999 32.1999V38.6999C38.1999 39.2999 37.6999 39.7999 37.0999 39.7999C36.4999 39.7999 35.9999 39.2999 35.9999 38.6999V32.1999L34.2999 33.8999C33.8999 34.2999 33.1999 34.2999 32.6999 33.8999C32.2999 33.4999 32.2999 32.7999 32.6999 32.2999L36.2999 28.6999C36.3999 28.5999 36.4999 28.4999 36.5999 28.4999C36.6999 28.4999 36.8999 28.3999 36.9999 28.3999C37.0999 28.3999 37.2999 28.3999 37.3999 28.4999C37.4999 28.5999 37.5999 28.5999 37.6999 28.6999L41.2999 32.2999C41.8999 32.7999 41.8999 33.4999 41.4999 33.8999Z" fill="#FFFDFE"/>
<path d="M34.5798 58.2798C34.5827 58.5581 34.5592 58.836 34.5098 59.1098C34.4198 59.5298 33.8498 61.3598 33.1498 63.4898C32.1498 66.4398 30.9798 69.9698 30.4098 71.2098H5.56982C6.48982 64.7398 7.86982 55.5198 8.42982 54.3098C8.63996 53.9235 8.92562 53.5835 9.26982 53.3098C10.1785 52.5785 11.1526 51.9324 12.1798 51.3798C13.5898 50.5998 15.3998 49.7298 15.3998 49.6198C15.6898 49.2998 18.0298 47.1098 19.1098 46.0998C19.4594 45.7668 19.9175 45.5714 20.3998 45.5498L23.4498 45.4298C23.4498 45.4298 26.0598 40.9998 26.9998 39.5998C27.1798 39.3498 27.8298 38.4898 28.5298 37.5998L29.6898 36.0798L30.6198 34.8698C30.6963 34.7514 30.7989 34.6522 30.9198 34.5798C30.9956 34.5396 31.0763 34.5094 31.1598 34.4898C31.2027 34.4806 31.247 34.4806 31.2898 34.4898H31.4298C31.7388 34.4653 32.0464 34.5528 32.2961 34.7365C32.5458 34.9201 32.7211 35.1875 32.7898 35.4898C32.9218 36.0758 32.9218 36.6838 32.7898 37.2698C32.7898 37.4498 32.7298 37.6298 32.6798 37.8198C32.4806 38.6355 32.2096 39.4319 31.8698 40.1998C31.3969 41.3073 30.8524 42.3829 30.2398 43.4198L29.6598 44.9698L28.5498 47.9998L25.7398 55.5198V62.3998C25.9798 62.1298 29.7398 57.7898 30.0198 56.7998C30.2098 56.1898 30.5798 53.9098 31.0898 51.9998C31.2198 51.4998 31.3698 50.9998 31.5198 50.6198C31.6579 50.1125 31.9269 49.6504 32.2998 49.2798C32.5785 49.0318 32.9209 48.8666 33.2885 48.803C33.656 48.7394 34.034 48.7799 34.3798 48.9198V48.9998C34.3798 49.2298 34.3798 49.8298 34.4398 50.6298C34.4398 50.9498 34.4398 51.2998 34.4398 51.6298C34.4347 51.7231 34.4347 51.8165 34.4398 51.9098C34.5598 54.1798 34.6298 56.8798 34.5798 58.2798Z" fill="#FAB17E"/>
</svg>
