<svg width="286" height="83" viewBox="0 0 286 83" fill="none" xmlns="http://www.w3.org/2000/svg">
<g clip-path="url(#clip0)">
<path fill-rule="evenodd" clip-rule="evenodd" d="M37.7098 0.153506C23.9202 1.45153 12.745 8.71864 5.95795 19.9359C1.5475 27.2246 -0.525693 35.8596 0.113638 44.7214C1.67799 66.4013 20.3969 84.7566 44.3564 82.8668C65.8535 81.1707 83.5903 61.9232 81.7734 38.2497C81.1079 29.5824 78.0811 22.439 73.2297 15.9888C71.033 13.0685 70.5998 13.0208 68.3058 10.6299C65.4612 7.66424 59.4455 4.2597 55.6064 2.7534C50.4586 0.732969 43.9039 -0.429799 37.7098 0.153506V0.153506Z" fill="white"/>
<path fill-rule="evenodd" clip-rule="evenodd" d="M17.2351 29.4061C16.7124 30.9086 17.0236 47.6139 17.0236 50.7125C17.0236 54.0648 16.3587 55.1115 21.6278 56.9052C35.5788 61.6539 49.3931 45.5527 63.2654 53.5192C63.9086 53.888 64.6915 54.645 64.8753 53.4223L64.8807 31.9323C64.8814 29.6206 65.0892 28.8966 63.5487 27.8291C51.1351 19.2217 37.6945 33.9442 25.0986 32.2927C20.4372 31.6817 18.5068 29.3147 17.2351 29.4061V29.4061Z" fill="#108DE8"/>
<path fill-rule="evenodd" clip-rule="evenodd" d="M113.078 62.5347C118.516 62.9212 124.851 58.7236 127.083 56.3197C134.836 47.9682 135.023 35.8848 127.218 27.1398C124.312 23.8836 117.508 20.2846 113.168 20.7888L97.4941 20.8003L97.4902 62.4824L113.078 62.5347V62.5347ZM106.295 53.5031C107.449 53.7029 112.191 53.6283 113.494 53.5092C124.201 52.5347 127.983 37.9636 118.981 31.86C117.487 30.8464 115.825 30.0386 113.643 29.7973C112.449 29.6644 107.347 29.5821 106.29 29.772L106.295 53.5031V53.5031Z" fill="white"/>
<path fill-rule="evenodd" clip-rule="evenodd" d="M250.358 62.6123L259.273 62.6085L259.282 53.6245L276.973 53.6276L277.025 62.6092L285.936 62.6108C285.942 57.6185 285.938 52.6661 285.938 47.7146C285.938 43.2541 286.315 37.67 285.209 33.6238C283.339 26.7755 276.796 20.7019 268.185 20.6681C259.482 20.6343 253.164 26.6902 251.147 33.4393C249.954 37.4333 250.352 43.1596 250.352 47.5563C250.352 52.567 250.3 57.6046 250.358 62.6123V62.6123ZM259.282 44.5859L277.017 44.5936C277.06 40.7403 277.476 36.9953 275.738 34.0426C274.495 31.9307 271.873 29.7205 268.19 29.7051C264.433 29.6897 261.927 31.8116 260.587 33.9996C258.83 36.8692 259.227 40.8202 259.282 44.5859Z" fill="white"/>
<path fill-rule="evenodd" clip-rule="evenodd" d="M148.384 62.6023L157.269 62.61C157.275 60.7348 157.031 54.9871 157.356 53.6245L174.978 53.6268L175.041 62.6039L183.938 62.6123C183.891 57.6346 183.934 52.6646 183.934 47.7146C183.934 43.4677 184.329 37.3834 183.211 33.6184C178.119 16.472 154.416 16.3506 149.156 33.447C147.964 37.3188 148.371 43.2441 148.371 47.5563C148.371 52.5324 148.257 57.6431 148.384 62.6023V62.6023ZM157.275 44.5852L175.032 44.5944C175.069 40.7971 175.486 36.9815 173.744 34.0349C170.557 28.6423 162.451 27.8661 158.595 34.0088C156.832 36.817 157.217 40.8878 157.275 44.5852V44.5852Z" fill="white"/>
<path fill-rule="evenodd" clip-rule="evenodd" d="M199.576 37.0693L199.455 43.2958C199.455 48.5164 199.194 58.2551 199.473 62.4904L208.186 62.495C208.389 59.5262 207.871 38.3404 208.423 37.6657C208.426 33.5487 212.738 29.7207 217.1 29.7046C219.779 29.6946 221.733 30.7798 223.155 32.0678C224.265 33.0738 225.963 35.3655 225.931 37.6872C226.338 37.9155 226.016 60.0142 226.145 62.4888L234.867 62.495L234.797 37.1961C235.015 35.2141 233.816 32.15 233.047 30.5945C226.59 17.532 208.057 17.3591 201.417 30.3694C200.639 31.8949 199.392 35.042 199.576 37.0693V37.0693Z" fill="white"/>
</g>
<defs>
<clipPath id="clip0">
<rect width="286" height="83" fill="white"/>
</clipPath>
</defs>
</svg>
