<svg width="14" height="19" viewBox="0 0 14 19" fill="none" xmlns="http://www.w3.org/2000/svg">
<path d="M12.5987 0.912263L11.2488 2.4871L9.33652 0.912263C9.23939 0.8387 9.12089 0.798888 8.99905 0.798888C8.87722 0.798888 8.75871 0.8387 8.66159 0.912263L6.74929 2.4871L4.83699 0.912263C4.73987 0.8387 4.62137 0.798888 4.49953 0.798888C4.37769 0.798888 4.25919 0.8387 4.16206 0.912263L2.24976 2.4871L0.899905 0.912263C0.527288 0.634558 0 0.898202 0 1.36222V18.2354C0 18.6995 0.527288 18.9631 0.899905 18.6854L2.24976 17.1106L4.16206 18.6854C4.25919 18.759 4.37769 18.7988 4.49953 18.7988C4.62137 18.7988 4.73987 18.759 4.83699 18.6854L6.74929 17.1106L8.66159 18.6854C8.75871 18.759 8.87722 18.7988 8.99905 18.7988C9.12089 18.7988 9.23939 18.759 9.33652 18.6854L11.2488 17.1106L12.5987 18.6854C12.9678 18.9631 13.4986 18.6995 13.4986 18.2354V1.36222C13.4986 0.898202 12.9713 0.634558 12.5987 0.912263ZM11.2488 13.4547C11.2488 13.6094 11.1223 13.7359 10.9676 13.7359H2.53098C2.37631 13.7359 2.24976 13.6094 2.24976 13.4547V12.8923C2.24976 12.7376 2.37631 12.611 2.53098 12.611H10.9676C11.1223 12.611 11.2488 12.7376 11.2488 12.8923V13.4547ZM11.2488 10.08C11.2488 10.2347 11.1223 10.3613 10.9676 10.3613H2.53098C2.37631 10.3613 2.24976 10.2347 2.24976 10.08V9.51761C2.24976 9.36294 2.37631 9.23639 2.53098 9.23639H10.9676C11.1223 9.23639 11.2488 9.36294 11.2488 9.51761V10.08ZM11.2488 6.7054C11.2488 6.86008 11.1223 6.98662 10.9676 6.98662H2.53098C2.37631 6.98662 2.24976 6.86008 2.24976 6.7054V6.14296C2.24976 5.98829 2.37631 5.86174 2.53098 5.86174H10.9676C11.1223 5.86174 11.2488 5.98829 11.2488 6.14296V6.7054Z" fill="#363636"/>
</svg>
