<svg width="164" height="48" viewBox="0 0 164 48" fill="none" xmlns="http://www.w3.org/2000/svg">
<path fill-rule="evenodd" clip-rule="evenodd" d="M21.5688 0.0871008C13.6815 0.837789 7.28964 5.04057 3.4074 11.5276C0.884973 15.7431 -0.300832 20.7372 0.0650674 25.8618C0.959831 38.4002 11.6663 49.0154 25.3704 47.9225C37.6659 46.9418 47.8112 35.8103 46.7718 22.1193C46.3912 17.1067 44.6599 12.9755 41.8851 9.24536C40.6284 7.55598 40.3806 7.52887 39.0688 6.14594C37.4417 4.43078 34.0009 2.46206 31.8051 1.59048C28.8607 0.421999 25.1118 -0.250242 21.5688 0.0871008Z" fill="#2196F3"/>
<path fill-rule="evenodd" clip-rule="evenodd" d="M9.85757 17.0028C9.55858 17.8719 9.73678 27.5331 9.73678 29.3251C9.73656 31.2634 9.35631 31.8692 12.3703 32.9066C20.3496 35.6529 28.251 26.3411 36.1855 30.9479C36.5532 31.1614 37.0012 31.5994 37.1063 30.8919L37.1094 18.4637C37.1099 17.127 37.2289 16.7083 36.3476 16.0905C29.2473 11.113 21.5597 19.6273 14.3552 18.6724C11.6888 18.319 10.5849 16.9497 9.85757 17.0028Z" fill="white"/>
<path fill-rule="evenodd" clip-rule="evenodd" d="M64.6773 36.1665C67.7873 36.3898 71.4108 33.9624 72.6876 32.572C77.1219 27.7423 77.2292 20.7538 72.7651 15.6966C71.1025 13.8134 67.2106 11.732 64.7283 12.0236L55.7634 12.0305L55.7612 36.1361L64.6773 36.1665ZM60.7975 30.9432C61.4575 31.0586 64.1696 31.0157 64.9147 30.947C71.0389 30.3832 73.2023 21.9565 68.0536 18.4264C67.1988 17.8404 66.248 17.3733 65.0004 17.2333C64.3169 17.1566 61.3988 17.1088 60.7942 17.2186L60.7975 30.9432Z" fill="#2196F3"/>
<path fill-rule="evenodd" clip-rule="evenodd" d="M143.197 36.2133L148.297 36.2113L148.302 31.0158L158.42 31.0171L158.45 36.2117L163.547 36.2126C163.55 33.3254 163.548 30.4613 163.548 27.5975C163.548 25.0178 163.763 21.7886 163.131 19.4483C162.062 15.4882 158.319 11.9755 153.394 11.9559C148.416 11.9361 144.802 15.4389 143.649 19.3419C142.966 21.6519 143.194 24.9636 143.194 27.5063C143.194 30.4042 143.164 33.3174 143.197 36.2133ZM148.301 25.7883L158.445 25.7927C158.47 23.564 158.708 21.3982 157.714 19.6908C157.003 18.4692 155.503 17.1912 153.397 17.1823C151.248 17.1732 149.814 18.4005 149.048 19.6659C148.043 21.3255 148.27 23.6104 148.301 25.7883Z" fill="#2196F3"/>
<path fill-rule="evenodd" clip-rule="evenodd" d="M84.8701 36.2034L89.9519 36.2074C89.9552 35.1234 89.8154 31.7988 90.0016 31.011L100.081 31.0124L100.117 36.2043L105.206 36.2087C105.179 33.33 105.204 30.4561 105.204 27.5929C105.204 25.1371 105.429 21.6183 104.79 19.4407C101.878 9.52465 88.32 9.4542 85.3111 19.3416C84.6297 21.581 84.8626 25.0078 84.8626 27.5018C84.8626 30.3795 84.7973 33.3351 84.8701 36.2034ZM89.9552 25.7833L100.112 25.7889C100.133 23.5926 100.372 21.3859 99.3756 19.682C97.5523 16.5628 92.916 16.1142 90.7104 19.6667C89.7021 21.2908 89.9223 23.645 89.9552 25.7833Z" fill="#2196F3"/>
<path fill-rule="evenodd" clip-rule="evenodd" d="M114.152 21.4339L114.082 25.0346C114.082 28.054 113.933 33.6862 114.093 36.1354L119.076 36.1383C119.192 34.4213 118.897 22.1688 119.212 21.7785C119.213 19.3978 121.68 17.1842 124.175 17.1746C125.707 17.1689 126.825 17.7962 127.638 18.5413C128.273 19.1234 129.245 20.4483 129.226 21.791C129.459 21.9232 129.275 34.7034 129.348 36.1345L134.337 36.1383L134.297 21.5072C134.422 20.3609 133.736 18.5889 133.296 17.6893C129.603 10.1347 119.003 10.0347 115.205 17.5593C114.759 18.4416 114.046 20.2614 114.152 21.4339Z" fill="#2196F3"/>
<path fill-rule="evenodd" clip-rule="evenodd" d="M64.6787 36.1601L55.7627 36.1297L55.7649 12.0239L64.7297 12.0172C64.5667 11.7876 60.8265 11.9248 60.3023 11.9248C58.9979 11.9248 56.9392 11.8014 55.7269 11.9441C55.6127 12.3285 55.5657 35.5876 55.7189 36.2141C56.5444 36.3214 62.2969 36.2388 64.1156 36.243L64.6158 36.1903C64.6317 36.1859 64.6577 36.1703 64.6787 36.1601Z" fill="white"/>
<path fill-rule="evenodd" clip-rule="evenodd" d="M129.224 21.7962C129.277 23.7685 129.118 35.5191 129.301 36.2235L134.38 36.2455C134.513 35.6808 134.431 26.5181 134.431 25.1312C134.431 24.4681 134.608 21.8629 134.295 21.5125L134.335 36.1435L129.346 36.1397C129.273 34.7086 129.457 21.9285 129.224 21.7962Z" fill="white"/>
<path fill-rule="evenodd" clip-rule="evenodd" d="M119.213 21.784C118.897 22.1742 119.193 34.4268 119.077 36.1438L114.094 36.1409C113.934 33.6917 114.083 28.0595 114.083 25.0401L114.153 21.4393C113.869 21.5636 113.996 27.9811 113.996 28.7824C113.996 29.9485 113.858 35.558 114.056 36.2267L119.134 36.2451L119.213 21.784Z" fill="white"/>
</svg>
