<svg width="210" height="48" viewBox="0 0 210 48" fill="none" xmlns="http://www.w3.org/2000/svg">
<path d="M24.0923 48C37.3981 48 48.1846 37.2548 48.1846 24C48.1846 10.7452 37.3981 0 24.0923 0C10.7865 0 0 10.7452 0 24C0 37.2548 10.7865 48 24.0923 48Z" fill="#02AFD9"/>
<path fill-rule="evenodd" clip-rule="evenodd" d="M10.168 29.384C10.4428 33.308 12.9162 36.3194 17.4965 36.5931C21.8936 36.7757 26.199 36.7757 30.5961 36.5931C34.6268 36.3194 37.6497 33.308 37.9246 29.384C38.1078 27.3764 38.1994 25.3688 38.1078 23.3612C37.1001 17.8859 32.5198 17.7034 32.1534 17.7034H32.0618H16.672C16.1224 17.7034 15.6644 17.2471 15.6644 16.6996C15.6644 16.1521 16.1224 15.7871 16.672 15.7871H32.1534C31.9702 12.1369 27.9395 11.4068 26.0158 11.3156H25.0082C22.5348 11.2243 19.9698 11.3156 17.4965 11.4981C12.8246 11.8631 10.4428 14.692 10.168 18.7072C9.89321 22.2662 9.89321 25.8251 10.168 29.384ZM33.3443 27.2852V28.654C33.3443 29.1103 32.9779 29.4753 32.4282 29.4753C31.9702 29.4753 31.6038 29.1103 31.6038 28.654V27.2852C31.1457 27.0114 30.8709 26.6464 30.8709 26.0989C30.8709 25.3688 31.6038 24.73 32.4282 24.73C33.2527 24.73 33.9855 25.3688 33.9855 26.0989C33.9855 26.6464 33.7107 27.0114 33.3443 27.2852Z" fill="#FEFEFE"/>
<path fill-rule="evenodd" clip-rule="evenodd" d="M170.074 21.8099V26.1901C170.074 26.1901 168.517 29.1103 163.387 29.7491C158.257 30.4791 158.257 27.2852 158.623 26.4639C158.99 25.6426 160.181 24.5475 164.486 23.8175C168.975 23.0875 170.074 21.8099 170.074 21.8099ZM176.12 17.6122V34.5856H170.532V31.8479C168.7 33.4905 166.135 35.0418 162.562 35.2243C151.386 35.4981 147.081 23.1787 160.639 19.5285C163.845 18.616 166.959 18.8897 168.608 18.0685C169.707 17.4297 169.982 16.4259 169.249 15.5133C166.501 11.8631 159.906 13.3232 158.074 18.3422L152.486 16.9734C153.951 11.4069 158.44 8.94298 163.845 8.39545C169.616 7.84793 176.12 10.9506 176.12 17.6122ZM70.3153 14.6008C66.2846 14.6008 62.9868 17.8859 62.9868 21.9924C62.9868 26.0076 66.2846 29.2928 70.3153 29.2928C74.3459 29.2928 77.6437 26.0076 77.6437 21.9924C77.6437 17.8859 74.3459 14.6008 70.3153 14.6008ZM84.789 9.21675H77.6437V11.9544C75.4452 10.038 72.5138 8.85173 69.216 8.85173C62.0708 8.85173 56.208 14.7833 56.208 22.0837C56.208 29.4753 62.0708 35.4069 69.216 35.4069C72.5138 35.4069 75.4452 34.2205 77.6437 32.3042V34.7681C77.6437 38.692 74.804 41.7947 70.8649 41.7947C67.5671 41.7947 64.9106 41.1559 62.712 38.6008L58.1317 42.7072C61.8876 46.7224 65.6434 48 70.9565 48C78.6514 48 84.789 42.7985 84.789 34.038V30.2053V9.21675ZM209.281 8.76047H201.77L194.258 25.0951L185.647 8.76047H178.044L190.502 32.0304L183.906 45.5361H191.51L209.281 8.76047ZM135.355 14.6008C139.478 14.6008 142.775 17.8859 142.775 21.9924C142.775 26.0076 139.478 29.2928 135.355 29.2928C131.325 29.2928 128.027 26.0076 128.027 21.9924C128.027 17.8859 131.325 14.6008 135.355 14.6008ZM120.973 9.21675H128.027V11.9544C130.317 10.038 133.248 8.85173 136.455 8.85173C143.6 8.85173 149.463 14.7833 149.463 22.0837C149.463 29.4753 143.6 35.4069 136.455 35.4069C133.248 35.4069 130.317 34.2205 128.027 32.3042V45.5361H120.973V9.21675ZM102.102 14.4183C106.591 14.4183 110.164 17.8859 110.164 22.0837C110.164 26.3726 106.591 29.8403 102.102 29.8403C97.7054 29.8403 94.1328 26.3726 94.1328 22.0837C94.1328 17.8859 97.7054 14.4183 102.102 14.4183ZM102.102 8.3042C109.981 8.3042 116.393 14.5095 116.393 22.0837C116.393 29.7491 109.981 35.9544 102.102 35.9544C94.2244 35.9544 87.812 29.7491 87.812 22.0837C87.812 14.5095 94.2244 8.3042 102.102 8.3042Z" fill="white"/>
</svg>
