<svg width="28" height="28" viewBox="0 0 28 28" fill="none" xmlns="http://www.w3.org/2000/svg">
<rect width="28" height="28" rx="8" fill="#F0EEF8"/>
<path d="M15.689 18.2078C15.6918 18.626 15.5704 19.0355 15.3402 19.3846C15.11 19.7336 14.7812 20.0065 14.3957 20.1685C14.0103 20.3304 13.5853 20.3743 13.1749 20.2945C12.7644 20.2146 12.3869 20.0147 12.0902 19.7201C11.7935 19.4254 11.5911 19.0493 11.5084 18.6394C11.4258 18.2295 11.4668 17.8043 11.6261 17.4177C11.7855 17.0311 12.056 16.7005 12.4035 16.4679C12.751 16.2353 13.1597 16.1111 13.5779 16.1111C14.1353 16.1111 14.6701 16.3315 15.0656 16.7243C15.4611 17.1171 15.6852 17.6504 15.689 18.2078V18.2078Z" fill="#F9A01B"/>
<path d="M16.7607 14.0638C15.912 13.9302 15.1353 13.4622 14.5728 12.7455C14.0104 12.0288 13.6999 11.1114 13.6984 10.1617C13.699 9.63076 13.7985 9.10568 13.9907 8.61936C13.7271 8.54377 13.4556 8.50746 13.1834 8.5114C12.2383 8.5114 11.332 8.92738 10.6637 9.66784C9.99543 10.4083 9.62 11.4126 9.62 12.4597V14.0021C9.62079 14.5554 9.51142 15.1022 9.2997 15.6034C9.08798 16.1045 8.77911 16.5478 8.39509 16.9016C8.29909 16.9968 8.22221 17.1132 8.16946 17.2434C8.1167 17.3736 8.08925 17.5146 8.08887 17.6574C8.08887 17.9191 8.18272 18.1702 8.34979 18.3553C8.51685 18.5404 8.74344 18.6444 8.97971 18.6444H17.3314C17.5676 18.6444 17.7942 18.5404 17.9613 18.3553C18.1283 18.1702 18.2222 17.9191 18.2222 17.6574C18.2218 17.5146 18.1944 17.3736 18.1416 17.2434C18.0889 17.1132 18.012 16.9968 17.916 16.9016C17.5497 16.5493 17.2567 16.1131 17.0573 15.6232C16.8578 15.1332 16.7566 14.6012 16.7607 14.0638V14.0638Z" fill="#FDC113"/>
<path d="M19.9114 10.2C19.9114 10.701 19.7628 11.1908 19.4844 11.6074C19.2061 12.024 18.8104 12.3487 18.3475 12.5405C17.8846 12.7322 17.3752 12.7824 16.8838 12.6846C16.3924 12.5869 15.941 12.3456 15.5867 11.9913C15.2324 11.637 14.9912 11.1856 14.8934 10.6942C14.7957 10.2028 14.8458 9.6934 15.0376 9.23049C15.2293 8.76759 15.554 8.37194 15.9706 8.09357C16.3872 7.8152 16.877 7.66663 17.3781 7.66663C18.0499 7.66663 18.6943 7.93353 19.1694 8.40862C19.6445 8.88371 19.9114 9.52808 19.9114 10.2V10.2Z" fill="#EF4538"/>
</svg>
