<svg width="28" height="28" viewBox="0 0 28 28" fill="none" xmlns="http://www.w3.org/2000/svg">
<rect width="28" height="28" rx="8" fill="#F0EEF8"/>
<path fill-rule="evenodd" clip-rule="evenodd" d="M10.4688 10.6945H13.289V11.8389H12.5957L14.2408 15.6267L15.8388 11.7702H15.1338V10.6259H17.3899V11.2553L14.6638 17.492C14.3975 17.5215 14.1284 17.4689 13.8944 17.3416C13.6604 17.2144 13.4733 17.0188 13.3595 16.7825L11.1386 11.7702H10.4688V10.6259V10.6945ZM6.60283 10.5C7.30005 10.5 7.98161 10.7013 8.56133 11.0786C9.14104 11.4558 9.59288 11.992 9.85969 12.6193C10.1265 13.2466 10.1963 13.9369 10.0603 14.6028C9.92427 15.2688 9.58853 15.8805 9.09552 16.3606C8.60252 16.8407 7.97439 17.1677 7.29056 17.3002C6.60674 17.4326 5.89794 17.3646 5.2538 17.1048C4.60965 16.845 4.05909 16.4049 3.67174 15.8404C3.28439 15.2758 3.07764 14.6121 3.07764 13.9331C3.07764 13.0226 3.44904 12.1493 4.11014 11.5055C4.77125 10.8617 5.66789 10.5 6.60283 10.5V10.5ZM6.60283 11.6444C7.21721 11.686 7.79248 11.9531 8.21256 12.3917C8.63265 12.8302 8.86626 13.4077 8.86626 14.0074C8.86626 14.6072 8.63265 15.1846 8.21256 15.6232C7.79248 16.0618 7.21721 16.3289 6.60283 16.3705C5.98846 16.3289 5.41319 16.0618 4.9931 15.6232C4.57302 15.1846 4.33941 14.6072 4.33941 14.0074C4.33941 13.4077 4.57302 12.8302 4.9931 12.3917C5.41319 11.9531 5.98846 11.686 6.60283 11.6444V11.6444ZM21.3969 10.5C22.0941 10.5 22.7757 10.7013 23.3554 11.0786C23.9351 11.4558 24.3869 11.992 24.6538 12.6193C24.9206 13.2466 24.9904 13.9369 24.8544 14.6028C24.7183 15.2688 24.3826 15.8805 23.8896 16.3606C23.3966 16.8407 22.7685 17.1677 22.0846 17.3002C21.4008 17.4326 20.692 17.3646 20.0479 17.1048C19.4037 16.845 18.8532 16.4049 18.4658 15.8404C18.0785 15.2758 17.8717 14.6121 17.8717 13.9331C17.8717 13.0245 18.2415 12.1531 18.9001 11.5096C19.5586 10.8661 20.4523 10.503 21.3852 10.5H21.3969ZM21.3969 11.6444C21.8819 11.6101 22.3664 11.7183 22.7876 11.9549C23.2089 12.1915 23.5477 12.5456 23.7603 12.9715C23.9728 13.3975 24.0494 13.8757 23.9802 14.3444C23.9109 14.8132 23.6989 15.251 23.3716 15.6012C23.0443 15.9515 22.6168 16.1982 22.1441 16.3095C21.6714 16.4208 21.1753 16.3915 20.7199 16.2255C20.2644 16.0594 19.8706 15.7643 19.5891 15.3781C19.3076 14.9919 19.1514 14.5324 19.1408 14.0589C19.1184 13.4575 19.3401 12.8718 19.758 12.4284C20.1759 11.9851 20.7562 11.7198 21.3734 11.6901L21.3969 11.6444Z" fill="#3D2B7F"/>
</svg>
