<svg width="23" height="44" viewBox="0 0 23 44" fill="none" xmlns="http://www.w3.org/2000/svg">
<path d="M3.02841 44H19.9716C20.7755 43.9979 21.5458 43.6718 22.1135 43.0934C22.6812 42.515 23 41.7314 23 40.9144V3.07749C23 2.67335 22.9217 2.27316 22.7695 1.89979C22.6173 1.52641 22.3942 1.18715 22.113 0.901376C21.8318 0.615604 21.4979 0.388918 21.1305 0.23426C20.7631 0.0796016 20.3693 0 19.9716 0L3.02841 0C2.22523 0 1.45494 0.324234 0.887002 0.901376C0.319064 1.47852 0 2.26129 0 3.07749L0 40.9144C-2.76905e-06 41.7314 0.318807 42.515 0.886516 43.0934C1.45423 43.6718 2.2245 43.9979 3.02841 44Z" fill="#3A3B3A"/>
<path d="M1.13965 3.36898V40.3312C1.13963 40.9342 1.37422 41.5126 1.79225 41.9405C2.21028 42.3683 2.77783 42.6108 3.37111 42.6151H19.6369C20.2288 42.6087 20.7943 42.3652 21.2106 41.9376C21.6269 41.51 21.8604 40.9328 21.8604 40.3312V3.36898C21.8604 2.76822 21.6266 2.19182 21.2101 1.76551C20.7936 1.33919 20.228 1.09754 19.6369 1.09326H3.36314C2.77197 1.09754 2.20645 1.33919 1.78992 1.76551C1.37338 2.19182 1.13963 2.76822 1.13965 3.36898Z" fill="white"/>
<path d="M8.09705 2.42974H14.903C15.0349 2.43407 15.1663 2.41193 15.2898 2.3646C15.4132 2.31728 15.5263 2.24569 15.6225 2.15393C15.7188 2.06217 15.7962 1.95204 15.8505 1.82983C15.9049 1.70762 15.9349 1.57573 15.939 1.44171V1.27973C15.9391 1.14296 15.9121 1.00757 15.8597 0.881602C15.8072 0.755638 15.7304 0.641673 15.6338 0.546481C15.5371 0.45129 15.4226 0.376814 15.2971 0.32748C15.1715 0.278146 15.0375 0.254961 14.903 0.259303H8.09705C7.83073 0.259303 7.57532 0.366813 7.38701 0.558181C7.19869 0.749548 7.0929 1.0091 7.0929 1.27973V1.44171C7.10118 1.70669 7.21062 1.95799 7.39804 2.14241C7.58547 2.32683 7.83617 2.42988 8.09705 2.42974Z" fill="#3A3B3A"/>
<path d="M11.5 27.3713C12.8144 27.3713 14.0986 26.9752 15.1902 26.2341C16.2817 25.4929 17.1311 24.4404 17.6325 23.2105C18.1338 21.9807 18.2648 20.6278 18.0093 19.3228C17.7539 18.0176 17.1231 16.8177 16.1956 15.8752C15.268 14.9326 14.0852 14.2897 12.7963 14.0292C11.5073 13.7686 10.1714 13.9024 8.95772 14.4133C7.74415 14.9241 6.7082 15.7886 5.97994 16.8962C5.25173 18.0037 4.86353 19.3049 4.86353 20.6354C4.86353 22.4193 5.56081 24.1317 6.80449 25.3956C8.04843 26.6597 9.73731 27.3713 11.5 27.3713Z" fill="#3D2B7F" stroke="#D6CBFF"/>
<path d="M10.2567 23.5995C10.1772 23.5998 10.0985 23.5832 10.0256 23.5509C9.95057 23.5194 9.88274 23.4726 9.82636 23.4132L8.04119 21.51C7.93489 21.3936 7.87767 21.2396 7.8818 21.0808C7.88153 21.0003 7.89768 20.9206 7.92923 20.8467C7.96077 20.7728 8.00704 20.7064 8.0651 20.6516C8.17717 20.5378 8.32909 20.474 8.48748 20.474C8.64588 20.474 8.7978 20.5378 8.90987 20.6516L10.2487 22.0851L14.0821 17.8414C14.1905 17.7248 14.3389 17.6552 14.4965 17.647C14.575 17.6437 14.6534 17.6562 14.7271 17.6838C14.8009 17.7113 14.8685 17.7534 14.9263 17.8076C14.984 17.8617 15.0307 17.9269 15.0636 17.9994C15.0965 18.0719 15.115 18.1503 15.1181 18.2301C15.1257 18.3904 15.0713 18.5473 14.9667 18.6674L10.703 23.4051C10.6477 23.4678 10.5798 23.5175 10.5038 23.5509C10.4281 23.5832 10.3468 23.5997 10.2647 23.5995H10.2567Z" fill="white"/>
</svg>
