<svg width="24" height="45" viewBox="0 0 24 45" fill="none" xmlns="http://www.w3.org/2000/svg">
<path d="M3.16008 45H20.8399C21.6788 44.9978 22.4825 44.6644 23.0749 44.0728C23.6673 43.4812 24 42.6798 24 41.8443V3.14743C24 2.73411 23.9183 2.32483 23.7595 1.94296C23.6006 1.5611 23.3679 1.21413 23.0744 0.921862C22.781 0.629595 22.4326 0.397757 22.0492 0.239584C21.6658 0.0814107 21.2549 0 20.8399 0L3.16008 0C2.32198 0 1.5182 0.331603 0.925567 0.921862C0.332936 1.51212 0 2.31268 0 3.14743L0 41.8443C-2.88944e-06 42.6798 0.332668 43.4812 0.92506 44.0728C1.51745 44.6644 2.32121 44.9978 3.16008 45Z" fill="#3A3B3A"/>
<path d="M1.18921 3.44561V41.2479C1.18919 41.8645 1.43398 42.4561 1.87019 42.8937C2.30639 43.3313 2.89861 43.5793 3.51769 43.5836H20.4907C21.1083 43.5771 21.6984 43.3281 22.1328 42.8908C22.5672 42.4535 22.8109 41.8631 22.8108 41.2479V3.44561C22.8108 2.83119 22.5669 2.24169 22.1323 1.80569C21.6976 1.36968 21.1075 1.12254 20.4907 1.11816H3.50938C2.8925 1.12254 2.30239 1.36968 1.86775 1.80569C1.43311 2.24169 1.18919 2.83119 1.18921 3.44561Z" fill="white"/>
<path d="M8.44906 2.48494H15.5509C15.6886 2.48936 15.8257 2.46673 15.9545 2.41832C16.0834 2.36992 16.2013 2.2967 16.3017 2.20286C16.4021 2.10901 16.483 1.99638 16.5397 1.87139C16.5963 1.74641 16.6277 1.61152 16.632 1.47445V1.3088C16.6321 1.16891 16.6039 1.03044 16.5492 0.901616C16.4945 0.772789 16.4143 0.656234 16.3135 0.558879C16.2126 0.461524 16.0931 0.385356 15.9621 0.334901C15.8311 0.284446 15.6913 0.260734 15.5509 0.265174H8.44906C8.17116 0.265174 7.90465 0.375127 7.70814 0.570844C7.51164 0.766562 7.40125 1.03201 7.40125 1.3088V1.47445C7.40989 1.74545 7.52409 2.00247 7.71966 2.19108C7.91524 2.37969 8.17683 2.48508 8.44906 2.48494Z" fill="#3A3B3A"/>
<path d="M13.9999 27.483C14.0033 27.9782 13.8596 28.4632 13.5869 28.8765C13.3143 29.2899 12.925 29.613 12.4685 29.8048C12.012 29.9966 11.5088 30.0486 11.0227 29.954C10.5367 29.8595 10.0896 29.6227 9.73828 29.2738C9.38694 28.9248 9.14715 28.4794 9.0493 27.994C8.95145 27.5086 8.99995 27.0051 9.18866 26.5473C9.37737 26.0895 9.69778 25.698 10.1093 25.4225C10.5207 25.1471 11.0048 25 11.4999 25C12.16 25 12.7934 25.261 13.2617 25.7262C13.7301 26.1914 13.9955 26.8229 13.9999 27.483Z" fill="#F9A01B"/>
<path d="M15.2692 22.5755C14.2643 22.4173 13.3444 21.8631 12.6784 21.0144C12.0123 20.1656 11.6447 19.0793 11.6429 17.9546C11.6435 17.3259 11.7614 16.7041 11.989 16.1282C11.6769 16.0387 11.3554 15.9957 11.033 16.0003C9.91381 16.0003 8.84049 16.493 8.04913 17.3698C7.25777 18.2467 6.81319 19.4359 6.81319 20.676V22.5024C6.81411 23.1577 6.6846 23.8052 6.43388 24.3987C6.18316 24.9922 5.81739 25.5172 5.36264 25.9361C5.24895 26.0488 5.15791 26.1867 5.09544 26.3409C5.03296 26.4951 5.00045 26.6621 5 26.8311C5 27.1411 5.11115 27.4384 5.30899 27.6576C5.50683 27.8768 5.77516 28 6.05494 28H15.9451C16.2248 28 16.4932 27.8768 16.691 27.6576C16.8889 27.4384 17 27.1411 17 26.8311C16.9996 26.6621 16.967 26.4951 16.9046 26.3409C16.8421 26.1867 16.7511 26.0488 16.6374 25.9361C16.2036 25.5189 15.8567 25.0024 15.6205 24.4222C15.3843 23.842 15.2644 23.212 15.2692 22.5755Z" fill="#FDC113"/>
<path d="M19 18C19 18.5933 18.8241 19.1734 18.4944 19.6667C18.1648 20.1601 17.6962 20.5446 17.1481 20.7716C16.5999 20.9987 15.9967 21.0581 15.4147 20.9424C14.8328 20.8266 14.2982 20.5409 13.8787 20.1213C13.4591 19.7018 13.1734 19.1672 13.0576 18.5853C12.9419 18.0033 13.0013 17.4001 13.2284 16.8519C13.4554 16.3038 13.8399 15.8352 14.3333 15.5056C14.8266 15.1759 15.4067 15 16 15C16.7956 15 17.5587 15.3161 18.1213 15.8787C18.6839 16.4413 19 17.2044 19 18Z" fill="#EF4538"/>
</svg>
