<svg width="24" height="44" viewBox="0 0 24 44" fill="none" xmlns="http://www.w3.org/2000/svg">
<g clip-path="url(#clip0)">
<path d="M3.16008 44H20.8399C21.6788 43.9979 22.4825 43.6718 23.0749 43.0934C23.6673 42.515 24 41.7314 24 40.9144V3.07749C24 2.67335 23.9183 2.27316 23.7595 1.89979C23.6006 1.52641 23.3679 1.18715 23.0744 0.901376C22.781 0.615604 22.4326 0.388918 22.0492 0.23426C21.6658 0.0796016 21.2549 0 20.8399 0L3.16008 0C2.32198 0 1.5182 0.324234 0.925567 0.901376C0.332936 1.47852 0 2.26129 0 3.07749L0 40.9144C-2.88944e-06 41.7314 0.332668 42.515 0.92506 43.0934C1.51745 43.6718 2.32121 43.9979 3.16008 44Z" fill="#3A3B3A"/>
<path d="M1.18921 3.36898V40.3312C1.18919 40.9342 1.43398 41.5126 1.87019 41.9405C2.30639 42.3683 2.89861 42.6108 3.51769 42.6151H20.4907C21.1083 42.6087 21.6984 42.3652 22.1328 41.9376C22.5672 41.51 22.8109 40.9328 22.8108 40.3312V3.36898C22.8108 2.76822 22.5669 2.19182 22.1323 1.76551C21.6976 1.33919 21.1075 1.09754 20.4907 1.09326H3.50938C2.8925 1.09754 2.30239 1.33919 1.86775 1.76551C1.43311 2.19182 1.18919 2.76822 1.18921 3.36898Z" fill="white"/>
<path d="M8.44906 2.42974H15.5509C15.6886 2.43407 15.8257 2.41193 15.9545 2.3646C16.0834 2.31728 16.2013 2.24569 16.3017 2.15393C16.4021 2.06217 16.483 1.95204 16.5397 1.82983C16.5963 1.70762 16.6277 1.57573 16.632 1.44171V1.27973C16.6321 1.14296 16.6039 1.00757 16.5492 0.881602C16.4945 0.755638 16.4143 0.641673 16.3135 0.546481C16.2126 0.45129 16.0931 0.376814 15.9621 0.32748C15.8311 0.278146 15.6913 0.254961 15.5509 0.259303H8.44906C8.17116 0.259303 7.90465 0.366813 7.70814 0.558181C7.51164 0.749548 7.40125 1.0091 7.40125 1.27973V1.44171C7.40989 1.70669 7.52409 1.95799 7.71966 2.14241C7.91524 2.32683 8.17683 2.42988 8.44906 2.42974Z" fill="#3A3B3A"/>
<path fill-rule="evenodd" clip-rule="evenodd" d="M9.50518 21.2461H11.501V22.0559H11.0104L12.1746 24.7366L13.3056 22.0074H12.8066V21.1975H14.4033V21.6429L12.474 26.0567C12.2855 26.0776 12.0951 26.0403 11.9295 25.9503C11.7639 25.8602 11.6315 25.7218 11.5509 25.5546L9.9792 22.0074H9.50518V21.1975V21.2461ZM6.76922 21.1084C7.26264 21.1084 7.74499 21.2509 8.15525 21.5179C8.56552 21.7848 8.88529 22.1643 9.07411 22.6082C9.26294 23.0522 9.31234 23.5407 9.21608 24.012C9.11982 24.4833 8.88221 24.9162 8.53331 25.256C8.1844 25.5958 7.73987 25.8272 7.25593 25.9209C6.77198 26.0147 6.27036 25.9665 5.8145 25.7827C5.35863 25.5988 4.969 25.2874 4.69486 24.8878C4.42073 24.4883 4.27441 24.0185 4.27441 23.538C4.27441 22.8936 4.53726 22.2757 5.00512 21.82C5.47299 21.3644 6.10755 21.1084 6.76922 21.1084ZM6.76922 21.9183C7.20401 21.9477 7.61114 22.1368 7.90843 22.4471C8.20573 22.7575 8.37106 23.1662 8.37106 23.5906C8.37106 24.0151 8.20573 24.4237 7.90843 24.7341C7.61114 25.0445 7.20401 25.2335 6.76922 25.263C6.33442 25.2335 5.9273 25.0445 5.63 24.7341C5.33271 24.4237 5.16738 24.0151 5.16738 23.5906C5.16738 23.1662 5.33271 22.7575 5.63 22.4471C5.9273 22.1368 6.33442 21.9477 6.76922 21.9183ZM17.2391 21.1084C17.7325 21.1084 18.2148 21.2509 18.6251 21.5179C19.0354 21.7848 19.3551 22.1643 19.544 22.6082C19.7328 23.0522 19.7822 23.5407 19.6859 24.012C19.5897 24.4833 19.3521 24.9162 19.0032 25.256C18.6543 25.5958 18.2097 25.8272 17.7258 25.9209C17.2418 26.0147 16.7402 25.9665 16.2844 25.7827C15.8285 25.5988 15.4389 25.2874 15.1647 24.8878C14.8906 24.4883 14.7443 24.0185 14.7443 23.538C14.7443 22.895 15.006 22.2783 15.472 21.8229C15.9381 21.3675 16.5705 21.1105 17.2308 21.1084H17.2391ZM17.2391 21.9183C17.5823 21.8941 17.9252 21.9706 18.2233 22.138C18.5214 22.3055 18.7612 22.5561 18.9116 22.8575C19.0621 23.1589 19.1163 23.4974 19.0673 23.8291C19.0182 24.1609 18.8682 24.4707 18.6366 24.7186C18.405 24.9665 18.1024 25.1411 17.7678 25.2198C17.4333 25.2986 17.0822 25.2778 16.7599 25.1603C16.4376 25.0428 16.1589 24.834 15.9597 24.5607C15.7605 24.2873 15.6499 23.9622 15.6424 23.6271C15.6266 23.2015 15.7835 22.7869 16.0792 22.4731C16.3749 22.1594 16.7856 21.9717 17.2224 21.9507L17.2391 21.9183Z" fill="#3D2B7F"/>
</g>
<defs>
<clipPath id="clip0">
<rect width="24" height="44" fill="white"/>
</clipPath>
</defs>
</svg>
