<svg width="28" height="28" viewBox="0 0 28 28" fill="none" xmlns="http://www.w3.org/2000/svg">
<rect width="28" height="28" rx="8" fill="#F0EEF8"/>
<path d="M8.3824 9.90945V11.9055H7.02197V6.00045H9.29469C9.69193 5.99302 10.0857 6.07828 10.4471 6.24996C10.7683 6.39974 11.0368 6.64971 11.2153 6.96522C11.4084 7.27131 11.5088 7.63055 11.5034 7.99653C11.5173 8.26306 11.4693 8.52916 11.3635 8.77235C11.2576 9.01555 11.097 9.22869 10.8952 9.39379C10.433 9.74853 9.8689 9.93028 9.29469 9.90945H8.3824ZM8.3824 8.8116H9.29469C9.51167 8.82261 9.7242 8.745 9.88687 8.59536C9.96251 8.52093 10.0217 8.43033 10.0604 8.32982C10.0991 8.22931 10.1163 8.12127 10.1109 8.01317C10.1213 7.76969 10.0411 7.53142 9.88687 7.3478C9.81428 7.26489 9.72505 7.19956 9.62548 7.15645C9.52592 7.11333 9.41846 7.09348 9.31069 7.09829H8.3824V8.8116ZM14.7844 10.8077H12.8798L12.5597 11.9055H11.0873L13.1839 6.00045H14.4643L16.577 11.9055H15.1045L14.7844 10.8077ZM13.1839 9.70984H14.4003L13.7921 7.64722L13.1839 9.70984ZM18.4496 8.56209L19.5059 6.00045H20.9784L19.1538 9.79301V11.9055H17.7614V9.79301L15.9368 6.00045H17.4092L18.4496 8.56209Z" fill="#3D2B7F"/>
<path opacity="0.5" d="M13.9999 22C14.7506 22 15.4845 21.7773 16.1087 21.3603C16.7329 20.9432 17.2194 20.3504 17.5067 19.6568C17.794 18.9632 17.8691 18.2 17.7227 17.4637C17.5762 16.7274 17.2147 16.051 16.6839 15.5202C16.153 14.9894 15.4767 14.6278 14.7404 14.4814C14.0041 14.3349 13.2409 14.4101 12.5473 14.6974C11.8537 14.9847 11.2609 15.4712 10.8438 16.0954C10.4267 16.7196 10.2041 17.4535 10.2041 18.2042C10.2041 19.2109 10.604 20.1764 11.3159 20.8882C12.0277 21.6001 12.9932 22 13.9999 22V22Z" fill="#3D2B7F" fill-opacity="0.7"/>
<path opacity="0.5" d="M13.9997 20.7347C14.5002 20.7347 14.9895 20.5863 15.4056 20.3083C15.8218 20.0302 16.1461 19.635 16.3376 19.1726C16.5292 18.7102 16.5793 18.2014 16.4816 17.7105C16.384 17.2197 16.143 16.7688 15.7891 16.4149C15.4352 16.061 14.9843 15.82 14.4934 15.7223C14.0026 15.6247 13.4938 15.6748 13.0314 15.8663C12.569 16.0579 12.1738 16.3822 11.8957 16.7983C11.6177 17.2145 11.4692 17.7037 11.4692 18.2042C11.4692 18.8753 11.7358 19.519 12.2104 19.9936C12.685 20.4681 13.3286 20.7347 13.9997 20.7347Z" fill="#3D2B7F"/>
</svg>
